<svg width="31" height="31" viewBox="0 0 31 31" fill="none" xmlns="http://www.w3.org/2000/svg">
<path d="M9.23236 8.57295C9.23236 9.15342 9.46295 9.71012 9.87341 10.1206C10.2839 10.531 10.8406 10.7616 11.421 10.7616C12.0015 10.7616 12.5582 10.531 12.9687 10.1206C13.3791 9.71012 13.6097 9.15342 13.6097 8.57295C13.6097 7.99248 13.3791 7.43578 12.9687 7.02533C12.5582 6.61487 12.0015 6.38428 11.421 6.38428C10.8406 6.38428 10.2839 6.61487 9.87341 7.02533C9.46295 7.43578 9.23236 7.99248 9.23236 8.57295ZM17.9539 27.5407H12.4979C11.6262 27.5404 10.7902 27.194 10.1735 26.5778C9.55691 25.9616 9.21004 25.1258 9.20911 24.254V23.7362C3.224 20.4143 1.06527 12.8679 4.38861 6.88275C7.71125 0.897633 15.2569 -1.26039 21.242 2.06225C27.2279 5.38488 29.3859 12.9306 26.0632 18.9164C24.9384 20.9423 23.2681 22.6123 21.242 23.7369V24.2547C21.2411 25.1264 20.8943 25.962 20.2779 26.5782C19.6614 27.1945 18.8256 27.5409 17.9539 27.5414V27.5407ZM15.2252 2.8147C9.6565 2.81329 5.14106 7.32661 5.14036 12.896C5.1399 14.7978 5.67726 16.6609 6.69041 18.2704C7.70356 19.8798 9.15119 21.1699 10.8662 21.9917C11.2664 22.1841 11.5214 22.5892 11.5214 23.0338V24.2547C11.5218 24.5135 11.6248 24.7615 11.8079 24.9443C11.991 25.1271 12.2392 25.2298 12.4979 25.2298H17.9539C18.4922 25.2298 18.9297 24.7937 18.9304 24.2547V23.0338C18.9304 22.5892 19.1848 22.1841 19.5857 21.991C24.6077 19.585 26.7276 13.5625 24.3209 8.54054C23.4991 6.82553 22.209 5.3779 20.5995 4.36475C18.9901 3.3516 17.127 2.81424 15.2252 2.8147ZM19.0298 30.8225H11.4207C11.1141 30.8225 10.8202 30.7007 10.6034 30.484C10.3866 30.2672 10.2649 29.9732 10.2649 29.6667C10.2649 29.3602 10.3866 29.0662 10.6034 28.8494C10.8202 28.6327 11.1141 28.5109 11.4207 28.5109H19.0298C19.3363 28.5109 19.6303 28.6327 19.847 28.8494C20.0638 29.0662 20.1856 29.3602 20.1856 29.6667C20.1856 29.9732 20.0638 30.2672 19.847 30.484C19.6303 30.7007 19.3363 30.8225 19.0298 30.8225Z" fill="white"/>
</svg>
