<?xml version="1.0" encoding="utf-8"?>
<!-- Generator: Adobe Illustrator 22.0.0, SVG Export Plug-In . SVG Version: 6.00 Build 0)  -->
<svg version="1.1" id="图层_1" xmlns="http://www.w3.org/2000/svg" xmlns:xlink="http://www.w3.org/1999/xlink" x="0px" y="0px"
	 viewBox="0 0 28 28" style="enable-background:new 0 0 28 28;" xml:space="preserve">
<style type="text/css">
	.st0{fill:#CF2F79;}
</style>
<path class="st0" d="M22.8,0C25.6,0,28,2.3,28,5l0,0v17.7c0,2.8-2.4,5.2-5.2,5.2l0,0H5c-2.7,0.1-5-2.2-5-5.1l0,0V5c0-2.7,2.3-5,5-5
	l0,0H22.8z M11,6.7c-2.4-0.2-4.4,1.8-4.4,4v0.4c-0.2,1.2-0.2,5.1,0,6.2c-0.1,2.3,1.8,4.4,4.1,4.4h0.4c1.2,0.2,5.1,0.2,6.2,0
	c2.4,0.2,4.4-1.8,4.6-4v-6.6c0.1-2.4-1.8-4.4-4-4.5h-0.5C16.1,6.5,12.3,6.5,11,6.7z M14.3,10.2c2.2,0,3.9,1.9,3.9,3.9
	c0,2.2-1.9,3.9-3.9,3.9c-2.2,0-3.9-1.9-3.9-3.9C10.2,11.9,12.1,10.2,14.3,10.2z M14.3,11.7c-1.3,0-2.5,1-2.5,2.5l0,0
	c0,1.3,1.1,2.5,2.5,2.5l0,0c1.5,0,2.5-1,2.5-2.5l0,0C16.8,12.9,15.7,11.7,14.3,11.7L14.3,11.7z M18.3,9.3c0.5,0,0.9,0.5,0.9,0.9
	c0,0.5-0.4,0.9-0.9,0.9l0,0c-0.5,0-0.9-0.4-0.9-0.9l0,0C17.4,9.6,17.7,9.3,18.3,9.3z"/>
</svg>
