<?xml version="1.0" encoding="utf-8"?>
<!-- Generator: Adobe Illustrator 22.0.0, SVG Export Plug-In . SVG Version: 6.00 Build 0)  -->
<svg version="1.1" id="图层_1" xmlns="http://www.w3.org/2000/svg" xmlns:xlink="http://www.w3.org/1999/xlink" x="0px" y="0px"
	 viewBox="0 0 28 28" style="enable-background:new 0 0 28 28;" xml:space="preserve">
<style type="text/css">
	.st0{fill:#3C5A99;}
</style>
<path class="st0" d="M22.7,0c1.5,0,2.7,0.5,3.7,1.5C27.6,2.7,28,3.9,28,5.2v17.5c0,1.4-0.5,2.7-1.6,3.7c-1.1,1.1-2.4,1.5-3.7,1.5
	h-3.4V17.2h3.6l0.6-4.2h-4.3v-2.8c0-0.6,0.2-1.2,0.5-1.5s0.7-0.4,1.7-0.4h2.2v-4c-0.8-0.2-1.9-0.2-3.3-0.2c-1.8,0-3,0.5-3.9,1.4
	s-1.6,2.4-1.6,4v3.1h-3.4V17H15v11H5.3c-1.5,0-2.7-0.7-3.7-1.8c-1-1-1.6-2.3-1.6-3.7V5.2c0-1.5,0.5-2.7,1.6-3.7S3.9,0,5.3,0H22.7z"
	/>
</svg>
