<svg width="31" height="31" viewBox="0 0 31 31" fill="none" xmlns="http://www.w3.org/2000/svg">
<g clip-path="url(#clip0_63_1750)">
<path d="M16.2607 0.277544C16.0483 0.0977087 15.7789 -0.000976562 15.5005 -0.000976562C15.2222 -0.000976562 14.9528 0.0977087 14.7403 0.277544C14.2866 0.661049 3.67841 9.708 3.67841 19.1709C3.67799 20.7234 3.98336 22.2607 4.57707 23.6951C5.17078 25.1295 6.0412 26.433 7.13865 27.531C8.2361 28.629 9.53907 29.5001 10.9732 30.0946C12.4073 30.6891 13.9444 30.9953 15.4969 30.9957C17.0493 30.9961 18.5866 30.6907 20.021 30.097C21.4555 29.5033 22.7589 28.6329 23.8569 27.5354C24.9549 26.438 25.8261 25.135 26.4205 23.7009C27.015 22.2668 27.3212 20.7297 27.3216 19.1772C27.3216 9.71219 16.7082 0.661049 16.2597 0.277544H16.2607ZM15.5 28.6412C12.9906 28.6384 10.5847 27.6403 8.81028 25.8659C7.03584 24.0915 6.03775 21.6856 6.03497 19.1762C6.03497 12.1693 13.1309 4.97391 15.5 2.76928C17.8691 4.97915 24.965 12.1746 24.965 19.1762C24.9614 21.6854 23.9631 24.0909 22.1889 25.8654C20.4147 27.6398 18.0093 28.6384 15.5 28.6423V28.6412Z" fill="white"/>
<path d="M18.6351 17.2338L15.1228 17.2275L17.362 14.9883C17.4756 14.8797 17.5664 14.7495 17.629 14.6053C17.6916 14.4611 17.7247 14.3059 17.7265 14.1487C17.7283 13.9915 17.6986 13.8356 17.6393 13.6901C17.58 13.5445 17.4921 13.4123 17.381 13.3011C17.2699 13.19 17.1376 13.1022 16.9921 13.0429C16.8465 12.9835 16.6906 12.9539 16.5334 12.9556C16.3763 12.9574 16.221 12.9906 16.0768 13.0532C15.9327 13.1158 15.8025 13.2065 15.6938 13.3202L11.4449 17.5628C11.2813 17.7281 11.1701 17.938 11.1252 18.1662C11.0802 18.3944 11.1035 18.6308 11.1922 18.8458C11.2809 19.0608 11.431 19.245 11.6237 19.3751C11.8164 19.5053 12.0433 19.5758 12.2758 19.5778L15.7882 19.5841L13.5489 21.8233C13.4345 21.9313 13.3429 22.0611 13.2796 22.2051C13.2162 22.3491 13.1823 22.5043 13.1798 22.6616C13.1774 22.8189 13.2066 22.9751 13.2655 23.121C13.3245 23.2669 13.4121 23.3994 13.5231 23.5109C13.6341 23.6224 13.7664 23.7104 13.912 23.7699C14.0577 23.8294 14.2137 23.8592 14.3711 23.8574C14.5284 23.8555 14.6837 23.8222 14.828 23.7594C14.9722 23.6965 15.1024 23.6054 15.2108 23.4914L19.4535 19.2488C19.6179 19.0836 19.7297 18.8735 19.7748 18.6449C19.8199 18.4162 19.7964 18.1794 19.707 17.9641C19.6227 17.7481 19.4752 17.5626 19.2838 17.4317C19.0924 17.3009 18.8659 17.2308 18.6341 17.2306L18.6351 17.2338Z" fill="white"/>
</g>
<defs>
<clipPath id="clip0_63_1750">
<rect width="31" height="31" fill="white"/>
</clipPath>
</defs>
</svg>
