<?xml version="1.0" encoding="utf-8"?>
<!-- Generator: Adobe Illustrator 22.0.0, SVG Export Plug-In . SVG Version: 6.00 Build 0)  -->
<svg version="1.1" id="图层_1" xmlns="http://www.w3.org/2000/svg" xmlns:xlink="http://www.w3.org/1999/xlink" x="0px" y="0px"
	 viewBox="0 0 28 27.9" style="enable-background:new 0 0 28 27.9;" xml:space="preserve">
<style type="text/css">
	.st0{fill:#1296DB;}
</style>
<path class="st0" d="M23.3,0H4.7C2,0,0,2,0,4.7v18.6C0,26,2,28,4.7,28h18.7c2.7,0,4.7-2,4.7-4.7V4.7C28,2,26,0,23.3,0z M22.8,10.9
	v0.6c0,5.9-4.6,12.7-12.9,12.7c-2.6,0-5-0.8-7-2.1H4c2.2,0,4-0.8,5.6-1.9c-2,0-3.7-1.4-4.4-3.1c0.3,0,0.4,0.1,0.8,0.1s0.6,0,1-0.1
	c-2.2-0.4-4-2.3-4-4.4c1.6,0.3,1.7,0.5,2.4,0.6c-1-0.9-1.5-2.3-1.5-3.9c0-0.8,0.1-1.6,0.6-2.2c2.2,2.7,5.6,4.5,9.3,4.7
	c-0.1-0.3-0.1-0.6-0.1-0.9c0-2.5,2-4.4,4.6-4.4c1.2,0,2.5,0.5,3.2,1.3c1.1-0.1,2.1-0.6,3-1c-0.3,1-1.1,1.9-2.1,2.5
	c0.9-0.1,1.9-0.3,2.7-0.8C24.4,9.4,23.6,10.2,22.8,10.9L22.8,10.9z"/>
</svg>
