<?xml version="1.0" encoding="utf-8"?>
<!-- Generator: Adobe Illustrator 22.0.0, SVG Export Plug-In . SVG Version: 6.00 Build 0)  -->
<svg version="1.1" id="图层_1" xmlns="http://www.w3.org/2000/svg" xmlns:xlink="http://www.w3.org/1999/xlink" x="0px" y="0px"
	 viewBox="0 0 28 28" style="enable-background:new 0 0 28 28;" xml:space="preserve">
<style type="text/css">
	.st0{fill:#0B66C1;}
</style>
<path class="st0" d="M25.2,0C26.7,0,28,1.2,28,2.8v22.4c0,1.5-1.3,2.8-2.8,2.8l0,0H2.8C1.3,27.9,0,26.7,0,25.1l0,0V2.8
	C0,1.2,1.3,0,2.8,0H25.2z M9.6,11.2H5.1v11.4h4.5C9.6,22.5,9.6,11.2,9.6,11.2z M18.7,10.7c-1.6,0-2.8,0.7-3.6,2.2v-1.7H11v11.4h4.2
	V16c0-0.9,0.4-1.9,2-2c1,0,1.7,0.6,1.9,2v6.6h4V15C23.2,12.6,21.2,10.7,18.7,10.7L18.7,10.7z M7.3,5.5C6.1,5.5,5,6.4,5,7.4
	s1,2,2.3,2s2.3-0.9,2.3-2S8.6,5.5,7.3,5.5z"/>
</svg>
