<?xml version="1.0" encoding="utf-8"?>
<!-- Generator: Adobe Illustrator 22.0.0, SVG Export Plug-In . SVG Version: 6.00 Build 0)  -->
<svg version="1.1" id="图层_1" xmlns="http://www.w3.org/2000/svg" xmlns:xlink="http://www.w3.org/1999/xlink" x="0px" y="0px"
	 viewBox="0 0 99.4 119" style="enable-background:new 0 0 99.4 119;" xml:space="preserve">
<style type="text/css">
	.st0{clip-path:url(#SVGID_1_);fill:url(#SVGID_2_);}
	.st1{clip-path:url(#SVGID_3_);fill:url(#SVGID_4_);}
	.st2{clip-path:url(#SVGID_5_);fill:url(#SVGID_6_);}
	.st3{clip-path:url(#SVGID_7_);fill:url(#SVGID_8_);}
	.st4{clip-path:url(#SVGID_9_);fill:url(#SVGID_10_);}
	.st5{clip-path:url(#SVGID_11_);fill:url(#SVGID_12_);}
	.st6{clip-path:url(#SVGID_13_);fill:url(#SVGID_14_);}
	.st7{clip-path:url(#SVGID_15_);fill:url(#SVGID_16_);}
	.st8{clip-path:url(#SVGID_17_);fill:url(#SVGID_18_);}
	.st9{clip-path:url(#SVGID_19_);fill:url(#SVGID_20_);}
	.st10{clip-path:url(#SVGID_21_);fill:url(#SVGID_22_);}
	.st11{clip-path:url(#SVGID_23_);fill:url(#SVGID_24_);}
	.st12{clip-path:url(#SVGID_25_);fill:url(#SVGID_26_);}
	.st13{clip-path:url(#SVGID_27_);fill:url(#SVGID_28_);}
	.st14{clip-path:url(#SVGID_29_);fill:url(#SVGID_30_);}
	.st15{clip-path:url(#SVGID_31_);fill:url(#SVGID_32_);}
	.st16{clip-path:url(#SVGID_33_);fill:url(#SVGID_34_);}
	.st17{clip-path:url(#SVGID_35_);fill:url(#SVGID_36_);}
	.st18{clip-path:url(#SVGID_37_);fill:url(#SVGID_38_);}
	.st19{clip-path:url(#SVGID_39_);fill:url(#SVGID_40_);}
	.st20{clip-path:url(#SVGID_41_);fill:url(#SVGID_42_);}
	.st21{clip-path:url(#SVGID_43_);fill:url(#SVGID_44_);}
	.st22{clip-path:url(#SVGID_45_);fill:url(#SVGID_46_);}
	.st23{clip-path:url(#SVGID_47_);fill:url(#SVGID_48_);}
	.st24{clip-path:url(#SVGID_49_);fill:#FFFFFF;}
	.st25{filter:url(#Adobe_OpacityMaskFilter);}
	.st26{clip-path:url(#SVGID_50_);fill:url(#SVGID_52_);}
	.st27{clip-path:url(#SVGID_50_);mask:url(#SVGID_51_);fill:url(#SVGID_53_);}
</style>
<g>
	<g>
		<defs>
			<path id="SVGID_80_" d="M3.7,114.5c0.3,0.3,0.5,0.5,0.8,0.8l10.6-16.1c0-0.2,0.1-0.4,0.1-0.6v0L3.7,114.5z"/>
		</defs>
		<clipPath id="SVGID_1_">
			<use xlink:href="#SVGID_80_"  style="overflow:visible;"/>
		</clipPath>
		
			<radialGradient id="SVGID_2_" cx="-381.6701" cy="312.6212" r="1.6251" gradientTransform="matrix(14.2546 0 0 -14.2546 5460.0566 4555.1401)" gradientUnits="userSpaceOnUse">
			<stop  offset="0" style="stop-color:#158884"/>
			<stop  offset="1" style="stop-color:#17913A"/>
		</radialGradient>
		<rect x="3.7" y="98.6" class="st0" width="11.5" height="16.7"/>
	</g>
	<g>
		<defs>
			<path id="SVGID_83_" d="M1.6,111.5c0.2,0.3,0.4,0.7,0.6,1l13.2-14.4c0.1-0.3,0.3-0.5,0.4-0.7L1.6,111.5z"/>
		</defs>
		<clipPath id="SVGID_3_">
			<use xlink:href="#SVGID_83_"  style="overflow:visible;"/>
		</clipPath>
		
			<radialGradient id="SVGID_4_" cx="-381.6706" cy="312.6213" r="1.6251" gradientTransform="matrix(14.2549 0 0 -14.2549 5460.2056 4555.2568)" gradientUnits="userSpaceOnUse">
			<stop  offset="0" style="stop-color:#158884"/>
			<stop  offset="1" style="stop-color:#17913A"/>
		</radialGradient>
		<rect x="1.6" y="97.4" class="st1" width="14.2" height="15.1"/>
	</g>
	<g>
		<defs>
			<path id="SVGID_86_" d="M23.4,101c-0.1,0.2-0.1,0.3-0.2,0.5l3.4-2.3c-0.1-0.3-0.3-0.6-0.5-0.9L23.4,101z"/>
		</defs>
		<clipPath id="SVGID_5_">
			<use xlink:href="#SVGID_86_"  style="overflow:visible;"/>
		</clipPath>
		
			<radialGradient id="SVGID_6_" cx="-381.671" cy="312.6214" r="1.6251" gradientTransform="matrix(14.2552 0 0 -14.2552 5460.314 4555.3423)" gradientUnits="userSpaceOnUse">
			<stop  offset="0" style="stop-color:#158884"/>
			<stop  offset="1" style="stop-color:#17913A"/>
		</radialGradient>
		<rect x="23.3" y="98.4" class="st2" width="3.4" height="3.2"/>
	</g>
	<g>
		<defs>
			<path id="SVGID_89_" d="M21.9,103.3l6,2.7c0-0.4,0-0.8,0-0.9l-5.9-1.9C22,103.2,21.9,103.2,21.9,103.3"/>
		</defs>
		<clipPath id="SVGID_7_">
			<use xlink:href="#SVGID_89_"  style="overflow:visible;"/>
		</clipPath>
		
			<radialGradient id="SVGID_8_" cx="-381.6683" cy="312.621" r="1.6251" gradientTransform="matrix(14.2533 0 0 -14.2533 5459.5557 4554.7476)" gradientUnits="userSpaceOnUse">
			<stop  offset="0" style="stop-color:#158884"/>
			<stop  offset="1" style="stop-color:#17913A"/>
		</radialGradient>
		<rect x="21.9" y="103.1" class="st3" width="6" height="2.8"/>
	</g>
	<g>
		<defs>
			<path id="SVGID_92_" d="M22.9,102.2c-0.1,0.1-0.1,0.2-0.2,0.3l4.9,0c0-0.3-0.1-0.6-0.2-0.9L22.9,102.2z"/>
		</defs>
		<clipPath id="SVGID_9_">
			<use xlink:href="#SVGID_92_"  style="overflow:visible;"/>
		</clipPath>
		
			<radialGradient id="SVGID_10_" cx="-381.6695" cy="312.6212" r="1.6251" gradientTransform="matrix(14.2541 0 0 -14.2541 5459.8867 4555.0073)" gradientUnits="userSpaceOnUse">
			<stop  offset="0" style="stop-color:#158884"/>
			<stop  offset="1" style="stop-color:#17913A"/>
		</radialGradient>
		<rect x="22.7" y="101.6" class="st4" width="4.9" height="0.9"/>
	</g>
	<g>
		<defs>
			<path id="SVGID_95_" d="M13.7,91.3l6.1,3.9l-8.3-3.7c-0.4,0.1-0.9,0.2-1.3,0.3l8.7,3.4L7.9,92.6c-0.4,0.2-0.8,0.4-1.2,0.6l11.4,2
				L4.9,94.7c-0.3,0.3-0.7,0.6-1,0.9l13.7-0.1L2.4,97.4c-0.3,0.4-0.5,0.7-0.7,1.1l15.3-2.7l-16.3,5.1c-0.1,0.4-0.2,0.7-0.3,1.1
				l16.1-5.7l-16.4,8.1c0,0.3,0,0.8,0,1.2l16-8.8L0.4,108c0.1,0.4,0.2,0.7,0.3,1.1l15.4-12c0.8-1,2-1.6,3.3-1.6
				c2.4,0,4.3,1.9,4.3,4.3c0,0.3,0,0.5-0.1,0.7l1.2-4.2c-0.2-0.3-0.5-0.6-0.7-0.8l-0.3,3l-1.6-4.6c-0.4-0.3-0.7-0.5-1.1-0.7l1.4,3.1
				l-3.5-4.1c-0.5-0.2-0.9-0.3-1.4-0.4l3.5,3.7l-5.8-4.1c-0.3,0-0.7,0-1.1,0C14,91.3,13.8,91.3,13.7,91.3"/>
		</defs>
		<clipPath id="SVGID_11_">
			<use xlink:href="#SVGID_95_"  style="overflow:visible;"/>
		</clipPath>
		
			<radialGradient id="SVGID_12_" cx="-381.6703" cy="312.6213" r="1.6251" gradientTransform="matrix(14.2547 0 0 -14.2547 5460.1255 4555.1948)" gradientUnits="userSpaceOnUse">
			<stop  offset="0" style="stop-color:#158884"/>
			<stop  offset="1" style="stop-color:#17913A"/>
		</radialGradient>
		<rect x="0.1" y="91.3" class="st5" width="24.7" height="17.8"/>
	</g>
	<g>
		<defs>
			<path id="SVGID_98_" d="M6.5,116.8c0.3,0.2,0.6,0.4,0.9,0.5l7.7-17.1c0-0.2,0-0.3,0-0.5L6.5,116.8z"/>
		</defs>
		<clipPath id="SVGID_13_">
			<use xlink:href="#SVGID_98_"  style="overflow:visible;"/>
		</clipPath>
		
			<radialGradient id="SVGID_14_" cx="-381.6703" cy="312.6213" r="1.6251" gradientTransform="matrix(14.2548 0 0 -14.2548 5460.1333 4555.2007)" gradientUnits="userSpaceOnUse">
			<stop  offset="0" style="stop-color:#158884"/>
			<stop  offset="1" style="stop-color:#17913A"/>
		</radialGradient>
		<rect x="6.5" y="99.8" class="st6" width="8.6" height="17.5"/>
	</g>
	<g>
		<defs>
			<path id="SVGID_101_" d="M19.7,104.1l5.9,8.7c0.2-0.3,0.4-0.6,0.5-0.9l-6.2-7.8C19.9,104.1,19.8,104.1,19.7,104.1"/>
		</defs>
		<clipPath id="SVGID_15_">
			<use xlink:href="#SVGID_101_"  style="overflow:visible;"/>
		</clipPath>
		
			<radialGradient id="SVGID_16_" cx="-381.6702" cy="312.6213" r="1.6251" gradientTransform="matrix(14.2546 0 0 -14.2546 5460.0864 4555.1641)" gradientUnits="userSpaceOnUse">
			<stop  offset="0" style="stop-color:#158884"/>
			<stop  offset="1" style="stop-color:#17913A"/>
		</radialGradient>
		<rect x="19.7" y="104.1" class="st7" width="6.4" height="8.7"/>
	</g>
	<g>
		<defs>
			<path id="SVGID_104_" d="M20.9,103.8l6.4,5.7c0.1-0.3,0.2-0.6,0.3-0.9l-6.4-4.8C21,103.8,20.9,103.8,20.9,103.8"/>
		</defs>
		<clipPath id="SVGID_17_">
			<use xlink:href="#SVGID_104_"  style="overflow:visible;"/>
		</clipPath>
		
			<radialGradient id="SVGID_18_" cx="-381.6697" cy="312.6212" r="1.6251" gradientTransform="matrix(14.2543 0 0 -14.2543 5459.9521 4555.0586)" gradientUnits="userSpaceOnUse">
			<stop  offset="0" style="stop-color:#158884"/>
			<stop  offset="1" style="stop-color:#17913A"/>
		</radialGradient>
		<rect x="20.9" y="103.7" class="st8" width="6.6" height="5.7"/>
	</g>
	<g>
		<defs>
			<path id="SVGID_107_" d="M23.4,115.4c0.2-0.2,0.5-0.5,0.7-0.7l-5.3-10.5c-0.1,0-0.2,0-0.3,0L23.4,115.4z"/>
		</defs>
		<clipPath id="SVGID_19_">
			<use xlink:href="#SVGID_107_"  style="overflow:visible;"/>
		</clipPath>
		
			<radialGradient id="SVGID_20_" cx="-381.6701" cy="312.6212" r="1.6251" gradientTransform="matrix(14.2546 0 0 -14.2546 5460.062 4555.1445)" gradientUnits="userSpaceOnUse">
			<stop  offset="0" style="stop-color:#158884"/>
			<stop  offset="1" style="stop-color:#17913A"/>
		</radialGradient>
		<rect x="18.6" y="104" class="st9" width="5.6" height="11.3"/>
	</g>
	<g>
		<defs>
			<path id="SVGID_110_" d="M13.4,119c0.3,0,0.8,0,1.1,0l1.5-16.6c-0.1-0.1-0.1-0.2-0.2-0.3L13.4,119z"/>
		</defs>
		<clipPath id="SVGID_21_">
			<use xlink:href="#SVGID_110_"  style="overflow:visible;"/>
		</clipPath>
		
			<radialGradient id="SVGID_22_" cx="-381.6708" cy="312.6213" r="1.6251" gradientTransform="matrix(14.2551 0 0 -14.2551 5460.27 4555.3076)" gradientUnits="userSpaceOnUse">
			<stop  offset="0" style="stop-color:#158884"/>
			<stop  offset="1" style="stop-color:#17913A"/>
		</radialGradient>
		<rect x="13.4" y="102.1" class="st10" width="2.6" height="16.9"/>
	</g>
	<g>
		<defs>
			<path id="SVGID_113_" d="M20.4,117.5c0.3-0.2,0.6-0.3,0.9-0.5l-3.6-13.2c-0.1,0-0.2-0.1-0.3-0.1L20.4,117.5z"/>
		</defs>
		<clipPath id="SVGID_23_">
			<use xlink:href="#SVGID_113_"  style="overflow:visible;"/>
		</clipPath>
		
			<radialGradient id="SVGID_24_" cx="-381.67" cy="312.6212" r="1.6251" gradientTransform="matrix(14.2545 0 0 -14.2545 5460.0171 4555.1094)" gradientUnits="userSpaceOnUse">
			<stop  offset="0" style="stop-color:#158884"/>
			<stop  offset="1" style="stop-color:#17913A"/>
		</radialGradient>
		<rect x="17.5" y="103.7" class="st11" width="3.8" height="13.8"/>
	</g>
	<g>
		<defs>
			<path id="SVGID_116_" d="M9.8,118.4c0.3,0.1,0.7,0.2,1,0.3l4.6-17.2c-0.1-0.1-0.1-0.3-0.1-0.4L9.8,118.4z"/>
		</defs>
		<clipPath id="SVGID_25_">
			<use xlink:href="#SVGID_116_"  style="overflow:visible;"/>
		</clipPath>
		
			<radialGradient id="SVGID_26_" cx="-381.6702" cy="312.6213" r="1.6251" gradientTransform="matrix(14.2546 0 0 -14.2546 5460.0894 4555.166)" gradientUnits="userSpaceOnUse">
			<stop  offset="0" style="stop-color:#158884"/>
			<stop  offset="1" style="stop-color:#17913A"/>
		</radialGradient>
		<rect x="9.8" y="101" class="st12" width="5.6" height="17.6"/>
	</g>
	<g>
		<defs>
			<path id="SVGID_119_" d="M17,118.7c0.4-0.1,0.7-0.2,1.1-0.3l-1.3-15.2c-0.1-0.1-0.2-0.1-0.2-0.2L17,118.7z"/>
		</defs>
		<clipPath id="SVGID_27_">
			<use xlink:href="#SVGID_119_"  style="overflow:visible;"/>
		</clipPath>
		
			<radialGradient id="SVGID_28_" cx="-381.6696" cy="312.6212" r="1.6251" gradientTransform="matrix(14.2543 0 0 -14.2543 5459.9399 4555.0488)" gradientUnits="userSpaceOnUse">
			<stop  offset="0" style="stop-color:#158884"/>
			<stop  offset="1" style="stop-color:#17913A"/>
		</radialGradient>
		<rect x="16.5" y="103" class="st13" width="1.5" height="15.7"/>
	</g>
	<g>
		<defs>
			<rect id="SVGID_122_" x="33.1" y="99.9" width="1" height="10.4"/>
		</defs>
		<clipPath id="SVGID_29_">
			<use xlink:href="#SVGID_122_"  style="overflow:visible;"/>
		</clipPath>
		
			<radialGradient id="SVGID_30_" cx="-272.4677" cy="299.0631" r="1.6251" gradientTransform="matrix(2.2791 0 0 -2.2791 654.5775 786.722)" gradientUnits="userSpaceOnUse">
			<stop  offset="0" style="stop-color:#138281"/>
			<stop  offset="1" style="stop-color:#168F3A"/>
		</radialGradient>
		<rect x="33.1" y="99.9" class="st14" width="1" height="10.4"/>
	</g>
	<g>
		<defs>
			<polygon id="SVGID_125_" points="43.5,99.9 43.5,104.4 37.8,104.4 37.8,99.9 36.8,99.9 36.8,110.4 37.8,110.4 37.8,105.3 
				43.5,105.3 43.5,110.4 44.5,110.4 44.5,99.9 			"/>
		</defs>
		<clipPath id="SVGID_31_">
			<use xlink:href="#SVGID_125_"  style="overflow:visible;"/>
		</clipPath>
		
			<radialGradient id="SVGID_32_" cx="-296.1915" cy="302.1005" r="1.6252" gradientTransform="matrix(2.8157 0 0 -2.8157 874.6542 955.7671)" gradientUnits="userSpaceOnUse">
			<stop  offset="0" style="stop-color:#138281"/>
			<stop  offset="1" style="stop-color:#168F3A"/>
		</radialGradient>
		<rect x="36.8" y="99.9" class="st15" width="7.7" height="10.4"/>
	</g>
	<g>
		<defs>
			<path id="SVGID_128_" d="M46.8,102.4c0,1.7,1.1,2.3,3.4,3c2.2,0.7,2.7,1.3,2.7,2.3c0,1.2-1,1.9-2.6,1.9c-1.5,0-2.5-0.8-3-2.2
				l-0.9,0.3c0.5,1.7,1.9,2.8,3.8,2.7c2.1,0,3.6-1.1,3.6-2.8c0-1.7-1.1-2.4-3.2-3.1c-2.2-0.7-2.9-1.1-2.9-2.3c0-0.9,0.8-1.7,2.2-1.7
				c1.3,0,2.2,0.5,2.7,1.9l0.8-0.4c-0.5-1.4-1.6-2.4-3.6-2.4C48.1,99.7,46.8,100.9,46.8,102.4"/>
		</defs>
		<clipPath id="SVGID_33_">
			<use xlink:href="#SVGID_128_"  style="overflow:visible;"/>
		</clipPath>
		
			<radialGradient id="SVGID_34_" cx="-296.4214" cy="302.2878" r="1.625" gradientTransform="matrix(2.8564 0 0 -2.8564 896.8433 968.5649)" gradientUnits="userSpaceOnUse">
			<stop  offset="0" style="stop-color:#138281"/>
			<stop  offset="1" style="stop-color:#168F3A"/>
		</radialGradient>
		<rect x="46.4" y="99.7" class="st16" width="7.5" height="10.8"/>
	</g>
	<g>
		<defs>
			<path id="SVGID_131_" d="M59.3,99.9L59.3,99.9L59.3,99.9z M67.6,99.9l-3.5,9.1h0l-3.5-9.1h-1.3v10.4h0.9v-8.7h0
				c0.2,0.7,0.4,1.2,0.7,1.9l2.7,6.9h0.9l2.7-6.9c0.3-0.7,0.5-1.4,0.7-1.8h0v8.7h1V99.9H67.6z"/>
		</defs>
		<clipPath id="SVGID_35_">
			<use xlink:href="#SVGID_131_"  style="overflow:visible;"/>
		</clipPath>
		
			<radialGradient id="SVGID_36_" cx="-302.6326" cy="303.2408" r="1.6252" gradientTransform="matrix(3.0891 0 0 -3.0891 998.9926 1041.8851)" gradientUnits="userSpaceOnUse">
			<stop  offset="0" style="stop-color:#138281"/>
			<stop  offset="1" style="stop-color:#168F3A"/>
		</radialGradient>
		<rect x="59.3" y="99.9" class="st17" width="9.6" height="10.4"/>
	</g>
	<g>
		<defs>
			<path id="SVGID_134_" d="M73.3,109.7c-0.8,0-1.4-0.4-1.4-1.2c0-1,0.9-1.8,4.1-2.3v2.3C75.3,109.2,74.4,109.7,73.3,109.7
				C73.3,109.7,73.3,109.7,73.3,109.7 M71.2,104.2l0.5,0.6c0.8-0.7,1.6-1.2,2.8-1.2c1,0,1.5,0.5,1.5,1.5v0.4c-3.8,0.6-5,1.6-5,3.1
				c0,1.2,0.8,1.9,2.1,1.9c1.1,0,2.1-0.4,2.9-1.2c0,0.4,0.1,0.8,0.2,1.1h1c-0.2-0.4-0.2-0.9-0.2-1.8v-3.4c0-1.5-0.7-2.4-2.4-2.4
				C73.1,102.8,72.1,103.4,71.2,104.2"/>
		</defs>
		<clipPath id="SVGID_37_">
			<use xlink:href="#SVGID_134_"  style="overflow:visible;"/>
		</clipPath>
		
			<radialGradient id="SVGID_38_" cx="-257.3218" cy="297.8249" r="1.6253" gradientTransform="matrix(2.1481 0 0 -2.1481 626.8417 746.3838)" gradientUnits="userSpaceOnUse">
			<stop  offset="0" style="stop-color:#138281"/>
			<stop  offset="1" style="stop-color:#168F3A"/>
		</radialGradient>
		<rect x="71" y="102.8" class="st18" width="6.2" height="7.7"/>
	</g>
	<g>
		<defs>
			<path id="SVGID_137_" d="M79.3,102.9L79.3,102.9L79.3,102.9z M83.2,102.8c-1.5,0-2.4,0.7-3,1.6h0v-1.5h-0.9v7.4h1v-4.8
				c0.6-1.2,1.5-1.9,2.7-1.9c0,0,0.3,0,0.3,0l0.1-0.9H83.2z"/>
		</defs>
		<clipPath id="SVGID_39_">
			<use xlink:href="#SVGID_137_"  style="overflow:visible;"/>
		</clipPath>
		
			<radialGradient id="SVGID_40_" cx="-234.6984" cy="295.3272" r="1.6251" gradientTransform="matrix(1.8742 0 0 -1.8742 521.1883 660.0776)" gradientUnits="userSpaceOnUse">
			<stop  offset="0" style="stop-color:#138281"/>
			<stop  offset="1" style="stop-color:#168F3A"/>
		</radialGradient>
		<rect x="79.3" y="102.8" class="st19" width="4.1" height="7.6"/>
	</g>
	<g>
		<defs>
			<polygon id="SVGID_140_" points="84.8,99.9 84.8,110.4 85.8,110.4 85.8,108 87.4,106.3 89.7,110.4 90.7,110.4 88,105.5 
				90.4,102.9 89.3,102.9 85.8,106.8 85.8,99.9 			"/>
		</defs>
		<clipPath id="SVGID_41_">
			<use xlink:href="#SVGID_140_"  style="overflow:visible;"/>
		</clipPath>
		
			<radialGradient id="SVGID_42_" cx="-280.8893" cy="301.0814" r="1.6252" gradientTransform="matrix(2.6095 0 0 -2.6095 820.7535 890.8225)" gradientUnits="userSpaceOnUse">
			<stop  offset="0" style="stop-color:#138281"/>
			<stop  offset="1" style="stop-color:#168F3A"/>
		</radialGradient>
		<rect x="84.8" y="99.9" class="st20" width="5.9" height="10.4"/>
	</g>
	<g>
		<defs>
			<path id="SVGID_143_" d="M92.3,110.4h1v-7.4h-1V110.4z M92.3,101.2h1v-1h-1V101.2z"/>
		</defs>
		<clipPath id="SVGID_43_">
			<use xlink:href="#SVGID_143_"  style="overflow:visible;"/>
		</clipPath>
		
			<radialGradient id="SVGID_44_" cx="-259.3663" cy="298.6872" r="1.6251" gradientTransform="matrix(2.2293 0 0 -2.2293 670.9846 771.1167)" gradientUnits="userSpaceOnUse">
			<stop  offset="0" style="stop-color:#138281"/>
			<stop  offset="1" style="stop-color:#168F3A"/>
		</radialGradient>
		<rect x="92.3" y="100.2" class="st21" width="1" height="10.2"/>
	</g>
	<g>
		<defs>
			<path id="SVGID_146_" d="M96.2,100.3v2.7h-1.3v0.8h1.3v4.9c0,1.3,0.5,1.8,2,1.8c0.3,0,0.7,0,1-0.1v-0.8c-0.2,0.1-0.5,0.1-0.8,0.1
				c-0.9,0-1.2-0.4-1.2-1.2v-4.7h1.9v-0.8h-1.9v-2.7H96.2z"/>
		</defs>
		<clipPath id="SVGID_45_">
			<use xlink:href="#SVGID_146_"  style="overflow:visible;"/>
		</clipPath>
		
			<radialGradient id="SVGID_46_" cx="-268.817" cy="299.8302" r="1.6251" gradientTransform="matrix(2.3998 0 0 -2.3998 742.1409 824.8799)" gradientUnits="userSpaceOnUse">
			<stop  offset="0" style="stop-color:#138281"/>
			<stop  offset="1" style="stop-color:#168F3A"/>
		</radialGradient>
		<rect x="94.9" y="100.3" class="st22" width="4.2" height="10.2"/>
	</g>
	<g>
		<defs>
			<polygon id="SVGID_149_" points="13,21.6 13,63.9 49.6,85 86.2,63.9 86.2,21.6 49.6,0.4 			"/>
		</defs>
		<clipPath id="SVGID_47_">
			<use xlink:href="#SVGID_149_"  style="overflow:visible;"/>
		</clipPath>
		
			<linearGradient id="SVGID_48_" gradientUnits="userSpaceOnUse" x1="-395.6267" y1="314.7269" x2="-394.0017" y2="314.7269" gradientTransform="matrix(45.0764 0 0 -45.0764 17846.416 14229.4668)">
			<stop  offset="0" style="stop-color:#19933B"/>
			<stop  offset="1" style="stop-color:#198A85"/>
		</linearGradient>
		<rect x="13" y="0.4" class="st23" width="73.3" height="84.6"/>
	</g>
	<g>
		<defs>
			<rect id="SVGID_152_" x="-194.5" y="-326.1" width="1474.1" height="829.2"/>
		</defs>
		<clipPath id="SVGID_49_">
			<use xlink:href="#SVGID_152_"  style="overflow:visible;"/>
		</clipPath>
		<polygon class="st24" points="30.5,34.7 30.5,52 27.1,52 27.1,28.1 31.8,28.1 35.7,42.4 35.7,28.1 39,28.1 39,52 35.2,52 		"/>
		<path class="st24" d="M41.4,33.8c0-3.8,2-6,5.7-6c3.7,0,5.7,2.2,5.7,6v12.4c0,3.8-2,6-5.7,6c-3.7,0-5.7-2.2-5.7-6V33.8z
			 M45.2,46.5c0,1.7,0.8,2.4,1.9,2.4c1.2,0,1.9-0.7,1.9-2.4V33.6c0-1.7-0.8-2.4-1.9-2.4c-1.2,0-1.9,0.6-1.9,2.4V46.5z"/>
		<rect x="54.9" y="48.4" class="st24" width="3.6" height="3.6"/>
		<path class="st24" d="M66.7,52.3c-3.8,0-5.9-2.2-5.9-6v-1.9c0-2.3,0.7-4.1,2.3-5c-1.6-0.9-2.3-2.5-2.3-4.8v-0.8c0-3.8,2.1-6,5.9-6
			c3.8,0,5.9,2.2,5.9,6v0.8c0,2.4-0.8,4-2.3,4.8c1.6,0.9,2.3,2.7,2.3,5v1.9C72.6,50.1,70.5,52.3,66.7,52.3 M64.6,35.3
			c0,1.9,0.9,2.5,2.1,2.5c1.2,0,2.1-0.6,2.1-2.5V34c0-2.2-0.9-2.7-2.1-2.7c-1.2,0-2.1,0.6-2.1,2.7V35.3z M66.7,48.9
			c1.2,0,2.1-0.6,2.1-2.7v-2.2c0-1.9-0.8-2.7-2.1-2.7c-1.3,0-2.1,0.8-2.1,2.7v2.2C64.6,48.3,65.5,48.9,66.7,48.9"/>
	</g>
	<g>
		<defs>
			<path id="SVGID_154_" d="M18.3,60.8V24.6L49.6,6.6l31.3,18.1v36.1L49.6,78.8L18.3,60.8z M13,21.6v42.3L49.6,85l36.6-21.1V21.6
				L49.6,0.4L13,21.6z"/>
		</defs>
		<clipPath id="SVGID_50_">
			<use xlink:href="#SVGID_154_"  style="overflow:visible;"/>
		</clipPath>
		<defs>
			<filter id="Adobe_OpacityMaskFilter" filterUnits="userSpaceOnUse" x="13" y="0.4" width="73.3" height="84.6">
				<feColorMatrix  type="matrix" values="1 0 0 0 0  0 1 0 0 0  0 0 1 0 0  0 0 0 1 0"/>
			</filter>
		</defs>
		<mask maskUnits="userSpaceOnUse" x="13" y="0.4" width="73.3" height="84.6" id="SVGID_51_">
			<g class="st25">
				
					<linearGradient id="SVGID_52_" gradientUnits="userSpaceOnUse" x1="-402.0994" y1="319.9409" x2="-400.4743" y2="319.9409" gradientTransform="matrix(0 60.9954 60.9954 0 -19465.2969 24521.1445)">
					<stop  offset="0" style="stop-color:#FFFFFF"/>
					<stop  offset="1" style="stop-color:#000000"/>
				</linearGradient>
				<rect x="13" y="0.4" class="st26" width="73.3" height="84.6"/>
			</g>
		</mask>
		
			<linearGradient id="SVGID_53_" gradientUnits="userSpaceOnUse" x1="-402.0994" y1="319.9409" x2="-400.4743" y2="319.9409" gradientTransform="matrix(0 60.9954 60.9954 0 -19465.2988 24521.1445)">
			<stop  offset="0" style="stop-color:#FFFFFF"/>
			<stop  offset="1" style="stop-color:#FFFFFF"/>
		</linearGradient>
		<rect x="13" y="0.4" class="st27" width="73.3" height="84.6"/>
	</g>
</g>
</svg>
