<?xml version="1.0" encoding="utf-8"?>
<!-- Generator: Adobe Illustrator 22.0.0, SVG Export Plug-In . SVG Version: 6.00 Build 0)  -->
<svg version="1.1" id="图层_1" xmlns="http://www.w3.org/2000/svg" xmlns:xlink="http://www.w3.org/1999/xlink" x="0px" y="0px"
	 viewBox="0 0 79.8 108.4" style="enable-background:new 0 0 79.8 108.4;" xml:space="preserve">
<style type="text/css">
	.st0{clip-path:url(#SVGID_2_);fill:url(#SVGID_3_);}
	.st1{clip-path:url(#SVGID_5_);fill:#FFFFFF;}
	.st2{filter:url(#Adobe_OpacityMaskFilter);}
	.st3{clip-path:url(#SVGID_7_);fill:url(#SVGID_9_);}
	.st4{clip-path:url(#SVGID_7_);mask:url(#SVGID_8_);fill:url(#SVGID_10_);}
	.st5{clip-path:url(#SVGID_12_);fill:#175F92;}
	.st6{clip-path:url(#SVGID_12_);fill:#555657;}
	.st7{clip-path:url(#SVGID_12_);fill:#FFFFFF;}
</style>
<g>
	<g>
		<defs>
			<polygon id="SVGID_1_" points="7.9,19.2 7.9,56.9 40.6,75.8 73.3,56.9 73.3,19.2 40.6,0.3 			"/>
		</defs>
		<clipPath id="SVGID_2_">
			<use xlink:href="#SVGID_1_"  style="overflow:visible;"/>
		</clipPath>
		
			<linearGradient id="SVGID_3_" gradientUnits="userSpaceOnUse" x1="-415.9377" y1="313.3359" x2="-414.5236" y2="313.3359" gradientTransform="matrix(46.257 0 0 -46.257 19247.8809 14532.0156)">
			<stop  offset="0" style="stop-color:#5DBBC4"/>
			<stop  offset="1" style="stop-color:#1869A4"/>
		</linearGradient>
		<rect x="7.9" y="0.3" class="st0" width="65.4" height="75.5"/>
	</g>
	<g>
		<defs>
			<rect id="SVGID_4_" x="-816.8" y="-385.4" width="1282.7" height="721.5"/>
		</defs>
		<clipPath id="SVGID_5_">
			<use xlink:href="#SVGID_4_"  style="overflow:visible;"/>
		</clipPath>
		<polygon class="st1" points="23.5,30.9 23.5,46.4 20.5,46.4 20.5,25 24.7,25 28.1,37.8 28.1,25 31.1,25 31.1,46.4 27.7,46.4 		"/>
		<path class="st1" d="M33.3,30.2c0-3.4,1.8-5.4,5.1-5.4c3.3,0,5.1,2,5.1,5.4v11.1c0,3.4-1.8,5.4-5.1,5.4c-3.3,0-5.1-2-5.1-5.4V30.2
			z M36.6,41.5c0,1.5,0.7,2.1,1.7,2.1c1.1,0,1.7-0.6,1.7-2.1V29.9c0-1.5-0.7-2.1-1.7-2.1c-1.1,0-1.7,0.6-1.7,2.1V41.5z"/>
		<rect x="45.3" y="43.1" class="st1" width="3.2" height="3.2"/>
		<path class="st1" d="M53.1,27.7c2.6,0,3.2-1.3,3.7-2.7H59v21.4h-3.4V30.1h-2.6V27.7z"/>
	</g>
	<g>
		<defs>
			<path id="SVGID_6_" d="M12.6,54.2V21.9L40.6,5.8l27.9,16.1v32.3L40.6,70.3L12.6,54.2z M7.9,19.2v37.8l32.7,18.9l32.7-18.9V19.2
				L40.6,0.3L7.9,19.2z"/>
		</defs>
		<clipPath id="SVGID_7_">
			<use xlink:href="#SVGID_6_"  style="overflow:visible;"/>
		</clipPath>
		<defs>
			<filter id="Adobe_OpacityMaskFilter" filterUnits="userSpaceOnUse" x="7.9" y="0.3" width="65.4" height="75.5">
				<feColorMatrix  type="matrix" values="1 0 0 0 0  0 1 0 0 0  0 0 1 0 0  0 0 0 1 0"/>
			</filter>
		</defs>
		<mask maskUnits="userSpaceOnUse" x="7.9" y="0.3" width="65.4" height="75.5" id="SVGID_8_">
			<g class="st2">
				
					<linearGradient id="SVGID_9_" gradientUnits="userSpaceOnUse" x1="-413.6035" y1="309.5509" x2="-412.1894" y2="309.5509" gradientTransform="matrix(0 62.5929 62.5929 0 -19335.1172 25884.0059)">
					<stop  offset="0" style="stop-color:#FFFFFF"/>
					<stop  offset="1" style="stop-color:#000000"/>
				</linearGradient>
				<rect x="7.9" y="0.3" class="st3" width="65.4" height="75.5"/>
			</g>
		</mask>
		
			<linearGradient id="SVGID_10_" gradientUnits="userSpaceOnUse" x1="-413.6035" y1="309.5509" x2="-412.1894" y2="309.5509" gradientTransform="matrix(0 62.5929 62.5929 0 -19335.1191 25884.0078)">
			<stop  offset="0" style="stop-color:#FFFFFF"/>
			<stop  offset="1" style="stop-color:#FFFFFF"/>
		</linearGradient>
		<rect x="7.9" y="0.3" class="st4" width="65.4" height="75.5"/>
	</g>
	<g>
		<defs>
			<rect id="SVGID_11_" x="-816.8" y="-385.4" width="1282.7" height="721.5"/>
		</defs>
		<clipPath id="SVGID_12_">
			<use xlink:href="#SVGID_11_"  style="overflow:visible;"/>
		</clipPath>
		<path class="st5" d="M20.9,88.4c-2.5-0.1-5-0.2-7.5-0.2L12,90.1c2.9,0,5.9-0.1,8.8-0.2c0-0.2,0-0.5,0-0.8
			C20.9,88.9,20.9,88.7,20.9,88.4"/>
		<path class="st5" d="M14.9,80.2c0.5,0.1,0.9,0.2,1.4,0.3c-0.4-0.2-0.7-0.5-1.1-0.7c-1.4-0.7-3.1-1.2-4.8-1.2
			c-2.2,0-4.2,0.7-5.9,1.8C7.9,79.7,11.4,79.6,14.9,80.2"/>
		<path class="st5" d="M13.8,87.6c2.3,0,4.7,0.1,7,0.2c-0.1-0.5-0.2-1-0.3-1.5c-1.8-0.2-3.6-0.4-5.5-0.5L13.8,87.6z"/>
		<path class="st5" d="M9.6,88.2c-2,0-4,0-5.9,0.1l1,1.8c1.2,0,2.5,0,3.7,0.1L9.6,88.2z"/>
		<path class="st5" d="M13.4,82.5c1.2,0.1,2.4,0.2,3.6,0.4c0.7,0.1,1.4,0.2,2.1,0.4c-0.4-0.5-0.8-1.1-1.3-1.5
			c-0.1-0.1-0.1-0.1-0.2-0.2c-1-0.3-2-0.5-3.1-0.7c-3.8-0.6-7.6-0.4-11.4,0.7c-0.5,0.5-1,1.1-1.4,1.7C5.6,82.5,9.5,82.2,13.4,82.5"
			/>
		<path class="st5" d="M11.8,85l1.2-1.8C9.1,82.9,5.2,83.2,1.3,84l0,0l0,0c-0.3,0.5-0.5,1-0.7,1.5c0.5-0.1,1-0.1,1.5-0.2
			C5.3,85,8.5,84.9,11.8,85"/>
		<path class="st5" d="M3.3,87.6c2.2-0.1,4.5-0.1,6.8-0.1l1.3-1.9c-3,0-6,0.1-8.9,0.4c-0.7,0.1-1.4,0.1-2.1,0.2
			c-0.1,0.4-0.2,0.9-0.3,1.3c0,0.1,0,0.1,0,0.2c0,0,0.1,0,0.1,0C1.2,87.7,2.2,87.7,3.3,87.6"/>
		<path class="st5" d="M4.5,97.8c1.7,1.2,3.7,1.8,5.9,1.8c2.2,0,4.2-0.7,5.9-1.8c-2,0.5-3.9,0.7-5.9,0.7C8.4,98.5,6.4,98.3,4.5,97.8
			"/>
		<path class="st5" d="M8.1,95.9l-1.2,1.7c3.5,0.5,7.1,0.2,10.6-0.8c0.5-0.5,1-1.1,1.5-1.7c-2.9,0.6-5.8,0.8-8.6,0.8
			C9.6,96,8.9,95.9,8.1,95.9"/>
		<path class="st5" d="M10.3,92.7c3.4,0,6.8-0.2,10.2-0.6c0.1-0.5,0.3-1,0.3-1.5c-3.1,0.1-6.1,0.2-9.2,0.2L10.3,92.7z"/>
		<path class="st5" d="M9.8,93.4l-1.3,1.9c3.7,0.2,7.3-0.1,11-0.9c0.3-0.5,0.5-1,0.7-1.5c-3.3,0.4-6.6,0.6-9.8,0.6
			C10.2,93.4,10,93.4,9.8,93.4"/>
		<path class="st5" d="M6.4,93.1l0.3-0.5l1.2-1.8c-1,0-1.9,0-2.9,0l1,1.9L6.4,93.1z"/>
		<path class="st5" d="M24.4,108.2v-3.6h0.9c0.3,0,0.5,0,0.6,0c0.1,0,0.2,0.1,0.3,0.1c0.1,0.1,0.2,0.2,0.3,0.3
			c0.1,0.1,0.1,0.3,0.1,0.5c0,0.2,0,0.3-0.1,0.5c-0.1,0.1-0.1,0.3-0.3,0.3c-0.1,0.1-0.2,0.1-0.3,0.1c-0.1,0-0.3,0-0.6,0h-0.4v1.7
			H24.4z M24.9,106.2h0.2c0.4,0,0.6,0,0.7-0.1c0.1-0.1,0.2-0.2,0.2-0.4c0-0.2-0.1-0.4-0.2-0.5c-0.1-0.1-0.4-0.1-0.7-0.1h-0.2V106.2z
			"/>
		<path class="st5" d="M29,108.3c-0.3,0-0.5,0-0.7-0.1c-0.2-0.1-0.4-0.2-0.6-0.4c-0.2-0.2-0.3-0.4-0.4-0.6c-0.1-0.2-0.1-0.5-0.1-0.7
			c0-0.3,0-0.5,0.1-0.7c0.1-0.2,0.2-0.4,0.4-0.6c0.2-0.2,0.4-0.3,0.6-0.4c0.2-0.1,0.5-0.1,0.7-0.1c0.3,0,0.5,0,0.7,0.1
			c0.2,0.1,0.4,0.2,0.6,0.4c0.2,0.2,0.3,0.4,0.4,0.6c0.1,0.2,0.1,0.5,0.1,0.7s0,0.5-0.1,0.7c-0.1,0.2-0.2,0.4-0.4,0.6
			c-0.2,0.2-0.4,0.3-0.6,0.4C29.5,108.3,29.2,108.3,29,108.3 M29,105c-0.2,0-0.4,0-0.6,0.1c-0.2,0.1-0.3,0.2-0.5,0.3
			c-0.1,0.1-0.2,0.3-0.3,0.5c-0.1,0.2-0.1,0.4-0.1,0.6c0,0.2,0,0.4,0.1,0.6c0.1,0.2,0.2,0.3,0.3,0.5c0.1,0.1,0.3,0.2,0.5,0.3
			c0.2,0.1,0.4,0.1,0.6,0.1c0.2,0,0.4,0,0.5-0.1c0.2-0.1,0.3-0.2,0.5-0.3c0.1-0.1,0.2-0.3,0.3-0.5c0.1-0.2,0.1-0.4,0.1-0.6
			c0-0.2,0-0.4-0.1-0.6c-0.1-0.2-0.2-0.3-0.3-0.5c-0.1-0.1-0.3-0.2-0.5-0.3C29.3,105,29.2,105,29,105"/>
		<path class="st5" d="M33.9,106.3c0-0.1-0.1-0.2-0.1-0.3c0-0.1-0.1-0.2-0.1-0.2l-0.1-0.2l-0.1,0.2c0,0.1-0.1,0.2-0.1,0.3
			c0,0.1-0.1,0.2-0.1,0.3l-0.8,2l-1.4-3.7h0.5l0.7,1.9c0,0.1,0.1,0.2,0.1,0.3c0,0.1,0.1,0.2,0.1,0.3l0.1,0.2l0.1-0.2
			c0.1-0.2,0.1-0.4,0.2-0.6c0,0,0.7-1.9,0.7-1.9l0.7,1.9c0,0.1,0.1,0.2,0.1,0.3c0,0.1,0.1,0.2,0.1,0.3l0.1,0c0-0.1,0-0.2,0.1-0.2
			c0-0.1,0.1-0.2,0.1-0.3l0.7-1.9H36l-1.4,3.7L33.9,106.3z"/>
		<polygon class="st5" points="36.6,108.2 36.6,104.6 38.5,104.6 38.5,105 37,105 37,106.1 38.5,106.1 38.5,106.5 37,106.5 
			37,107.8 38.5,107.8 38.5,108.2 		"/>
		<path class="st5" d="M41.2,108.2l-1.3-1.7h-0.2v1.7h-0.4v-3.6h0.8c0.2,0,0.4,0,0.6,0c0.1,0,0.2,0.1,0.3,0.2
			c0.1,0.1,0.2,0.2,0.3,0.3c0.1,0.1,0.1,0.3,0.1,0.4c0,0.3-0.1,0.5-0.2,0.7c-0.1,0.2-0.3,0.3-0.6,0.3l-0.1,0l1.3,1.7H41.2z
			 M39.8,106.2H40c0.3,0,0.6,0,0.7-0.1c0.1-0.1,0.2-0.2,0.2-0.5c0-0.2-0.1-0.4-0.2-0.5c-0.1-0.1-0.3-0.1-0.7-0.1h-0.2V106.2z"/>
		<path class="st5" d="M44.5,108.3c-0.3,0-0.6-0.1-0.8-0.3c-0.2-0.2-0.3-0.4-0.3-0.7c0-0.2,0.1-0.4,0.2-0.6c0.1-0.2,0.3-0.3,0.6-0.5
			l0.1,0l-0.2-0.2c-0.1-0.1-0.1-0.2-0.2-0.3c0-0.1-0.1-0.2-0.1-0.3c0-0.2,0.1-0.4,0.2-0.6c0.2-0.1,0.4-0.2,0.7-0.2s0.5,0.1,0.6,0.2
			c0.2,0.1,0.2,0.3,0.2,0.5c0,0.2-0.1,0.3-0.2,0.5c-0.1,0.1-0.3,0.3-0.5,0.4l-0.1,0l0.9,1l0,0c0.1-0.1,0.2-0.2,0.2-0.3
			c0.1-0.1,0.1-0.2,0.2-0.3l0.3,0.3c-0.1,0.1-0.1,0.2-0.2,0.3c-0.1,0.1-0.2,0.2-0.3,0.3l0,0l0.6,0.7H46l-0.3-0.4l0,0
			c-0.2,0.1-0.3,0.3-0.5,0.3C45,108.3,44.8,108.3,44.5,108.3 M44.4,106.6c-0.2,0.1-0.3,0.2-0.4,0.3c-0.1,0.1-0.1,0.2-0.1,0.4
			c0,0.2,0.1,0.3,0.2,0.5c0.1,0.1,0.3,0.2,0.5,0.2c0.1,0,0.3,0,0.4-0.1c0.1-0.1,0.3-0.2,0.4-0.3l0,0l-0.9-1L44.4,106.6z M44.8,105
			c-0.1,0-0.2,0-0.3,0.1c-0.1,0.1-0.1,0.2-0.1,0.3c0,0.1,0,0.1,0,0.2c0,0.1,0.1,0.1,0.1,0.2l0.2,0.3l0.2-0.1
			c0.1-0.1,0.2-0.1,0.2-0.2c0.1-0.1,0.1-0.2,0.1-0.3c0-0.1,0-0.2-0.1-0.3C45,105,44.9,105,44.8,105"/>
		<path class="st5" d="M50.6,108.2l-1.2-1.7h-0.2v1.7h-0.4v-3.6h0.8c0.2,0,0.4,0,0.6,0c0.1,0,0.2,0.1,0.3,0.2
			c0.1,0.1,0.2,0.2,0.3,0.3c0.1,0.1,0.1,0.3,0.1,0.4c0,0.3-0.1,0.5-0.2,0.7c-0.1,0.2-0.3,0.3-0.6,0.3l-0.1,0l1.3,1.7H50.6z
			 M49.2,106.2h0.2c0.3,0,0.6,0,0.7-0.1c0.1-0.1,0.2-0.2,0.2-0.5c0-0.2-0.1-0.4-0.2-0.5c-0.1-0.1-0.3-0.1-0.7-0.1h-0.2V106.2z"/>
		<polygon class="st5" points="51.6,108.2 51.6,104.6 53.6,104.6 53.6,105 52.1,105 52.1,106.1 53.6,106.1 53.6,106.5 52.1,106.5 
			52.1,107.8 53.6,107.8 53.6,108.2 		"/>
		<path class="st5" d="M55.3,106.1c-0.1-0.1-0.1-0.1-0.2-0.2c-0.1-0.1-0.1-0.1-0.2-0.2l-0.1-0.2v2.7h-0.4v-3.7l2.3,2.2
			c0.1,0.1,0.1,0.1,0.2,0.2c0.1,0.1,0.1,0.2,0.2,0.2l0.1,0.1v-2.7h0.4v3.7L55.3,106.1z"/>
		<polygon class="st5" points="58.5,108.2 58.5,104.6 60.5,104.6 60.5,105 59,105 59,106.1 60.5,106.1 60.5,106.5 59,106.5 
			59,107.8 60.5,107.8 60.5,108.2 		"/>
		<path class="st5" d="M63.8,106.3c0-0.1-0.1-0.2-0.1-0.3c0-0.1-0.1-0.2-0.1-0.2l-0.1-0.2l-0.1,0.2c0,0.1-0.1,0.2-0.1,0.3
			c0,0.1-0.1,0.2-0.1,0.2l-0.8,2l-1.4-3.7h0.5l0.7,1.9c0,0.1,0.1,0.2,0.1,0.3c0,0.1,0.1,0.2,0.1,0.3l0.1,0.2l0.1-0.2
			c0.1-0.2,0.1-0.4,0.2-0.6c0,0,0.8-1.9,0.8-1.9l0.8,1.9c0,0.1,0.1,0.2,0.1,0.3c0,0.1,0.1,0.2,0.1,0.3l0.1,0.2l0.1-0.2
			c0-0.1,0-0.2,0.1-0.2c0-0.1,0.1-0.2,0.1-0.3l0.7-1.9h0.5l-1.5,3.7L63.8,106.3z"/>
		<path class="st5" d="M69,108.2l-0.4-1H67l-0.4,1h-0.5l1.7-3.7l1.7,3.7H69z M67.7,105.5c0,0.1,0,0.2-0.1,0.2c0,0.1,0,0.1-0.1,0.2
			l-0.4,0.9h1.2L68,106c0-0.1,0-0.1-0.1-0.2c0-0.1,0-0.1-0.1-0.2l-0.1-0.2L67.7,105.5z"/>
		<path class="st5" d="M69.8,108.2v-3.6h0.9c0.3,0,0.5,0,0.6,0c0.1,0,0.2,0.1,0.3,0.1c0.1,0.1,0.2,0.2,0.3,0.3
			c0.1,0.1,0.1,0.3,0.1,0.4c0,0.2,0,0.3-0.1,0.5c-0.1,0.1-0.2,0.2-0.4,0.3l0,0.1c0.2,0,0.4,0.1,0.5,0.3c0.1,0.2,0.2,0.3,0.2,0.6
			c0,0.1,0,0.3-0.1,0.4c-0.1,0.1-0.1,0.2-0.2,0.3c-0.1,0.1-0.2,0.2-0.4,0.2c-0.1,0-0.4,0.1-0.7,0.1H69.8z M70.3,107.9h0.3
			c0.2,0,0.4,0,0.5,0c0.1,0,0.2-0.1,0.3-0.1c0.1-0.1,0.1-0.1,0.2-0.2c0-0.1,0.1-0.2,0.1-0.3c0-0.1,0-0.2-0.1-0.3
			c-0.1-0.1-0.1-0.2-0.2-0.2c-0.1,0-0.1-0.1-0.2-0.1c-0.1,0-0.2,0-0.3,0h-0.5V107.9z M70.3,106.2h0.3c0.3,0,0.5,0,0.7-0.1
			c0.1-0.1,0.2-0.2,0.2-0.5c0-0.2-0.1-0.4-0.2-0.5c-0.1-0.1-0.3-0.1-0.7-0.1h-0.3V106.2z"/>
		<polygon class="st5" points="72.9,108.2 72.9,104.6 73.4,104.6 73.4,107.8 74.3,107.8 74.3,108.2 		"/>
		<polygon class="st5" points="74.9,108.2 74.9,104.6 76.8,104.6 76.8,105 75.4,105 75.4,106.1 76.8,106.1 76.8,106.5 75.4,106.5 
			75.4,107.8 76.8,107.8 76.8,108.2 		"/>
		<path class="st5" d="M78.5,108.3c-0.3,0-0.6-0.1-0.7-0.2c-0.2-0.1-0.3-0.3-0.4-0.5l0.4-0.2c0.1,0.1,0.1,0.3,0.3,0.3
			c0.1,0.1,0.3,0.1,0.5,0.1c0.2,0,0.4-0.1,0.5-0.2c0.1-0.1,0.2-0.3,0.2-0.5c0-0.2-0.2-0.5-0.6-0.6c-0.1,0-0.1,0-0.1-0.1
			c-0.4-0.2-0.7-0.4-0.8-0.5c-0.1-0.2-0.2-0.3-0.2-0.6c0-0.3,0.1-0.5,0.3-0.7c0.2-0.2,0.5-0.3,0.8-0.3c0.3,0,0.5,0.1,0.7,0.2
			c0.2,0.1,0.3,0.2,0.3,0.4l-0.4,0.2c-0.1-0.1-0.2-0.2-0.2-0.2c-0.1-0.1-0.2-0.1-0.3-0.1c-0.2,0-0.3,0-0.4,0.1
			c-0.1,0.1-0.2,0.2-0.2,0.4c0,0.3,0.2,0.5,0.7,0.7c0,0,0.1,0,0.1,0c0.4,0.2,0.6,0.3,0.7,0.5c0.1,0.1,0.2,0.3,0.2,0.6
			c0,0.3-0.1,0.6-0.3,0.8C79.2,108.2,78.9,108.3,78.5,108.3"/>
		<polygon class="st6" points="23.1,79.4 24.3,79.4 26.6,85.8 29.1,79 31.6,85.8 33.9,79.4 35.1,79.4 31.5,88.4 29.1,81.7 
			26.7,88.4 		"/>
		<path class="st6" d="M34.5,85.2c0-0.4,0.1-0.8,0.2-1.2c0.2-0.4,0.4-0.7,0.7-1c0.3-0.3,0.6-0.5,1-0.7c0.4-0.2,0.8-0.2,1.2-0.2
			c0.4,0,0.8,0.1,1.2,0.2c0.4,0.2,0.7,0.4,1,0.7c0.3,0.3,0.5,0.6,0.7,1c0.2,0.4,0.2,0.8,0.2,1.2c0,0.4-0.1,0.8-0.2,1.2
			c-0.2,0.4-0.4,0.7-0.7,1c-0.3,0.3-0.7,0.5-1,0.7c-0.4,0.2-0.8,0.2-1.2,0.2c-0.4,0-0.8-0.1-1.2-0.2c-0.4-0.2-0.7-0.4-1-0.7
			c-0.3-0.3-0.5-0.6-0.7-1C34.6,86,34.5,85.6,34.5,85.2 M35.5,85.2c0,0.6,0.2,1.1,0.6,1.6c0.4,0.4,0.9,0.6,1.5,0.6
			c0.6,0,1.1-0.2,1.5-0.6c0.4-0.4,0.6-0.9,0.6-1.6c0-0.6-0.2-1.1-0.6-1.6c-0.4-0.4-0.9-0.6-1.5-0.6c-0.6,0-1.1,0.2-1.5,0.6
			C35.7,84.1,35.5,84.6,35.5,85.2"/>
		<path class="st6" d="M41.5,85.2c0-0.4,0.1-0.8,0.2-1.2c0.2-0.4,0.4-0.7,0.7-1c0.3-0.3,0.6-0.5,1-0.7c0.4-0.2,0.8-0.2,1.2-0.2
			c0.4,0,0.8,0.1,1.2,0.2c0.4,0.2,0.7,0.4,1,0.7c0.3,0.3,0.5,0.6,0.7,1c0.2,0.4,0.2,0.8,0.2,1.2c0,0.4-0.1,0.8-0.2,1.2
			c-0.2,0.4-0.4,0.7-0.7,1c-0.3,0.3-0.7,0.5-1,0.7c-0.4,0.2-0.8,0.2-1.2,0.2c-0.4,0-0.8-0.1-1.2-0.2c-0.4-0.2-0.7-0.4-1-0.7
			c-0.3-0.3-0.5-0.6-0.7-1C41.6,86,41.5,85.6,41.5,85.2 M42.5,85.2c0,0.6,0.2,1.1,0.6,1.6c0.4,0.4,0.9,0.6,1.5,0.6
			c0.6,0,1.1-0.2,1.5-0.6c0.4-0.4,0.6-0.9,0.6-1.6c0-0.6-0.2-1.1-0.6-1.6c-0.4-0.4-0.9-0.6-1.5-0.6c-0.6,0-1.1,0.2-1.5,0.6
			C42.7,84.1,42.5,84.6,42.5,85.2"/>
		<path class="st6" d="M54.3,79.3v8.7h-1V87c-0.2,0.4-0.5,0.7-0.9,1c-0.4,0.2-0.8,0.3-1.2,0.3c-0.8,0-1.5-0.3-2-0.9
			c-0.5-0.6-0.8-1.3-0.8-2.3c0-0.9,0.2-1.7,0.7-2.3c0.5-0.6,1.2-0.8,2-0.8c0.5,0,0.9,0.1,1.3,0.3c0.4,0.2,0.6,0.5,0.9,1v-4H54.3z
			 M53.4,85.2c0-0.6-0.2-1.2-0.5-1.6c-0.4-0.4-0.8-0.6-1.4-0.6c-0.6,0-1,0.2-1.4,0.5c-0.3,0.4-0.5,0.9-0.5,1.5
			c0,0.7,0.2,1.3,0.5,1.7c0.3,0.4,0.8,0.6,1.4,0.6c0.6,0,1.1-0.2,1.4-0.6C53.2,86.4,53.4,85.9,53.4,85.2"/>
		<polygon class="st6" points="29.3,99.4 26.4,92.7 25.2,99 24.2,99 26,89.4 29.3,97.1 32.5,89.4 34.4,99 33.3,99 32.1,92.7 		"/>
		<path class="st6" d="M40.6,93.2V99h-1V98c-0.2,0.4-0.5,0.7-0.9,1c-0.4,0.2-0.8,0.3-1.2,0.3c-0.8,0-1.5-0.3-2-0.9
			c-0.5-0.6-0.8-1.3-0.8-2.3c0-1,0.2-1.7,0.7-2.3c0.5-0.6,1.2-0.8,2-0.8c0.5,0,0.9,0.1,1.3,0.3c0.4,0.2,0.6,0.5,0.9,1v-1.1H40.6z
			 M39.7,96.2c0-0.7-0.2-1.2-0.5-1.6c-0.4-0.4-0.8-0.6-1.4-0.6c-0.6,0-1.1,0.2-1.4,0.6c-0.3,0.4-0.5,0.9-0.5,1.5
			c0,0.7,0.2,1.2,0.5,1.6c0.3,0.4,0.8,0.6,1.4,0.6c0.6,0,1.1-0.2,1.4-0.6C39.5,97.4,39.7,96.9,39.7,96.2"/>
		<path class="st6" d="M46.6,97.7v1.2c-0.3,0.2-0.6,0.3-0.9,0.4c-0.3,0.1-0.7,0.1-1.1,0.1c-0.9,0-1.6-0.3-2.2-0.9
			c-0.5-0.6-0.8-1.3-0.8-2.2c0-0.9,0.3-1.7,0.8-2.3c0.6-0.6,1.3-0.9,2.2-0.9c0.3,0,0.6,0,0.9,0.1c0.3,0.1,0.6,0.2,0.9,0.3v1.1
			c-0.3-0.2-0.5-0.3-0.8-0.4C45.4,94,45.1,94,44.9,94c-0.7,0-1.2,0.2-1.6,0.6c-0.4,0.4-0.6,0.9-0.6,1.6c0,0.6,0.2,1.1,0.6,1.5
			c0.4,0.4,0.9,0.6,1.5,0.6c0.3,0,0.6-0.1,0.9-0.2C46,98.1,46.3,97.9,46.6,97.7"/>
		<polygon class="st6" points="47.5,99 47.5,90.2 48.5,90.2 48.5,95.9 51.3,93.2 52.6,93.2 49.7,95.9 52.9,99 51.5,99 48.5,96 
			48.5,99 		"/>
		<path class="st6" d="M58.2,96.3h-4.6v0.1c0,0.6,0.2,1.1,0.5,1.5c0.4,0.4,0.8,0.6,1.4,0.6c0.4,0,0.7-0.1,1.1-0.3
			c0.3-0.2,0.6-0.5,0.8-0.9l0.8,0.5c-0.3,0.5-0.7,0.9-1.1,1.2c-0.5,0.3-1,0.4-1.6,0.4c-0.9,0-1.6-0.3-2.1-0.9
			c-0.5-0.6-0.8-1.3-0.8-2.3c0-0.9,0.3-1.7,0.8-2.2c0.5-0.6,1.2-0.9,2.1-0.9c0.9,0,1.5,0.3,2,0.8c0.5,0.5,0.7,1.3,0.7,2.2V96.3z
			 M57.2,95.5c0-0.5-0.2-0.9-0.5-1.2c-0.3-0.3-0.7-0.4-1.3-0.4c-0.5,0-0.9,0.1-1.2,0.4c-0.3,0.3-0.5,0.7-0.6,1.2H57.2z"/>
		<path class="st6" d="M59.2,99v-5.8h1v0.9c0.2-0.4,0.5-0.6,0.9-0.8c0.4-0.2,0.8-0.3,1.2-0.3c0.7,0,1.2,0.2,1.6,0.5
			c0.4,0.4,0.6,0.9,0.6,1.5V99h-1v-3.4c0-0.6-0.1-1-0.4-1.3c-0.2-0.3-0.6-0.4-1.1-0.4c-0.3,0-0.6,0.1-0.8,0.2
			c-0.2,0.1-0.4,0.3-0.6,0.5c-0.1,0.2-0.2,0.3-0.3,0.5c-0.1,0.2-0.1,0.5-0.1,1v3H59.2z"/>
		<polygon class="st6" points="64.8,99 68.8,94.1 65.5,94.1 65.5,93.2 70.6,93.2 66.6,98.2 71,98.2 71,99 		"/>
		<path class="st6" d="M71.6,90.9c0-0.2,0.1-0.4,0.2-0.5c0.1-0.1,0.3-0.2,0.5-0.2c0.2,0,0.4,0.1,0.5,0.2c0.1,0.1,0.2,0.3,0.2,0.5
			c0,0.2-0.1,0.4-0.2,0.5c-0.1,0.1-0.3,0.2-0.5,0.2c-0.2,0-0.4-0.1-0.5-0.2C71.7,91.3,71.6,91.1,71.6,90.9 M71.8,93.2h1V99h-1V93.2z
			"/>
		<path class="st6" d="M79.3,96.3h-4.6v0.1c0,0.6,0.2,1.1,0.5,1.5c0.4,0.4,0.8,0.6,1.4,0.6c0.4,0,0.7-0.1,1.1-0.3
			c0.3-0.2,0.6-0.5,0.8-0.9l0.8,0.5c-0.3,0.5-0.7,0.9-1.1,1.2c-0.5,0.3-1,0.4-1.6,0.4c-0.9,0-1.6-0.3-2.1-0.9
			c-0.5-0.6-0.8-1.3-0.8-2.3c0-0.9,0.3-1.7,0.8-2.2c0.5-0.6,1.2-0.9,2.1-0.9c0.9,0,1.5,0.3,2,0.8c0.5,0.5,0.7,1.3,0.7,2.2V96.3z
			 M78.2,95.5c0-0.5-0.2-0.9-0.5-1.2c-0.3-0.3-0.7-0.4-1.3-0.4c-0.5,0-0.9,0.1-1.2,0.4c-0.3,0.3-0.5,0.7-0.6,1.2H78.2z"/>
		<path class="st7" d="M28.6,18.5c0.3,0.2,0.7,0.3,1.2,0.3c0.6,0,0.9-0.3,0.9-0.7c0-0.4-0.3-0.6-0.9-0.8c-0.8-0.3-1.3-0.7-1.3-1.4
			c0-0.8,0.7-1.4,1.8-1.4c0.5,0,0.9,0.1,1.2,0.3l-0.2,0.7c-0.2-0.1-0.5-0.2-1-0.2c-0.6,0-0.8,0.3-0.8,0.6c0,0.4,0.3,0.6,1,0.8
			c0.9,0.3,1.3,0.8,1.3,1.5c0,0.8-0.6,1.5-1.9,1.5c-0.5,0-1.1-0.1-1.3-0.3L28.6,18.5z"/>
		<path class="st7" d="M33.5,14.8v1h0.9v0.7h-0.9v1.6c0,0.4,0.1,0.7,0.5,0.7c0.2,0,0.3,0,0.4,0l0,0.7c-0.1,0.1-0.4,0.1-0.7,0.1
			c-0.3,0-0.6-0.1-0.8-0.3c-0.2-0.2-0.3-0.5-0.3-1v-1.7h-0.5v-0.7h0.5v-0.8L33.5,14.8z"/>
		<path class="st7" d="M38.4,17.6c0,1.3-0.9,1.9-1.8,1.9c-1,0-1.8-0.7-1.8-1.8c0-1.2,0.8-1.9,1.9-1.9C37.7,15.8,38.4,16.5,38.4,17.6
			 M35.7,17.7c0,0.7,0.3,1.2,0.9,1.2c0.5,0,0.9-0.5,0.9-1.2c0-0.6-0.3-1.2-0.9-1.2C35.9,16.5,35.7,17.1,35.7,17.7"/>
		<path class="st7" d="M39.1,17c0-0.5,0-0.8,0-1.2h0.8l0,0.7h0c0.2-0.5,0.6-0.8,1-0.8c0.1,0,0.1,0,0.2,0v0.9c-0.1,0-0.2,0-0.3,0
			c-0.4,0-0.7,0.3-0.8,0.7c0,0.1,0,0.2,0,0.3v1.9h-0.9V17z"/>
		<path class="st7" d="M43.7,19.5l-0.1-0.4h0c-0.2,0.3-0.6,0.5-1.1,0.5c-0.7,0-1.1-0.5-1.1-1.1c0-0.9,0.8-1.4,2.1-1.4v-0.1
			c0-0.2-0.1-0.6-0.7-0.6c-0.4,0-0.7,0.1-1,0.3l-0.2-0.6c0.3-0.2,0.7-0.3,1.3-0.3c1.1,0,1.5,0.7,1.5,1.5v1.3c0,0.3,0,0.6,0.1,0.9
			H43.7z M43.6,17.7c-0.6,0-1.3,0.1-1.3,0.7c0,0.4,0.2,0.5,0.5,0.5c0.4,0,0.6-0.2,0.7-0.5c0-0.1,0-0.1,0-0.2V17.7z"/>
		<path class="st7" d="M48.7,15.9c0,0.2,0,0.5,0,1v2c0,0.8-0.2,1.3-0.5,1.6c-0.4,0.3-0.9,0.4-1.4,0.4c-0.5,0-0.9-0.1-1.3-0.3
			l0.2-0.7c0.2,0.1,0.6,0.3,1,0.3c0.6,0,1-0.3,1-1.1v-0.3h0c-0.2,0.3-0.6,0.5-1,0.5c-0.9,0-1.5-0.7-1.5-1.8c0-1.2,0.8-1.9,1.6-1.9
			c0.5,0,0.9,0.3,1,0.6h0l0-0.5H48.7z M47.8,17.3c0-0.1,0-0.2,0-0.2c-0.1-0.3-0.4-0.6-0.7-0.6c-0.5,0-0.9,0.4-0.9,1.2
			c0,0.6,0.3,1.1,0.9,1.1c0.3,0,0.6-0.2,0.7-0.5c0-0.1,0-0.2,0-0.3V17.3z"/>
		<path class="st7" d="M50.3,17.9c0,0.6,0.5,0.9,1.1,0.9c0.4,0,0.7-0.1,1-0.2l0.1,0.6c-0.3,0.1-0.7,0.2-1.3,0.2
			c-1.2,0-1.8-0.7-1.8-1.8c0-1,0.6-1.9,1.8-1.9c1.2,0,1.5,1,1.5,1.7c0,0.2,0,0.3,0,0.4H50.3z M51.9,17.3c0-0.3-0.1-0.9-0.7-0.9
			c-0.6,0-0.8,0.5-0.8,0.9H51.9z"/>
		<polygon class="st7" points="31.1,51.3 31.1,53.3 33.2,53.3 33.2,51.3 34.1,51.3 34.1,56.3 33.2,56.3 33.2,54.1 31.1,54.1 
			31.1,56.3 30.2,56.3 30.2,51.3 		"/>
		<path class="st7" d="M35.7,52.7l0.6,1.9c0.1,0.2,0.1,0.5,0.2,0.7h0c0.1-0.2,0.1-0.5,0.2-0.7l0.6-1.9h1l-0.9,2.4
			c-0.5,1.3-0.8,1.9-1.3,2.3c-0.4,0.3-0.7,0.4-0.9,0.5L35,57.1c0.2,0,0.3-0.1,0.5-0.3c0.2-0.1,0.4-0.3,0.5-0.6
			c0-0.1,0.1-0.1,0.1-0.2c0,0,0-0.1-0.1-0.2l-1.3-3.3H35.7z"/>
		<path class="st7" d="M38.8,56.3c0-0.2,0-0.6,0-1V51h0.9v2.1h0c0.2-0.3,0.6-0.6,1.1-0.6c0.9,0,1.5,0.7,1.5,1.8
			c0,1.3-0.8,1.9-1.6,1.9c-0.5,0-0.9-0.2-1.1-0.6h0l0,0.5H38.8z M39.7,54.8c0,0.1,0,0.1,0,0.2c0.1,0.4,0.4,0.6,0.8,0.6
			c0.6,0,0.9-0.5,0.9-1.2c0-0.6-0.3-1.1-0.9-1.1c-0.4,0-0.7,0.3-0.8,0.7c0,0.1,0,0.1,0,0.2V54.8z"/>
		<path class="st7" d="M43.1,53.8c0-0.5,0-0.8,0-1.2h0.8l0,0.7h0c0.2-0.5,0.6-0.8,1-0.8c0.1,0,0.1,0,0.2,0v0.9c-0.1,0-0.2,0-0.3,0
			c-0.4,0-0.7,0.3-0.8,0.7c0,0.1,0,0.2,0,0.3v1.9h-0.9V53.8z"/>
		<path class="st7" d="M46.7,51.7c0,0.3-0.2,0.5-0.5,0.5c-0.3,0-0.5-0.2-0.5-0.5c0-0.3,0.2-0.5,0.5-0.5
			C46.5,51.2,46.7,51.4,46.7,51.7 M45.8,52.7h0.9v3.6h-0.9V52.7z"/>
		<path class="st7" d="M51,51v4.2c0,0.4,0,0.8,0,1h-0.8l0-0.6h0c-0.2,0.4-0.6,0.6-1.2,0.6c-0.9,0-1.5-0.7-1.5-1.8
			c0-1.2,0.7-1.9,1.6-1.9c0.5,0,0.8,0.2,1,0.5h0v-2H51z M50,54.2c0-0.1,0-0.2,0-0.2c-0.1-0.4-0.4-0.6-0.8-0.6
			c-0.6,0-0.9,0.5-0.9,1.2c0,0.7,0.3,1.1,0.9,1.1c0.4,0,0.7-0.3,0.8-0.6c0-0.1,0-0.2,0-0.3V54.2z"/>
	</g>
</g>
</svg>
