<svg width="14" height="12" viewBox="0 0 14 12" fill="none" xmlns="http://www.w3.org/2000/svg">
<path d="M8.03588 11.712H4.09488C2.93288 11.712 1.98088 10.767 1.98088 9.59804V6.48304H0.79788C0.65088 6.48304 0.51788 6.39204 0.46888 6.25904C0.41988 6.11904 0.45488 5.96504 0.56688 5.86704L6.76888 0.379045C6.90188 0.260045 7.10488 0.260045 7.23788 0.379045L13.4399 5.86704C13.5519 5.96504 13.5869 6.11904 13.5379 6.25904C13.4889 6.39904 13.3559 6.48304 13.2089 6.48304H12.0259V9.59804C12.0259 10.326 11.6549 10.998 11.0389 11.39C10.8709 11.495 10.6539 11.446 10.5559 11.278C10.4509 11.117 10.4999 10.893 10.6679 10.795C10.8696 10.6689 11.0359 10.4935 11.1511 10.2853C11.2662 10.0771 11.3264 9.84297 11.3259 9.60504V6.14004C11.3259 5.94404 11.4869 5.79004 11.6759 5.79004H12.2849L6.99988 1.11404L1.72188 5.78304H2.33088C2.52688 5.78304 2.68088 5.94404 2.68088 6.13304V9.59804C2.68088 10.375 3.31088 11.005 4.08788 11.005H8.02888C8.22488 11.005 8.37888 11.166 8.37888 11.355C8.38588 11.551 8.23188 11.712 8.03588 11.712ZM8.02888 11.712C7.83288 11.712 7.67888 11.551 7.67888 11.362C7.67888 11.166 7.83988 11.012 8.02888 11.012C8.32288 11.012 8.55388 10.774 8.55388 10.487V7.93204C8.55388 7.63804 8.31588 7.40704 8.02888 7.40704H5.97088C5.67688 7.40704 5.44588 7.64504 5.44588 7.93204V9.57704C5.44588 9.77304 5.28488 9.92704 5.09588 9.92704C4.90688 9.92704 4.74588 9.76604 4.74588 9.57704V7.93204C4.74588 7.25304 5.29888 6.70004 5.97788 6.70004H8.03588C8.71488 6.70004 9.26788 7.25304 9.26788 7.93204V10.48C9.26088 11.159 8.70788 11.712 8.02888 11.712Z" fill="#333333"/>
</svg>
