<svg width="27" height="27" viewBox="0 0 27 27" fill="none" xmlns="http://www.w3.org/2000/svg">
<path d="M20.2791 7.44875C18.7471 3.72043 14.4836 1.93801 10.7552 3.46994C8.9491 4.21086 7.51736 5.64523 6.77644 7.44875C4.30847 8.03146 2.57088 10.2358 2.58406 12.7696C2.58406 15.7861 5.03884 18.2408 8.05525 18.2408H10.1409C10.5443 18.2408 10.8713 17.9139 10.8713 17.5105C10.8713 17.107 10.5443 16.7801 10.1409 16.7801H8.05525C5.84041 16.7775 4.0448 14.9819 4.04216 12.767C4.03162 10.7895 5.47127 9.10197 7.42771 8.80402L7.86277 8.73547L8.00515 8.31887C8.81462 5.96164 11.0321 4.37697 13.5264 4.37697C16.0208 4.37697 18.2383 5.959 19.0477 8.31887L19.1901 8.73547L19.6252 8.80402C21.579 9.10461 23.0186 10.7895 23.0107 12.767C23.0107 14.9792 21.2098 16.7801 18.9976 16.7801H16.7802C16.3767 16.7801 16.0498 17.107 16.0498 17.5105C16.0498 17.9139 16.3767 18.2408 16.7802 18.2408H18.9976C22.014 18.2408 24.4688 15.7861 24.4688 12.7696C24.482 10.2384 22.7444 8.03146 20.2791 7.44875Z" fill="url(#paint0_linear_109_1333)"/>
<path d="M16.6668 19.836L14.2542 21.8109V12.0392C14.2542 11.6358 13.9273 11.3088 13.5239 11.3088C13.1205 11.3088 12.7935 11.6358 12.7935 12.0392V21.8083L10.3625 19.8175C10.0513 19.5618 9.59253 19.6092 9.33677 19.9204C9.08101 20.2315 9.12847 20.6903 9.4396 20.946L13.0651 23.915C13.334 24.1365 13.7216 24.1365 13.9906 23.915L17.5923 20.9645C17.9087 20.7167 17.9641 20.2579 17.7163 19.9415C17.4684 19.625 17.0096 19.5697 16.6932 19.8175C16.6853 19.8202 16.6748 19.8281 16.6668 19.836Z" fill="white"/>
<defs>
<linearGradient id="paint0_linear_109_1333" x1="2.55864" y1="10.5859" x2="24.4667" y2="10.5859" gradientUnits="userSpaceOnUse">
<stop stop-color="#FF7759"/>
<stop offset="1" stop-color="#E60012"/>
</linearGradient>
</defs>
</svg>
