<svg width="25" height="25" viewBox="0 0 25 25" fill="none" xmlns="http://www.w3.org/2000/svg">
<path d="M12.25 24.5C19.005 24.5 24.5 19.005 24.5 12.25C24.5 5.49501 19.005 0 12.25 0C5.49501 0 0 5.49501 0 12.25C0 19.005 5.49501 24.5 12.25 24.5ZM8.15499 11.5946L12.537 7.26077C12.7076 7.09276 12.9299 7.0079 13.1521 7.0079C13.3778 7.0079 13.6036 7.09454 13.7742 7.26778C14.1137 7.61167 14.1111 8.16468 13.7672 8.50503L10.01 12.2212L13.7366 15.9583C14.0778 16.3004 14.077 16.8543 13.7349 17.1955C13.3927 17.5377 12.8389 17.5359 12.4976 17.1938L8.15235 12.8363L8.15061 12.8337L8.14798 12.8319C8.0675 12.7506 8.00974 12.6561 7.96773 12.5572C7.96599 12.5537 7.96162 12.5502 7.96072 12.5467C7.83123 12.229 7.896 11.851 8.15499 11.5946Z" fill="white" fill-opacity="0.2"/>
</svg>
