<svg width="29" height="29" viewBox="0 0 29 29" fill="none" xmlns="http://www.w3.org/2000/svg">
<path d="M14.5 28.5C22.2318 28.5 28.5 22.2318 28.5 14.5C28.5 6.76806 22.2318 0.5 14.5 0.5C6.76802 0.5 0.5 6.76802 0.5 14.5C0.5 22.2318 6.76802 28.5 14.5 28.5ZM14.5 26.4999C7.87256 26.4999 2.49995 21.1274 2.49995 14.5C2.49995 7.87255 7.87252 2.49995 14.5 2.49995C21.1275 2.49995 26.5 7.87252 26.5 14.5C26.5 21.1275 21.1274 26.4999 14.5 26.4999ZM14.7159 6.02794C12.988 6.02794 11.644 6.55601 10.684 7.61205C9.72403 8.61997 9.26794 9.96399 9.26794 11.644H11.164C11.164 10.468 11.4279 9.55599 11.956 8.88399C12.532 8.09197 13.42 7.70799 14.62 7.70799C15.6279 7.70799 16.4201 7.972 16.972 8.54796C17.5001 9.07594 17.7879 9.82 17.7879 10.7799C17.7879 11.452 17.548 12.076 17.0679 12.676C16.9241 12.8679 16.636 13.156 16.2521 13.5399C14.956 14.692 14.164 15.604 13.8279 16.3241C13.54 16.9241 13.396 17.62 13.396 18.412V18.9641H15.3159V18.412C15.3159 17.764 15.46 17.1879 15.772 16.66C16.012 16.228 16.372 15.7959 16.8999 15.34C17.9559 14.404 18.6041 13.78 18.844 13.492C19.444 12.7 19.756 11.7639 19.756 10.6839C19.756 9.24398 19.3 8.11599 18.4121 7.29995C17.4759 6.43604 16.2521 6.02794 14.7159 6.02794ZM14.356 20.6441C13.948 20.6441 13.612 20.7641 13.324 21.0521C13.036 21.3158 12.9161 21.652 12.9161 22.06C12.9161 22.4679 13.036 22.8041 13.324 23.0921C13.612 23.3559 13.948 23.5 14.356 23.5C14.7641 23.5 15.1 23.3559 15.388 23.0921C15.6759 22.828 15.8199 22.4919 15.8199 22.06C15.8199 21.652 15.6759 21.3158 15.412 21.0521C15.124 20.7641 14.7641 20.6441 14.356 20.6441Z" fill="url(#paint0_linear_130_1683)"/>
<defs>
<linearGradient id="paint0_linear_130_1683" x1="0.467575" y1="14.5094" x2="28.4972" y2="14.5094" gradientUnits="userSpaceOnUse">
<stop stop-color="#FF7759"/>
<stop offset="1" stop-color="#E60012"/>
</linearGradient>
</defs>
</svg>
