<svg width="18" height="13" viewBox="0 0 18 13" fill="none" xmlns="http://www.w3.org/2000/svg">
<path d="M14.4338 7.31735L10.2432 11.508C10.1009 11.6553 10.0221 11.8527 10.0239 12.0575C10.0257 12.2624 10.1078 12.4583 10.2527 12.6031C10.3975 12.748 10.5935 12.8302 10.7983 12.8319C11.0032 12.8337 11.2005 12.755 11.3479 12.6127L16.8729 7.08845C16.9457 7.01606 17.0034 6.93 17.0429 6.83521C17.0823 6.74042 17.1026 6.63877 17.1026 6.5361C17.1026 6.43344 17.0823 6.33179 17.0429 6.237C17.0034 6.14221 16.9457 6.05614 16.8729 5.98376L11.3479 0.45954C11.2005 0.317229 11.0032 0.238484 10.7983 0.240264C10.5935 0.242044 10.3975 0.324207 10.2527 0.469057C10.1078 0.613908 10.0257 0.809854 10.0239 1.0147C10.0221 1.21954 10.1009 1.41688 10.2432 1.56423L14.4338 5.75485H1.20801C1.00081 5.75485 0.802094 5.83716 0.655581 5.98368C0.509068 6.13019 0.426758 6.3289 0.426758 6.5361C0.426758 6.7433 0.509068 6.94202 0.655581 7.08853C0.802094 7.23504 1.00081 7.31735 1.20801 7.31735H14.4346H14.4338Z" fill="black"/>
</svg>
