<?xml version="1.0" encoding="utf-8"?>
<!-- Generator: Adobe Illustrator 22.0.0, SVG Export Plug-In . SVG Version: 6.00 Build 0)  -->
<svg version="1.1" id="图层_1" xmlns="http://www.w3.org/2000/svg" xmlns:xlink="http://www.w3.org/1999/xlink" x="0px" y="0px"
	 viewBox="0 0 10.7 16" style="enable-background:new 0 0 10.7 16;" xml:space="preserve">
<style type="text/css">
	.st0{fill:url(#SVGID_1_);}
</style>
<linearGradient id="SVGID_1_" gradientUnits="userSpaceOnUse" x1="9.094947e-13" y1="8" x2="10.6884" y2="8">
	<stop  offset="0" style="stop-color:#F5705A"/>
	<stop  offset="1" style="stop-color:#EF2D33"/>
</linearGradient>
<path class="st0" d="M9.2,0H1.5C0.7,0,0,0.7,0,1.6v12.8C0,15.3,0.7,16,1.5,16h7.6c0.9,0,1.6-0.7,1.5-1.6V1.6C10.7,0.7,10,0,9.2,0z
	 M4.3,0.6h2c0.2,0,0.3,0.2,0.3,0.3c0,0,0,0,0,0c0,0.2-0.1,0.3-0.3,0.3h-2C4.1,1.3,4,1.1,4,0.9c0,0,0,0,0,0C4,0.7,4.2,0.6,4.3,0.6z
	 M5.3,14.7c-0.5,0-0.9-0.4-0.9-0.9c0-0.5,0.4-0.9,0.9-0.9c0.5,0,0.9,0.4,0.9,0.9v0C6.2,14.3,5.8,14.7,5.3,14.7L5.3,14.7z M9.2,12.1
	H1.5V2h7.6V12.1z"/>
</svg>
