<svg width="32" height="34" viewBox="0 0 32 34" fill="none" xmlns="http://www.w3.org/2000/svg">
<path d="M30.7619 14.3469L19.2306 2.38212C18.8132 1.94586 18.3118 1.59865 17.7566 1.36145C17.2014 1.12424 16.6038 1.00195 16.0001 1.00195C15.3963 1.00195 14.7988 1.12424 14.2436 1.36145C13.6884 1.59865 13.1869 1.94586 12.7696 2.38212L11.5624 3.63438C11.3725 3.44963 11.1182 3.34597 10.8533 3.34533H4.62014C4.34958 3.34533 4.0901 3.45281 3.89878 3.64413C3.70746 3.83545 3.59998 4.09493 3.59998 4.36549V11.8969L1.2417 14.3469C-0.0624104 15.6995 0.111868 16.7673 0.331203 17.2842C0.550538 17.8011 1.19919 18.6665 3.078 18.6665H3.7071V31.9754C3.7071 32.246 3.81458 32.5054 4.0059 32.6968C4.19721 32.8881 4.4567 32.9955 4.72726 32.9955H27.2669C27.5375 32.9955 27.797 32.8881 27.9883 32.6968C28.1796 32.5054 28.2871 32.246 28.2871 31.9754V18.6665H28.9239C30.8027 18.6665 31.4513 17.8002 31.6715 17.2842C31.8917 16.7681 32.0651 15.6978 30.7619 14.3469ZM5.64116 5.38736H9.82808V5.42901L5.64116 9.77831V5.38736ZM19.5707 30.9544H16.5187V23.7282H19.5707V30.9544ZM26.2459 30.9544H21.6135V22.708C21.6135 22.4375 21.506 22.178 21.3147 21.9867C21.1234 21.7954 20.8639 21.6879 20.5934 21.6879H15.4959C15.2254 21.6879 14.9659 21.7954 14.7746 21.9867C14.5833 22.178 14.4758 22.4375 14.4758 22.708V30.9544H5.75423V18.6665H26.2425L26.2459 30.9544ZM28.9256 16.6236H3.07374C2.78271 16.6427 2.4913 16.5923 2.22361 16.4765C2.32638 16.2044 2.49181 15.9604 2.70649 15.7641L14.2403 3.79845C14.471 3.56673 14.7451 3.38285 15.047 3.25738C15.349 3.13192 15.6727 3.06733 15.9997 3.06733C16.3266 3.06733 16.6503 3.13192 16.9523 3.25738C17.2542 3.38285 17.5284 3.56673 17.759 3.79845L29.2911 15.7641C29.5057 15.9603 29.6708 16.2044 29.7731 16.4765C29.5062 16.5919 29.2157 16.642 28.9256 16.6228V16.6236Z" fill="url(#paint0_linear_85_1779)"/>
<defs>
<linearGradient id="paint0_linear_85_1779" x1="0.142064" y1="17.0094" x2="31.8213" y2="17.0094" gradientUnits="userSpaceOnUse">
<stop stop-color="#FF7759"/>
<stop offset="1" stop-color="#E60012"/>
</linearGradient>
</defs>
</svg>
