<svg width="40" height="40" viewBox="0 0 40 40" fill="none" xmlns="http://www.w3.org/2000/svg">
<path d="M20 0C20.52 0 20.8256 0.135556 20.9956 0.22L28.3333 3.88889L21.1111 7.5V9.31222L33.83 15.6733C34.0736 15.7949 34.264 16.0017 34.3652 16.2545C34.4664 16.5072 34.4713 16.7883 34.3789 17.0444L34.3267 17.1633C34.2051 17.4069 33.9983 17.5974 33.7455 17.6986C33.4928 17.7997 33.2117 17.8046 32.9556 17.7122L32.8367 17.66L28.8889 15.6867V20H40V26.6667H37.7778V40H2.22222V26.6667H0V20H11.1111V15.6867L7.16333 17.66C6.92 17.7817 6.64045 17.8099 6.3777 17.7393C6.11494 17.6686 5.88725 17.504 5.73778 17.2767L5.67333 17.1633C5.5516 16.92 5.52339 16.6404 5.59404 16.3777C5.6647 16.1149 5.82931 15.8872 6.05667 15.7378L6.17 15.6733L18.8889 9.31111V1.11111C18.8889 0.816426 19.006 0.533811 19.2143 0.325437C19.4227 0.117063 19.7053 0 20 0V0ZM11.1111 26.6667H4.44444V37.7778H11.1111V26.6667ZM35.5556 26.6667H28.8889V37.7778H35.5556V26.6667ZM20 11.3733L13.3333 14.7067V37.7778H17.7778V31.1111H22.2222V37.7778H26.6667V14.7067L20 11.3733ZM8.88889 30V34.4444H6.66667V30H8.88889ZM33.3333 30V34.4444H31.1111V30H33.3333ZM11.1111 22.2222H2.22222V24.4444H11.1111V22.2222ZM37.7778 22.2222H28.8889V24.4444H37.7778V22.2222ZM20 16.6667C20.4377 16.6667 20.8712 16.7529 21.2756 16.9204C21.68 17.0879 22.0475 17.3334 22.357 17.643C22.6666 17.9525 22.9121 18.32 23.0796 18.7244C23.2471 19.1288 23.3333 19.5623 23.3333 20C23.3333 20.4377 23.2471 20.8712 23.0796 21.2756C22.9121 21.68 22.6666 22.0475 22.357 22.357C22.0475 22.6666 21.68 22.9121 21.2756 23.0796C20.8712 23.2471 20.4377 23.3333 20 23.3333C19.1159 23.3333 18.2681 22.9821 17.643 22.357C17.0179 21.7319 16.6667 20.8841 16.6667 20C16.6667 19.1159 17.0179 18.2681 17.643 17.643C18.2681 17.0179 19.1159 16.6667 20 16.6667Z" fill="url(#paint0_linear_226_1446)"/>
<defs>
<linearGradient id="paint0_linear_226_1446" x1="20" y1="0" x2="20" y2="40" gradientUnits="userSpaceOnUse">
<stop stop-color="white"/>
<stop offset="1" stop-color="white" stop-opacity="0"/>
</linearGradient>
</defs>
</svg>
