<svg width="47" height="43" viewBox="0 0 47 43" fill="none" xmlns="http://www.w3.org/2000/svg">
<path d="M5.48705 19.1488V14.4456C5.48705 13.8279 5.60871 13.2163 5.84508 12.6457C6.08145 12.0751 6.42789 11.5566 6.86463 11.1199C7.30138 10.6831 7.81986 10.3367 8.39049 10.1004C8.96112 9.86401 9.57271 9.74237 10.1904 9.74238H18.0291C19.2764 9.74239 20.4727 10.2379 21.3547 11.1199C22.2367 12.0019 22.7322 13.1982 22.7322 14.4456V19.1488H25.8677V8.95851C25.8677 8.75061 25.9503 8.55123 26.0973 8.40423C26.2443 8.25722 26.4437 8.17464 26.6516 8.17464H40.7612C40.8641 8.17464 40.9661 8.19491 41.0612 8.23431C41.1563 8.2737 41.2427 8.33144 41.3155 8.40423C41.3883 8.47702 41.446 8.56343 41.4854 8.65853C41.5248 8.75364 41.5451 8.85557 41.5451 8.95851V19.1487H46.2483C46.3512 19.1487 46.4532 19.169 46.5483 19.2084C46.6434 19.2478 46.7298 19.3055 46.8026 19.3783C46.8754 19.4511 46.9331 19.5375 46.9725 19.6326C47.0119 19.7277 47.0322 19.8297 47.0322 19.9326V26.2036C47.0322 26.3065 47.0119 26.4084 46.9725 26.5035C46.9331 26.5986 46.8754 26.6851 46.8026 26.7578C46.7298 26.8306 46.6434 26.8884 46.5483 26.9278C46.4532 26.9672 46.3512 26.9874 46.2483 26.9874H43.8966V41.8809C43.8966 42.0888 43.8141 42.2882 43.6671 42.4352C43.5201 42.5822 43.3207 42.6648 43.1128 42.6648H29.0031C28.9002 42.6648 28.7983 42.6445 28.7032 42.6051C28.6081 42.5657 28.5217 42.508 28.4489 42.4352C28.3761 42.3624 28.3183 42.276 28.2789 42.1809C28.2396 42.0858 28.2193 41.9839 28.2193 41.8809V26.9875H20.3806V41.0971H18.8128V26.9875H9.40644V41.881C9.40644 41.9839 9.38616 42.0858 9.34677 42.1809C9.30738 42.276 9.24964 42.3625 9.17685 42.4352C9.10406 42.508 9.01765 42.5658 8.92254 42.6052C8.82744 42.6446 8.72551 42.6648 8.62257 42.6648H3.91935C3.71145 42.6648 3.51207 42.5823 3.36507 42.4352C3.21807 42.2882 3.13548 42.0889 3.13548 41.881V26.9875H0.78387C0.575975 26.9875 0.376594 26.9049 0.22959 26.7579C0.0825861 26.6109 0 26.4115 0 26.2036L0 19.9326C0 19.7248 0.0825861 19.5254 0.22959 19.3784C0.376594 19.2314 0.575975 19.1488 0.78387 19.1488H5.48705ZM21.1644 19.1488V14.4456C21.1644 13.614 20.8341 12.8165 20.2461 12.2284C19.6581 11.6404 18.8605 11.3101 18.029 11.3101H10.1903C9.3587 11.3101 8.56118 11.6404 7.97318 12.2285C7.38517 12.8165 7.05483 13.614 7.05483 14.4456V19.1488H21.1644ZM14.1096 8.17464C13.5949 8.17464 13.0853 8.07326 12.6097 7.8763C12.1342 7.67933 11.7022 7.39063 11.3382 7.02669C10.9743 6.66274 10.6856 6.23068 10.4886 5.75516C10.2916 5.27964 10.1903 4.76998 10.1903 4.25529C10.1903 3.74059 10.2916 3.23093 10.4886 2.75542C10.6856 2.2799 10.9743 1.84783 11.3382 1.48389C11.7022 1.11994 12.1342 0.831246 12.6097 0.63428C13.0853 0.437314 13.5949 0.335937 14.1096 0.335938C15.1491 0.335938 16.146 0.748868 16.881 1.48389C17.616 2.21891 18.029 3.21581 18.029 4.25529C18.029 5.29476 17.616 6.29167 16.881 7.02669C16.146 7.76171 15.1491 8.17464 14.1096 8.17464ZM14.1096 6.6069C14.7333 6.6069 15.3314 6.35914 15.7725 5.91813C16.2135 5.47712 16.4612 4.87897 16.4612 4.25529C16.4612 3.6316 16.2135 3.03346 15.7725 2.59245C15.3314 2.15144 14.7333 1.90368 14.1096 1.90368C13.4859 1.90368 12.8878 2.15144 12.4468 2.59245C12.0058 3.03346 11.758 3.6316 11.758 4.25529C11.758 4.87897 12.0058 5.47712 12.4468 5.91813C12.8878 6.35914 13.4859 6.6069 14.1096 6.6069ZM1.56774 25.4197H45.4644V20.7166H1.56774V25.4197ZM42.3289 33.2584V26.9875H29.787V33.2584L42.3289 33.2584ZM42.3289 34.8262H29.787V41.0971H42.3289V34.8262ZM27.4354 9.74238V19.1487H39.9772V9.74238H27.4354ZM4.70322 26.9874V41.0971H7.8387V26.9875L4.70322 26.9874ZM13.3257 31.6907H14.8935V41.0971H13.3257V31.6907ZM33.7063 16.7972C33.0826 16.7972 32.4845 16.5494 32.0435 16.1084C31.6025 15.6674 31.3547 15.0692 31.3547 14.4456C31.3547 13.8219 31.6025 13.2237 32.0435 12.7827C32.4845 12.3417 33.0826 12.0939 33.7063 12.0939C34.33 12.0939 34.9282 12.3417 35.3692 12.7827C35.8102 13.2237 36.0579 13.8219 36.0579 14.4456C36.0579 15.0692 35.8102 15.6674 35.3692 16.1084C34.9282 16.5494 34.33 16.7972 33.7063 16.7972Z" fill="url(#paint0_linear_226_1440)"/>
<defs>
<linearGradient id="paint0_linear_226_1440" x1="23.5161" y1="0.335937" x2="23.5161" y2="42.6648" gradientUnits="userSpaceOnUse">
<stop stop-color="white"/>
<stop offset="1" stop-color="white" stop-opacity="0"/>
</linearGradient>
</defs>
</svg>
