<svg width="10" height="6" viewBox="0 0 10 6" fill="none" xmlns="http://www.w3.org/2000/svg">
<path d="M5.26921 0.0897222C5.25631 0.0828694 5.24552 0.0717616 5.23219 0.0657597C4.99434 -0.0518868 4.70328 -0.0133682 4.51198 0.194951L0.170425 4.9172C-0.0661808 5.17473 -0.0549596 5.58068 0.194968 5.82452C0.445298 6.06793 0.839894 6.0568 1.07692 5.79928L4.97315 1.56212L8.92717 5.7826C9.16626 6.03756 9.56088 6.04526 9.80913 5.79928C9.93636 5.67351 10 5.50539 10 5.33727C10 5.17685 9.94179 5.01643 9.82536 4.89195L5.44137 0.212474C5.43263 0.203483 5.42058 0.200079 5.41144 0.191088C5.40521 0.184235 5.40062 0.176967 5.39398 0.170137C5.35695 0.133781 5.31161 0.114535 5.26921 0.0897222Z" fill="white"/>
</svg>
