<svg id="图层_1" data-name="图层 1" xmlns="http://www.w3.org/2000/svg" viewBox="0 0 847.71 401.16"><defs><style>.cls-1{fill:#c01c20;}.cls-2{fill:#040000;}</style></defs><title>英文logo</title><path class="cls-1" d="M500.15,1557.71q26.82-3.59,48.93-7.43,22.95-4.92,38.2-8.44,30.88-9.61,26.17-30.27-7.1-20.8-38.2-11.94-14.16,3.22-33.91,11.29t-48.28,21.92q-15.66,6.08-11.58,16.33c1.27,7.24,7.52,10.08,18.67,8.54" transform="translate(191.3 -1360.47)"/><path class="cls-1" d="M529.35,1494.94q18.75-14.16,31-23.8,23.93-21.75,10.94-38.48-15.23-15.87-39.68,5.33-11.48,8.9-26,24.56t-34.48,40.26q-11.64,12.12-3.61,19.7c4.21,6,11.09,6,20.54-.16q22.78-14.58,41.2-27.41" transform="translate(191.3 -1360.47)"/><path class="cls-1" d="M506.19,1418.44q12.48-29.85-6.37-39.5-20.49-8-33.71,21.58-6.63,12.93-13.15,33.24t-14.24,51.06q-5.43,15.93,5.06,19.39,9.57,5.49,18.55-8.83,14.51-22.85,25.75-42.26,11-20.74,18.11-34.68" transform="translate(191.3 -1360.47)"/><path class="cls-1" d="M412.3,1360.47q-21.94,1.46-21.43,33.81-.56,14.52,2.13,35.68t8.67,52.3q1.83,16.71,12.78,15.42c7.32.64,11.7-4.65,13.08-15.83Q431,1455,433,1432.66q1.2-23.43,1.73-39.08-1.29-32.32-22.45-33.11" transform="translate(191.3 -1360.47)"/><path class="cls-1" d="M374.46,1437.4q-8.83-21.75-14.94-36.16-14.82-28.74-34.35-20.52-19.26,10.59-5.14,39.7,5.64,13.39,17,31.43t30,43.75q8.7,14.37,18.09,8.56c6.9-2.51,8.63-9.16,5.17-19.87q-8.19-25.79-15.82-46.89" transform="translate(191.3 -1360.47)"/><path class="cls-1" d="M323.39,1466.43q-17.2-16-28.82-26.45-25.6-19.79-39.81-4.08-13,17.74,12.13,38.15,10.77,9.75,28.71,21.3t45.64,27q14,9.38,20,.12,7.78-7.79-3.72-20.19-18.32-19.9-34.15-35.82" transform="translate(191.3 -1360.47)"/><path class="cls-1" d="M335.46,1532.36q-25-10.3-46.09-18-22.32-7.23-37.3-11.8-31.55-7.11-37.8,13.12-4.26,21.57,27.12,29.46,13.88,4.28,35,7.17t52.76,5.15c11.06,1.72,17.14-1.06,18.18-8.35,2.54-6.89-1.46-12.5-11.89-16.73" transform="translate(191.3 -1360.47)"/><path class="cls-2" d="M-46.33,1512.86l76.7,245H-31.32l-15.1-50.43h-79.21L-141,1757.86H-191.3l78.52-245Zm-65.53,149.34h51.91l-25.73-86Z" transform="translate(191.3 -1360.47)"/><path class="cls-2" d="M110.06,1618.22v139.65H58V1618.22H37v-41.64H58q.36-28,4-40.83T81,1513q15.26-9.95,41.46-10a180.8,180.8,0,0,1,24.77,2v41.28q-11.49-.88-19-.89-11,0-14.53,5.74c-2.41,3.82-3.59,10.05-3.59,18.66v6.82H142.9v41.64Z" transform="translate(191.3 -1360.47)"/><path class="cls-2" d="M244.4,1572.81q41.4,0,64.63,27.1t23.23,67.84q0,40.23-24.12,67T244,1761.63q-38.73,0-61.95-26.56t-23.22-68.21q0-28.9,10.5-49.09a87.05,87.05,0,0,1,28.77-32.57q18.27-12.39,46.26-12.39m1.43,35q-15.21,0-22.9,11.76t-7.71,46.76q0,32.13,7.36,46.13t22.89,14q13.6,0,22-11.93t8.42-45.5q0-35.73-7.43-48.46t-22.64-12.75" transform="translate(191.3 -1360.47)"/><path class="cls-2" d="M417.87,1757.86H366V1576.59h49v33.74q11.31-37.69,39.13-37.7c2.64,0,5.86.18,9.68.53V1626q-16.32,0-25.39,5t-14.81,18q-5.73,13-5.74,35.09Z" transform="translate(191.3 -1360.47)"/><path class="cls-2" d="M656.41,1676.2H539.73c-.11,3.22-.17,6-.17,8.43q0,19.38,10.33,29.25a34.39,34.39,0,0,0,24.67,9.88q26.75,0,32.12-28.54l48.47,3.6q-20.29,62.82-82.39,62.81-27.1,0-46-10.85t-31.25-31.68q-12.27-20.83-12.29-49.91,0-43.23,24.69-69.82t63.44-26.56q35,0,60,24.68t25,78.71m-116.85-31.06H604q-2.5-37.32-30.68-37.33-30.16,0-33.75,37.33" transform="translate(191.3 -1360.47)"/></svg>