<svg width="23" height="23" viewBox="0 0 23 23" fill="none" xmlns="http://www.w3.org/2000/svg">
<path d="M9.59888 2.13212C13.59 2.13212 16.9243 5.04531 17.3117 8.86482C17.699 12.6843 15.0214 16.1478 11.1145 16.9085C7.20758 17.6691 3.33435 15.4519 2.15554 11.7942C0.976728 8.13652 2.87966 4.2199 6.55081 2.71476C7.52754 2.32633 8.55479 2.11593 9.59888 2.13212ZM9.59888 0.400391C4.29423 0.400391 0 4.52741 0 9.62549C0 14.7236 4.29423 18.8506 9.59888 18.8506C14.9035 18.8506 19.1978 14.7236 19.1978 9.62549C19.1978 4.52741 14.9035 0.400391 9.59888 0.400391ZM22.0943 22.4921C21.8585 22.4921 21.6227 22.395 21.4543 22.2331L16.8907 17.8471C16.5539 17.5073 16.5539 16.9732 16.9075 16.6333C17.2611 16.2934 17.8169 16.2934 18.1705 16.6171L22.7342 21.0031C22.9868 21.2459 23.071 21.6181 22.9363 21.9418C22.7847 22.2817 22.4647 22.4921 22.0943 22.4921Z" fill="white"/>
</svg>
