<?xml version="1.0" encoding="utf-8"?>
<!-- Generator: Adobe Illustrator 22.0.0, SVG Export Plug-In . SVG Version: 6.00 Build 0)  -->
<svg version="1.1" id="图层_1" xmlns="http://www.w3.org/2000/svg" xmlns:xlink="http://www.w3.org/1999/xlink" x="0px" y="0px"
	 viewBox="0 0 128 128" style="enable-background:new 0 0 128 128;" xml:space="preserve">
<style type="text/css">
	.st0{fill:#FE0000;}
</style>
<g>
	<path class="st0" d="M104.6,7c9,0,16.9,7.4,16.9,15.9v81.2c0,9-7.9,16.9-16.9,16.9H22.9h-0.1l-0.1,0c-0.2,0-0.3,0-0.5,0
		C13.8,121,7,113.6,7,104.6V22.9C7,14.4,14.4,7,22.9,7H104.6 M104.6,0H22.9C10.6,0,0,10.6,0,22.9v81.7c0,13,10.1,23.4,22.2,23.4
		c0.3,0,0.5,0,0.8,0h81.7c12.8,0,23.9-11,23.9-23.9V22.9C128.4,10.6,117.4,0,104.6,0L104.6,0z"/>
</g>
<path class="st0" d="M93.1,0C112.4,0,128,15.6,128,34.9v58.2c0,19.3-15.6,34.9-34.9,34.9l0,0H34.9C15.6,128,0,112.4,0,93.1V34.9
	C0,15.6,15.6,0,34.9,0c0,0,0,0,0,0C34.9,0,93.1,0,93.1,0z M104.7,86.2c0-9.3-0.5-16.1-1.4-20.5c-0.4-2.2-1.5-4.2-3.2-5.8
	c-1.5-1.5-3.5-2.5-5.6-2.7c-6.7-0.8-16.9-1.2-30.5-1.2s-23.7,0.4-30.4,1.2c-2.1,0.3-4.1,1.2-5.7,2.7c-1.6,1.6-2.7,3.5-3.2,5.8
	c-1,4.5-1.4,11.3-1.4,20.5c0,9.3,0.5,16.1,1.4,20.5c0.5,2.3,1.5,4.2,3.2,5.8c1.6,1.6,3.5,2.5,5.6,2.7c6.7,0.8,16.9,1.2,30.5,1.2
	s23.8-0.4,30.5-1.2c2.1-0.2,4.1-1.2,5.6-2.7c1.6-1.6,2.7-3.5,3.2-5.8C104.3,102.1,104.7,95.3,104.7,86.2z M49.9,11.6L46.1,27
	l-3.9-15.4h-5.8c1,3.3,2.2,6.9,3.6,10.9c1.7,5.4,2.8,9.5,3.4,12.4v15.8h5.5V35l6.6-23.3L49.9,11.6L49.9,11.6z M70.2,31.1
	c0-3.1-0.5-5.4-1.5-6.8c-1.4-2-3.3-3-5.8-3c-2.5,0-4.4,1-5.8,3c-1,1.4-1.5,3.7-1.5,6.8v10.2c0,3.1,0.5,5.4,1.5,6.9
	c1.4,2,3.3,3,5.8,3c2.5,0,4.5-1,5.8-3c1-1.4,1.5-3.7,1.5-6.9C70.2,41.3,70.2,31.1,70.2,31.1z M65.2,42.3c0,2.7-0.8,4.1-2.4,4.1
	c-1.6,0-2.4-1.4-2.4-4.1V30c0-2.7,0.8-4,2.4-4c1.6,0,2.4,1.3,2.4,4L65.2,42.3L65.2,42.3z M88.6,21.6h-5v22.3
	c-1.1,1.7-2.1,2.5-3.1,2.5c-0.7,0-1-0.4-1.2-1.3c0-0.1-0.1-0.8-0.1-2V21.6h-5v23c0,2,0.1,3.4,0.4,4.4c0.5,1.4,1.6,2.2,3.2,2.2
	c1.8,0,3.7-1.2,5.7-3.6v3.2h5L88.6,21.6L88.6,21.6z M40.6,71.7v33.3h-5.5V71.7h-5.8v-5.5h17.1v5.5H40.6z M56.5,104.9v-3.2
	c-2,2.4-3.8,3.6-5.6,3.6c-1.7,0-2.7-0.7-3.2-2.2c-0.3-0.9-0.4-2.4-0.4-4.3V76h4.9v21.3c0,1.2,0,1.9,0.1,2c0.1,0.8,0.5,1.2,1.2,1.2
	c1,0,2-0.8,3.1-2.5V76h4.9v28.9C61.4,104.9,56.5,104.9,56.5,104.9z M80,96.3c0,2.8-0.2,4.8-0.5,5.8c-0.6,2.1-1.9,3.2-3.9,3.2
	c-1.8,0-3.5-1.1-5.1-3.2v2.8h-4.9V66.2h4.9v12.7c1.6-2.1,3.3-3.2,5.1-3.2c2,0,3.3,1.1,3.9,3.3c0.3,1,0.5,2.9,0.5,5.8V96.3L80,96.3z
	 M75.2,84.3c0-2.6-0.7-3.9-2.1-3.9c-0.8,0-1.7,0.4-2.5,1.3v17.6c0.8,0.9,1.6,1.3,2.5,1.3c1.4,0,2.1-1.3,2.1-3.9V84.3L75.2,84.3z
	 M98.6,95.7c0,1.9,0,3-0.1,3.4c-0.1,1.1-0.5,2.2-1.2,3.2c-1.3,2.1-3.3,3.1-5.9,3.1c-2.5,0-4.5-1-5.9-3c-1.1-1.4-1.6-3.7-1.6-6.8
	V85.4c0-3.1,0.5-5.3,1.5-6.8c1.4-2,3.4-3,5.9-3c2.5,0,4.4,1,5.8,3c1,1.4,1.5,3.7,1.5,6.8v6h-9.8v5.1c0,2.7,0.8,4,2.5,4
	c1.2,0,1.9-0.7,2.2-2.1c0.1-0.4,0.1-1.6,0.1-3.6h5L98.6,95.7L98.6,95.7z M93.7,84.4c0-2.6-0.8-4-2.5-4c-1.6,0-2.5,1.3-2.5,4v2.7h4.9
	V84.4L93.7,84.4z"/>
</svg>
