<svg width="25" height="25" viewBox="0 0 25 25" fill="none" xmlns="http://www.w3.org/2000/svg">
<path d="M12.25 0C5.49501 0 0 5.49501 0 12.25C0 19.005 5.49501 24.5 12.25 24.5C19.005 24.5 24.5 19.005 24.5 12.25C24.5 5.49501 19.005 0 12.25 0ZM16.345 12.9054L11.963 17.2392C11.7924 17.4072 11.5701 17.4921 11.3479 17.4921C11.1222 17.4921 10.8964 17.4055 10.7258 17.2322C10.3863 16.8883 10.3889 16.3353 10.7328 15.995L14.49 12.2788L10.7634 8.54172C10.4222 8.19958 10.423 7.64572 10.7651 7.30447C11.1073 6.96232 11.6611 6.96411 12.0024 7.30621L16.3476 11.6637C16.3485 11.6646 16.3485 11.6654 16.3494 11.6663C16.3502 11.6672 16.3511 11.6672 16.352 11.6681C16.4325 11.7494 16.4903 11.8439 16.5323 11.9428C16.534 11.9463 16.5384 11.9498 16.5393 11.9533C16.6688 12.271 16.604 12.649 16.345 12.9054Z" fill="white" fill-opacity="0.2"/>
</svg>
