<svg width="28" height="28" viewBox="0 0 28 28" fill="none" xmlns="http://www.w3.org/2000/svg">
<path d="M4.49635 0H23.5036C26.5012 0 28 1.49878 28 4.49635V23.5036C28 26.5012 26.5012 28 23.5036 28H4.49635C1.49878 28 -3.81117e-10 26.5012 0 23.5036V4.49635C0 1.49878 1.49878 -3.81117e-10 4.49635 0V0Z" fill="#110A17"/>
<path d="M3.552 18.1259C3.54949 19.6854 4.09717 21.1958 5.09865 22.3913C4.04924 21.515 3.29514 20.3369 2.9389 19.017C2.58266 17.6971 2.64155 16.2995 3.10757 15.0142C3.5736 13.729 4.42414 12.6184 5.54355 11.8336C6.66296 11.0487 7.99692 10.6277 9.36405 10.6277C9.70186 10.6276 10.0392 10.6531 10.3732 10.7038V11.4728H10.2071C8.44242 11.4728 6.74998 12.1737 5.50196 13.4213C4.25395 14.6689 3.55255 16.3612 3.552 18.1259V18.1259Z" fill="#6DC5CC"/>
<path d="M16.0352 3.60222H13.1565V18.5219C13.0762 19.1226 12.8144 19.6844 12.4062 20.1322C11.9979 20.58 11.4626 20.8924 10.8719 21.0276C10.2812 21.1629 9.66326 21.1145 9.10082 20.8889C8.53837 20.6634 8.05822 20.2715 7.72461 19.7656C8.14491 20.0436 8.62896 20.2102 9.13131 20.2499C9.63367 20.2896 10.1379 20.2009 10.5966 19.9923C11.0553 19.7837 11.4535 19.462 11.7538 19.0573C12.0541 18.6527 12.2467 18.1783 12.3134 17.6789V2.75916H15.9923C15.9853 3.04086 15.9997 3.32268 16.0352 3.60222V3.60222ZM20.9996 7.97083V8.76127C20.0106 8.62058 19.0905 8.17391 18.3682 7.4839C18.197 7.32097 18.0385 7.1452 17.894 6.95813C18.7813 7.64396 19.8785 8.00175 20.9996 7.97083Z" fill="#6DC5CC"/>
<path d="M20.9997 8.76173V11.6496H20.8975C19.1447 11.655 17.4325 11.1221 15.9924 10.1229V16.708C16.0087 16.8976 16.0179 17.0892 16.0179 17.2833C16.0181 18.5489 15.6574 19.7882 14.9782 20.8561C14.299 21.9239 13.3294 22.7759 12.1831 23.3123C11.0369 23.8486 9.76143 24.047 8.50641 23.8841C7.25139 23.7213 6.06883 23.2039 5.09739 22.3928C4.28628 21.4214 3.76896 20.2388 3.60611 18.9838C3.44327 17.7288 3.64163 16.4534 4.17795 15.3071C4.71427 14.1608 5.56631 13.1912 6.63415 12.512C7.70198 11.8328 8.94134 11.4721 10.2069 11.4723H10.3729V14.4823C9.68794 14.2354 8.9362 14.2483 8.26003 14.5184C7.58386 14.7885 7.03019 15.2971 6.70383 15.948C6.37747 16.5989 6.30108 17.3469 6.48912 18.0503C6.67715 18.7537 7.11657 19.3638 7.72418 19.765C8.05788 20.2705 8.53795 20.6621 9.10019 20.8874C9.66244 21.1127 10.2801 21.161 10.8705 21.0259C11.4609 20.8907 11.9961 20.5786 12.4043 20.1311C12.8126 19.6836 13.0745 19.1222 13.1551 18.5219V3.60217H16.0337C16.1758 4.74568 16.6729 5.834 17.5237 6.64232C17.6409 6.75385 17.7637 6.85941 17.8916 6.9586C18.036 7.14566 18.1945 7.32143 18.3657 7.48436C19.0887 8.17485 20.0098 8.62155 20.9997 8.76173V8.76173Z" fill="white"/>
<path d="M6.38672 17.2828C6.38672 16.8052 6.50169 16.3345 6.72192 15.9106C6.94215 15.4867 7.26117 15.1221 7.65203 14.8475C8.04288 14.5729 8.49409 14.3964 8.96753 14.3329C9.44097 14.2695 9.92274 14.3209 10.3721 14.4828V11.4728C10.6544 11.48 10.936 11.5049 11.2152 11.5474V15.3284C10.627 15.1162 9.98692 15.0946 9.38579 15.2668C8.78466 15.439 8.25306 15.7962 7.8665 16.2877C7.47993 16.7792 7.25804 17.38 7.23234 18.0047C7.20665 18.6295 7.37846 19.2465 7.72336 19.7681C7.3123 19.4968 6.975 19.1277 6.74172 18.694C6.50843 18.2602 6.38645 17.7753 6.38672 17.2828V17.2828ZM16.0355 3.60217H16.8377C16.805 4.80546 17.1575 6.00874 17.8933 6.9586C17.7654 6.85941 17.6426 6.75385 17.5254 6.64232C16.6747 5.834 16.1775 4.74568 16.0355 3.60217Z" fill="#E72852"/>
<path d="M21.843 8.81435V12.4932H21.7408C19.988 12.4985 18.2758 11.9656 16.8357 10.9665V17.5506C16.852 17.7401 16.8612 17.9317 16.8612 18.1259C16.8612 19.493 16.4402 20.827 15.6553 21.9464C14.8705 23.0658 13.76 23.9163 12.4747 24.3824C11.1894 24.8484 9.79186 24.9073 8.47196 24.551C7.15205 24.1948 5.97389 23.4407 5.09766 22.3913C6.06909 23.2024 7.25166 23.7197 8.50668 23.8826C9.7617 24.0454 11.0371 23.847 12.1834 23.3107C13.3297 22.7744 14.2993 21.9224 14.9785 20.8545C15.6577 19.7867 16.0184 18.5473 16.0182 17.2818C16.0182 17.0876 16.009 16.896 15.9926 16.7065V10.1249C17.433 11.1234 19.1452 11.6556 20.8977 11.6496H20.9999V8.76172C21.279 8.80252 21.561 8.82012 21.843 8.81435V8.81435Z" fill="#E72852"/>
</svg>
