<svg width="32" height="34" viewBox="0 0 32 34" fill="none" xmlns="http://www.w3.org/2000/svg">
<path d="M16.0111 0L1 8.50541V15.7772H3.15396V9.71738L15.9889 2.44558L21.3627 5.49714L22.4508 3.67918L16.0111 0ZM1 18.2228V25.4946L15.9889 34L22.4508 30.3425L21.3627 28.5245L15.9889 31.5761L3.17617 24.2826V18.2228H1V18.2228ZM23.5389 6.7091L28.8238 9.71738V24.2826L23.5389 27.2909L24.6269 29.1088L31 25.4946V8.50541L24.6269 4.89115L23.5389 6.7091V6.7091Z" fill="url(#paint0_linear_85_1749)"/>
<path d="M19.7708 18.6677C19.7708 18.1361 19.7039 17.6044 19.5923 17.0728C19.2799 15.7215 18.5882 14.481 17.6065 13.5063C18.9006 13.019 20.3509 13.019 21.645 13.5285C21.4442 14.3924 21.0649 15.212 20.4848 15.8766L20.4178 15.943L20.6187 16.8291C20.6856 17.1171 20.7302 17.4272 20.7748 17.7152L20.8195 18.0696L21.0872 17.8259C22.1136 16.9399 22.8499 15.788 23.2515 14.5032C24.4787 15.5443 25.1704 17.0728 25.1704 18.6677C25.1704 21.7247 22.6714 24.2057 19.5923 24.2057C18.9229 24.2057 18.2536 24.0728 17.6065 23.8513C18.9899 22.4778 19.7708 20.6171 19.7708 18.6677ZM15.9777 14.4367C16.9594 15.2563 17.6065 16.3861 17.8519 17.6266C16.6247 18.0032 15.3083 17.9589 14.1258 17.4937C14.3935 16.2975 15.0406 15.2342 15.9777 14.4367V14.4367ZM16.2008 6.7943C19.0122 6.7943 21.3773 8.89873 21.7343 11.6456C19.8154 11.0696 17.7404 11.2911 15.9777 12.2658C14.8844 11.6456 13.6349 11.3354 12.3631 11.3354C12.2515 11.3354 12.1623 11.3354 12.073 11.3576C12.0284 11.3576 11.9615 11.3576 11.9168 11.3797H11.7606L11.6937 11.8892C11.6714 12.0443 11.6714 12.1772 11.6714 12.3323C11.6714 12.5316 11.6937 12.731 11.716 12.9747L11.7383 13.1519L11.9168 13.1297C12.7424 13.0633 13.568 13.174 14.3266 13.4842C13.4787 14.3259 12.854 15.3671 12.497 16.519C11.5152 15.6772 10.8682 14.5032 10.6673 13.2405C10.6227 12.9525 10.6004 12.6424 10.6004 12.3544C10.6004 12.1772 10.6004 11.9778 10.6227 11.8006C10.9128 8.96519 13.3225 6.7943 16.2008 6.7943V6.7943ZM13.5456 22.8987L13.6349 23.0095L14.1927 22.7658C14.5051 22.6329 14.7951 22.4557 15.1075 22.2342L15.2637 22.1234L15.1521 21.9684C14.572 21.193 14.215 20.307 14.0811 19.3544C15.3306 19.731 16.6694 19.7753 17.9189 19.4652C17.7181 20.8386 16.9817 22.1013 15.8884 22.9652C14.9067 23.7627 13.6795 24.1835 12.4077 24.1835C9.3286 24.1835 6.82961 21.7025 6.82961 18.6456C6.82961 16.8956 7.67748 15.2342 9.08316 14.193C9.55172 15.9652 10.6897 17.4937 12.2292 18.4905V18.6456C12.1846 20.1962 12.6531 21.6361 13.5456 22.8987V22.8987ZM16.2008 5C12.1623 5 8.86004 8.23418 8.81541 12.2437C6.4503 13.5285 5 15.9873 5 18.6677C5 22.7215 8.32454 26 12.3854 26C13.6572 26 14.8844 25.6677 16 25.0696C17.0933 25.6899 18.3428 26 19.6146 26C23.6978 26 27 22.6994 27 18.6677C27 16.1646 25.7282 13.8386 23.6085 12.5095V12.3544C23.5862 8.30063 20.2617 5 16.2008 5" fill="url(#paint1_linear_85_1749)"/>
<defs>
<linearGradient id="paint0_linear_85_1749" x1="0.965259" y1="17.0114" x2="30.997" y2="17.0114" gradientUnits="userSpaceOnUse">
<stop stop-color="#FF7759"/>
<stop offset="1" stop-color="#E60012"/>
</linearGradient>
<linearGradient id="paint1_linear_85_1749" x1="4.97452" y1="15.507" x2="26.9978" y2="15.507" gradientUnits="userSpaceOnUse">
<stop stop-color="#FF7759"/>
<stop offset="1" stop-color="#E60012"/>
</linearGradient>
</defs>
</svg>
