<svg width="32" height="34" viewBox="0 0 32 34" fill="none" xmlns="http://www.w3.org/2000/svg">
<g clip-path="url(#clip0_85_1775)">
<path d="M28.0068 3H4.00098C1.80044 3 0 4.8 0 7V23C0 25.2 1.80044 27 4.00098 27H15.0037V29H7.00171C6.40156 29 6.00147 29.4 6.00147 30C6.00147 30.6 6.40156 31 7.00171 31H25.0061C25.6063 31 26.0063 30.6 26.0063 30C26.0063 29.4 25.6063 29 25.0061 29H17.0042V27H28.0068C30.2074 27 32.0078 25.2 32.0078 23V7C32.0078 4.8 30.2074 3 28.0068 3ZM30.0073 23C30.0073 24.2 29.2071 25 28.0068 25H4.00098C2.80068 25 2.00049 24.2 2.00049 23V7C2.00049 5.8 2.80068 5 4.00098 5H28.0068C29.2071 5 30.0073 5.8 30.0073 7V23Z" fill="url(#paint0_linear_85_1775)"/>
<path d="M26.2064 12.2L23.0057 15.4L17.8044 8.4C17.6043 8.2 17.2042 8 16.8041 8C16.6041 8 16.204 8.2 16.0039 8.6L12.8032 16.8L9.80243 12.4C9.60238 12.2 9.40233 12 9.00223 12C8.60214 12 8.40209 12 8.20204 12.2L4.20106 16.2C4.00101 16.6 4.00101 17.4 4.20106 17.8C4.40111 18.2 5.20131 18.2 5.6014 17.8L8.80218 14.6L12.203 19.6C12.4031 19.8 12.6031 20 13.0032 20H13.2033C13.6034 20 13.8034 19.8 14.0035 19.4L17.2042 11L22.2055 17.6C22.4055 17.8 22.6056 18 23.0057 18C23.2057 18 23.6058 18 23.8058 17.8L27.8068 13.8C28.2069 13.4 28.2069 12.8 27.8068 12.4C27.4067 12 26.6065 12 26.2064 12.2V12.2Z" fill="url(#paint1_linear_85_1775)"/>
</g>
<defs>
<linearGradient id="paint0_linear_85_1775" x1="-0.037066" y1="17.0094" x2="32.0047" y2="17.0094" gradientUnits="userSpaceOnUse">
<stop stop-color="#FF7759"/>
<stop offset="1" stop-color="#E60012"/>
</linearGradient>
<linearGradient id="paint1_linear_85_1775" x1="4.02317" y1="14.004" x2="28.1045" y2="14.004" gradientUnits="userSpaceOnUse">
<stop stop-color="#FF7759"/>
<stop offset="1" stop-color="#E60012"/>
</linearGradient>
<clipPath id="clip0_85_1775">
<rect width="32" height="28" fill="white" transform="translate(0 3)"/>
</clipPath>
</defs>
</svg>
