<svg width="28" height="28" viewBox="0 0 28 28" fill="none" xmlns="http://www.w3.org/2000/svg">
<path d="M22.4 0C25.4928 0 28 2.5072 28 5.6V22.4C28 25.4928 25.4928 28 22.4 28H5.6C2.5072 28 0 25.4928 0 22.4V5.6C0 2.5072 2.5072 0 5.6 0H22.4ZM6.64882 6.41498C6.13225 6.54937 5.73554 6.91718 5.46648 7.46602C5.23433 7.93961 5.08881 8.56067 5.01823 9.33606C4.88452 10.8051 5.01747 12.8807 5.41253 15.5777C5.41445 15.5909 5.4168 15.6039 5.41953 15.6168C5.91664 17.9683 6.45728 19.7424 7.05091 20.9503C7.36441 21.5883 7.69779 22.0798 8.06173 22.426C8.47498 22.819 8.93796 23.0322 9.43581 23.0322C10.3434 23.0322 11.1912 22.3456 12.053 21.0574L12.0766 21.022C12.6765 20.1179 13.3034 18.8897 13.9612 17.3336L14 17.2416L14.0187 17.286C14.6925 18.8853 15.3339 20.1411 15.947 21.0574C16.8088 22.3456 17.6566 23.0322 18.5642 23.0322C19.062 23.0322 19.525 22.819 19.9383 22.4259C20.3022 22.0798 20.6356 21.5883 20.9491 20.9503C21.5427 19.7424 22.0834 17.9683 22.5805 15.6169C22.5832 15.6039 22.5855 15.5909 22.5874 15.5778L22.6108 15.4167C22.9878 12.7979 23.1128 10.7757 22.9818 9.33603C22.9112 8.56067 22.7657 7.93959 22.5335 7.46602C22.2645 6.91718 21.8678 6.54937 21.3512 6.41498C20.8279 6.27886 20.2704 6.4374 19.6789 6.83123C19.1676 7.17161 18.604 7.70577 17.9771 8.43604L17.9406 8.47869C16.8547 9.75177 15.5599 11.6342 14.0501 14.1309L14 14.2138L13.9702 14.1645L13.8792 14.0141C12.3963 11.5698 11.1225 9.72352 10.0523 8.47038L10.0072 8.41775C9.39168 7.70276 8.83734 7.17752 8.33391 6.83974C7.73743 6.43959 7.17585 6.27788 6.64882 6.41498ZM7.62951 7.88966C8.03502 8.16173 8.52584 8.6298 9.09092 9.29146L9.12611 9.3328C10.2438 10.6503 11.621 12.6824 13.2504 15.4229L13.3222 15.544L13.3024 15.5948C12.4751 17.7138 11.7056 19.303 11.0022 20.3544C10.3528 21.3251 9.80607 21.7678 9.43581 21.7678C9.28823 21.7678 9.12559 21.6929 8.93301 21.5098C8.6911 21.2798 8.43842 20.9071 8.1856 20.3927L8.16947 20.3596C7.64706 19.2843 7.14935 17.6572 6.68492 15.4888L6.66055 15.3745L6.64089 15.2388C6.27665 12.7084 6.15686 10.7743 6.27736 9.45066L6.28242 9.39665C6.34154 8.78891 6.45157 8.32882 6.60171 8.02255C6.71937 7.78252 6.83856 7.672 6.96713 7.63856C7.08389 7.60821 7.30477 7.67178 7.62951 7.88966ZM21.0329 7.63856C21.1614 7.672 21.2806 7.78252 21.3983 8.02255C21.5529 8.33782 21.6649 8.81612 21.7226 9.45066L21.7263 9.49134C21.8407 10.8141 21.7196 12.735 21.3589 15.2404L21.3394 15.3745L21.3148 15.4902C20.8457 17.6803 20.3426 19.318 19.8144 20.3927C19.5616 20.9071 19.3089 21.2798 19.067 21.5098C18.8744 21.6929 18.7118 21.7678 18.5642 21.7678C18.194 21.7678 17.6472 21.3251 16.9978 20.3544L16.976 20.3217C16.2785 19.2702 15.5164 17.692 14.6973 15.5942L14.6777 15.544L14.7296 15.4566C16.3813 12.6762 17.7746 10.6218 18.9016 9.30024L18.9364 9.25958C19.4943 8.60967 19.979 8.15024 20.3795 7.88364L20.4071 7.86548C20.7123 7.66691 20.9208 7.60941 21.0329 7.63856Z" fill="#FF9817"/>
</svg>
