<svg width="28" height="28" viewBox="0 0 28 28" fill="none" xmlns="http://www.w3.org/2000/svg">
<path d="M6.45117 8.76149C6.45117 9.414 6.97739 9.94022 7.6299 9.94022C8.28241 9.94022 8.80862 9.414 8.80862 8.76149C8.80862 8.10898 8.28241 7.58276 7.6299 7.58276C6.97739 7.58276 6.45117 8.10898 6.45117 8.76149Z" fill="#AEAEAF"/>
<path d="M15.6367 14.8551C15.6367 15.3655 16.0524 15.7812 16.5629 15.7812C17.0733 15.7812 17.489 15.3655 17.489 14.8551C17.489 14.3447 17.0733 13.929 16.5629 13.929C16.0472 13.9342 15.6367 14.3447 15.6367 14.8551Z" fill="#AEAEAF"/>
<path d="M12.4668 8.76149C12.4668 9.414 12.993 9.94022 13.6455 9.94022C14.298 9.94022 14.8242 9.414 14.8242 8.76149C14.8242 8.10898 14.298 7.58276 13.6455 7.58276C12.993 7.58276 12.4668 8.10898 12.4668 8.76149Z" fill="#AEAEAF"/>
<path d="M27.9158 4.09397C27.9158 1.80492 26.0319 0 23.8218 0H4.09397C1.79966 0 0 1.88386 0 4.09397V23.906C0 26.1951 1.88386 28 4.09397 28H23.906C26.1951 28 28 26.1161 28 23.906L27.9158 4.09397ZM10.4928 18.6702C9.43507 18.6702 8.5826 18.4544 7.51964 18.2439L4.55704 19.7331L5.40425 17.181C3.27833 15.6971 2.01015 13.7816 2.01015 11.4505C2.01015 7.41439 5.83048 4.23078 10.498 4.23078C14.6709 4.23078 18.3281 6.77241 19.0648 10.1928C18.7965 10.1665 18.5228 10.1455 18.2492 10.1455C14.2184 10.1455 11.0348 13.1502 11.0348 16.86C11.0348 17.4757 11.1295 18.0703 11.2979 18.6386C11.0242 18.6597 10.7611 18.6702 10.4928 18.6702ZM23.0115 21.6433L23.6482 23.764L21.3223 22.4905C20.4751 22.701 19.6226 22.9167 18.7754 22.9167C14.7393 22.9167 11.5557 20.1594 11.5557 16.76C11.5557 13.3659 14.7341 10.6033 18.7754 10.6033C22.5905 10.6033 25.9846 13.3712 25.9846 16.76C25.9846 18.6702 24.7164 20.3646 23.0115 21.6433Z" fill="#AEAEAF"/>
<path d="M20.2539 14.8551C20.2539 15.3655 20.6696 15.7812 21.18 15.7812C21.6905 15.7812 22.1062 15.3655 22.1062 14.8551C22.1062 14.3447 21.6905 13.929 21.18 13.929C20.6696 13.9342 20.2539 14.3447 20.2539 14.8551Z" fill="#AEAEAF"/>
</svg>
