<svg width="32" height="34" viewBox="0 0 32 34" fill="none" xmlns="http://www.w3.org/2000/svg">
<path d="M31 26.1153V7.92643H27.8185L19.8099 0L12.4757 3.62945L16.0163 7.13373V7.96811H6.61672L0 15.8945V34H23.224L31 26.1153ZM21.3481 31.9142H2.46687V17.313H21.3481V31.9142ZM6.29875 25.6565H10.5138V29.8282H6.29875V25.6565ZM6.29875 19.3989H10.5138V23.5706H6.29875V19.3989ZM13.4438 25.6565H17.6589V29.8282H13.4438V25.6565ZM13.4438 19.3989H17.6589V23.5706H13.4438V19.3989ZM29.4619 25.2602L23.7087 30.7253V16.7916L29.4619 11.3266V25.2602ZM27.2284 8.84426L26.0904 9.38661L24.7837 8.09337L25.8796 7.55102L27.2284 8.84426ZM19.7677 6.25778L18.461 4.96454L19.557 4.42219L20.8636 5.71543L19.7677 6.25778ZM21.7067 6.46633L23.0134 7.75957L21.9175 8.30192L20.6108 7.00867L21.7067 6.46633ZM18.7984 6.75836L17.6603 7.30071L16.3537 6.00747L17.4496 5.46512L18.7984 6.75836ZM17.0702 8.13505L19.8521 10.8884L18.5242 11.5977L16.8382 9.92904L17.028 8.13509L17.0702 8.13505ZM19.7677 9.38661L18.461 8.09337L19.557 7.55102L20.8636 8.84426L19.7677 9.38661ZM21.7067 9.5952L23.0134 10.8884L21.8753 11.4725L20.5687 10.1793L21.7067 9.5952ZM22.6762 9.09457L23.7721 8.55223L25.0788 9.84547L23.9829 10.3878L22.6762 9.09457ZM25.1209 6.75836L23.9828 7.30071L22.6762 6.00747L23.7721 5.46512L25.1209 6.75836ZM23.0134 4.6725L21.8753 5.21485L20.5687 3.92161L21.6646 3.37926L23.0134 4.6725ZM19.5992 1.25164L20.9058 2.54488L19.7678 3.12895L18.4611 1.83571L19.5992 1.25164ZM17.4916 2.29457L18.7983 3.58781L17.7024 4.13015L16.3957 2.83691L17.4916 2.29457ZM15.5527 5.21477L14.2461 3.92153L15.342 3.37918L16.6487 4.67242L15.5527 5.21477ZM3.39306 15.2271L7.58632 9.88707H15.9742L15.5946 10.534L18.1237 13.0997L20.6107 11.681L21.6645 12.724L27.1441 10.0123H28.4507L22.4654 15.227L3.39306 15.2271ZM27.9237 14.5388L25.8162 16.3744V21.2553L27.9237 19.4197V14.5388ZM27.9237 20.7965L25.8162 22.6321V27.513L27.9237 25.6774V20.7965Z" fill="url(#paint0_linear_85_1748)"/>
<defs>
<linearGradient id="paint0_linear_85_1748" x1="-0.035899" y1="17.0114" x2="30.9969" y2="17.0114" gradientUnits="userSpaceOnUse">
<stop stop-color="#FF7759"/>
<stop offset="1" stop-color="#E60012"/>
</linearGradient>
</defs>
</svg>
