<svg width="32" height="34" viewBox="0 0 32 34" fill="none" xmlns="http://www.w3.org/2000/svg">
<path d="M18.6067 1.91939e-07C18.8152 -0.000128337 19.0189 0.0642961 19.1911 0.184846C19.3633 0.305395 19.496 0.476457 19.5719 0.675652L19.6216 0.854126L22.3555 14.8728H28.9625C29.2213 14.8724 29.4709 14.9713 29.6621 15.1501C29.8534 15.329 29.9724 15.5748 29.9958 15.8392C30.0191 16.1036 29.9452 16.3674 29.7884 16.5786C29.6317 16.7899 29.4036 16.9332 29.1489 16.9805L28.9625 16.9975H22.7677L25.8351 32.7245C26.0277 33.7104 24.9217 34.3605 24.1968 33.7826L24.0642 33.6594L15.5 24.2852L6.93577 33.6594C6.26472 34.3924 5.10694 33.8463 5.14215 32.9051L5.16286 32.7245L8.22817 16.9975H2.03749C1.7787 16.998 1.52912 16.8991 1.33788 16.7202C1.14665 16.5414 1.02762 16.2956 1.00424 16.0312C0.980856 15.7668 1.05481 15.503 1.21155 15.2918C1.36829 15.0805 1.59644 14.9371 1.85108 14.8898L2.03749 14.8728H8.64033L11.3784 0.854126C11.4192 0.644969 11.5205 0.453261 11.669 0.303953C11.8175 0.154646 12.0063 0.054656 12.211 0.0169977L12.3933 1.91939e-07H18.6067ZM10.0777 18.3531L7.90714 29.4886L14.0813 22.7342L10.0777 18.3531ZM20.9202 18.3531L16.9167 22.7342L23.0908 29.4886L20.9202 18.3531V18.3531ZM19.3213 16.9975H11.6725L15.5 21.181L19.3213 16.9975ZM17.7555 2.12469H13.2424L10.7529 14.8728H20.2388L17.7555 2.12469V2.12469Z" fill="url(#paint0_linear_85_1745)"/>
<path d="M24.9483 6C25.2106 5.99954 25.4636 6.09266 25.6575 6.26102C25.8513 6.42938 25.972 6.66077 25.9957 6.90964C26.0194 7.15851 25.9444 7.40682 25.7855 7.60566C25.6267 7.80451 25.3954 7.93948 25.1372 7.984L24.9483 8H6.05174C5.7894 8.00046 5.53639 7.90734 5.34253 7.73898C5.14866 7.57062 5.028 7.33923 5.0043 7.09036C4.98059 6.84149 5.05557 6.59318 5.21446 6.39434C5.37335 6.19549 5.60463 6.06052 5.86278 6.016L6.05174 6H24.9483Z" fill="url(#paint1_linear_85_1745)"/>
<defs>
<linearGradient id="paint0_linear_85_1745" x1="0.966417" y1="17.0114" x2="29.9971" y2="17.0114" gradientUnits="userSpaceOnUse">
<stop stop-color="#FF7759"/>
<stop offset="1" stop-color="#E60012"/>
</linearGradient>
<linearGradient id="paint1_linear_85_1745" x1="4.97568" y1="7.00067" x2="25.9979" y2="7.00067" gradientUnits="userSpaceOnUse">
<stop stop-color="#FF7759"/>
<stop offset="1" stop-color="#E60012"/>
</linearGradient>
</defs>
</svg>
