<svg width="28" height="28" viewBox="0 0 28 28" fill="none" xmlns="http://www.w3.org/2000/svg">
<path d="M25.312 0H2.688C1.20867 0 0 1.20867 0 2.688V25.312C0 26.7913 1.20867 28 2.688 28H25.312C26.7913 28 28 26.7913 28 25.312V2.688C28 1.20867 26.7913 0 25.312 0ZM23.0183 12.152C21.2654 12.1602 19.5535 11.6219 18.1207 10.612C18.1207 12.81 18.1207 15.008 18.1487 17.206C18.1487 17.5 18.1627 17.794 18.1347 18.088C18.0647 19.166 17.7147 20.202 17.1827 21.14C16.7186 21.9517 16.0899 22.6575 15.337 23.212C14.371 23.926 13.167 24.332 11.963 24.36C11.3522 24.3866 10.7406 24.3348 10.143 24.206C9.30004 24.0236 8.50148 23.6763 7.79333 23.184C7.77933 23.17 7.75133 23.156 7.75133 23.142C6.99729 22.6117 6.36753 21.9238 5.90567 21.126C5.27163 20.061 4.95585 18.8368 4.99567 17.598C5.02086 16.6793 5.23941 15.7761 5.63706 14.9475C6.03472 14.1189 6.60255 13.3834 7.30353 12.789C8.00451 12.1946 8.82291 11.7546 9.70536 11.4977C10.5878 11.2408 11.5145 11.1727 12.425 11.298V12.138C12.439 12.488 12.425 12.838 12.439 13.174V14.952C11.9858 14.8051 11.5002 14.7905 11.039 14.91C10.4857 15.0311 9.96861 15.2805 9.52933 15.638C9.26333 15.862 9.03933 16.128 8.88533 16.436C8.61933 16.954 8.52133 17.556 8.57733 18.144C8.64733 18.704 8.88533 19.25 9.24933 19.684C9.50133 19.978 9.80933 20.23 10.1453 20.426C11.0553 20.93 12.229 20.888 13.111 20.328C13.965 19.796 14.511 18.83 14.511 17.836V8.82C14.525 7.098 14.511 5.376 14.525 3.654H18.0787C18.0647 3.962 18.1067 4.256 18.1627 4.564H18.1767C18.2747 5.068 18.4567 5.544 18.6947 6.006C19.0587 6.706 19.5907 7.336 20.2627 7.742C20.3047 7.77 20.3327 7.812 20.3747 7.84C21.1655 8.34123 22.0821 8.6082 23.0183 8.61V12.152V12.152Z" fill="#AEAEAF"/>
</svg>
