<svg id="图层_1" data-name="图层 1" xmlns="http://www.w3.org/2000/svg" xmlns:xlink="http://www.w3.org/1999/xlink" viewBox="0 0 32 34"><defs><style>.cls-1{fill:url(#未命名的渐变_51);}.cls-2{fill:url(#未命名的渐变_51-2);}.cls-3{fill:url(#未命名的渐变_51-4);}</style><linearGradient id="未命名的渐变_51" x1="0.79" y1="17" x2="29.58" y2="17" gradientUnits="userSpaceOnUse"><stop offset="0" stop-color="#f96e59"/><stop offset="1" stop-color="#f43639"/></linearGradient><linearGradient id="未命名的渐变_51-2" x1="0.79" y1="18.85" x2="29.58" y2="18.85" xlink:href="#未命名的渐变_51"/><linearGradient id="未命名的渐变_51-4" x1="0.79" y1="21.92" x2="29.58" y2="21.92" xlink:href="#未命名的渐变_51"/></defs><path class="cls-1" d="M30.78,4.34h0L15.4,1.77h0a.88.88,0,0,0-1,.86V11H6.92a.86.86,0,0,0-.61.25.9.9,0,0,0-.25.61v4.7H1.36a.86.86,0,0,0-.86.86v14A.86.86,0,0,0,.75,32a.83.83,0,0,0,.61.26H30.64a.83.83,0,0,0,.61-.26.86.86,0,0,0,.25-.61V5.19A.86.86,0,0,0,30.78,4.34ZM6.06,21.23H4.76a.53.53,0,0,0-.52.52v.79a.56.56,0,0,0,.15.37.51.51,0,0,0,.37.15h1.3v2.43H4.76a.52.52,0,0,0-.37.16.51.51,0,0,0-.15.36v.79a.51.51,0,0,0,.52.52h1.3v3.1H2.84a.49.49,0,0,1-.36-.15.51.51,0,0,1-.15-.37v-11a.48.48,0,0,1,.15-.36.5.5,0,0,1,.36-.16H6.06Zm11.11,9.19H7.88V13.31A.55.55,0,0,1,8,13a.51.51,0,0,1,.37-.15h8.25A.51.51,0,0,1,17,13a.51.51,0,0,1,.15.36Zm12.51-.52a.52.52,0,0,1-.16.37.48.48,0,0,1-.36.15H19V11.83a.87.87,0,0,0-.87-.86H16.22V4.47A.61.61,0,0,1,16.43,4a.57.57,0,0,1,.48-.14h0l12.3,2.06h0a.53.53,0,0,1,.43.51Z"/><path class="cls-2" d="M23.16,11.53V26.17a.51.51,0,0,1-.51.52h-.79a.51.51,0,0,1-.52-.52V11.53a.51.51,0,0,1,.15-.37.56.56,0,0,1,.37-.15h.79a.53.53,0,0,1,.36.15A.51.51,0,0,1,23.16,11.53Z"/><rect class="cls-2" x="25.51" y="11.01" width="1.83" height="15.68" rx="0.52"/><path class="cls-3" d="M15.33,16.69a.32.32,0,0,0-.27-.16h-3.8a.31.31,0,0,0-.3.24L9.69,21.85a.33.33,0,0,0,.06.27.3.3,0,0,0,.25.12h1.44L9.7,26.89a.32.32,0,0,0,.15.39.3.3,0,0,0,.4-.09l5.06-7a.32.32,0,0,0,0-.33.34.34,0,0,0-.28-.17H13.72L15.33,17A.31.31,0,0,0,15.33,16.69Z"/></svg>