<svg width="31" height="31" viewBox="0 0 31 31" fill="none" xmlns="http://www.w3.org/2000/svg">
<path d="M10.9912 6.20858C9.81572 4.92381 8.46086 3.73851 6.96375 2.68517C4.42019 0.895817 2.34254 0.102055 2.25513 0.0695479C2.09546 0.00924276 1.92702 -0.0121778 1.76009 0.00659016C1.59315 0.0253582 1.43121 0.0839218 1.28413 0.178714C1.13696 0.273369 1.00769 0.402275 0.904205 0.557586C0.800715 0.712896 0.725165 0.891365 0.682153 1.08213C0.658652 1.18644 0.105327 3.67301 0.0129687 7.15857C-0.0414567 9.21041 0.0756403 11.1924 0.360137 13.0502C0.720499 15.4014 1.35258 17.5604 2.23864 19.4677C3.1247 21.3749 4.32824 23.1657 5.81628 24.7916C6.99179 26.0764 8.34665 27.2617 9.84376 28.315C12.3873 30.1044 14.465 30.8981 14.5524 30.9306C14.6757 30.9772 14.8031 31 14.9301 31C15.1354 31 15.3399 30.9398 15.5234 30.8215C15.6706 30.7268 15.7998 30.5979 15.9033 30.4426C16.0068 30.2873 16.0823 30.1088 16.1254 29.918C16.1489 29.8137 16.7022 27.3272 16.7945 23.8416C16.849 21.7898 16.7319 19.8078 16.447 17.95C16.0866 15.5988 15.4545 13.4398 14.5685 11.5325C13.6824 9.62524 12.4789 7.83443 10.9912 6.20858V6.20858ZM14.324 23.6766C14.286 25.2375 14.1438 26.5882 14.0081 27.5601C13.24 27.17 12.1968 26.5819 11.0593 25.7775C8.97337 24.3016 6.12634 21.766 4.40906 18.0699C2.69136 14.3737 2.41387 10.1851 2.48314 7.32207C2.52107 5.76124 2.66332 4.41 2.79856 3.43866C3.5667 3.82875 4.60985 4.41679 5.74743 5.22123C7.83332 6.69716 10.6803 9.23273 12.3976 12.9289C14.1157 16.6255 14.3936 20.8141 14.324 23.6766V23.6766ZM24.6343 20.9004C23.3054 22.5981 21.5316 23.9711 19.3624 24.9828C18.7275 25.2787 18.4166 26.1249 18.6681 26.8721C18.8606 27.4436 19.3261 27.792 19.8184 27.792C19.9702 27.792 20.1244 27.759 20.2736 27.6891C22.7912 26.5154 24.8705 24.8949 26.4538 22.8732C27.5316 21.4962 28.4416 19.8476 29.1582 17.9723C29.723 16.494 30.17 14.8715 30.4862 13.1501C31.0235 10.2264 31.0008 8.01589 30.9996 7.92322C30.9969 7.72593 30.9602 7.53134 30.8916 7.35127C30.8231 7.1712 30.7242 7.0094 30.6008 6.87572C30.4775 6.74203 30.3324 6.63925 30.1742 6.5736C30.0161 6.50796 29.8483 6.48083 29.681 6.49387C29.6022 6.50017 27.7283 6.65398 25.296 7.52294C23.8641 8.03481 22.5261 8.69126 21.3205 9.47435C19.7908 10.468 18.4689 11.6698 17.3907 13.0468C16.9277 13.6382 16.9599 14.5586 17.4621 15.1034C17.9647 15.6483 18.7468 15.6105 19.2099 15.0195C21.243 12.4228 24.0001 11.0362 25.9549 10.3302C26.9131 9.98427 27.7794 9.76255 28.4502 9.62281C28.37 10.6261 28.2379 11.6227 28.0548 12.6072C27.6169 14.9569 26.6678 18.3037 24.6343 20.9004V20.9004Z" fill="white"/>
</svg>
