<?xml version="1.0" encoding="utf-8"?>
<!-- Generator: Adobe Illustrator 27.0.1, SVG Export Plug-In . SVG Version: 6.00 Build 0)  -->
<svg version="1.1" id="图层_1" xmlns="http://www.w3.org/2000/svg" xmlns:xlink="http://www.w3.org/1999/xlink" x="0px" y="0px"
	 viewBox="0 0 150 150" style="enable-background:new 0 0 150 150;" xml:space="preserve">
<style type="text/css">
	.st0{fill:#3A5A98;}
	.st1{fill:#CA2128;}
	.st2{opacity:0.8;fill:#2E80FF;}
	.st3{opacity:0.7;}
	.st4{fill:url(#SVGID_1_);}
	.st5{fill:#FFFFFF;}
	.st6{fill:url(#SVGID_00000006673331033330976730000005892504696054602937_);}
	.st7{fill:#B90087;}
</style>
<path class="st0" d="M760,522.21c0,12.59-10.19,22.79-22.77,22.79H632.92c-12.58,0-22.77-10.21-22.77-22.79V417.79
	c0-12.59,10.2-22.79,22.77-22.79h104.31c12.58,0,22.77,10.2,22.77,22.79V522.21z"/>
<path class="st1" d="M557,520.21c0,12.59-10.19,22.79-22.77,22.79H429.92c-12.58,0-22.77-10.2-22.77-22.79V415.79
	c0-12.59,10.2-22.79,22.77-22.79h104.31c12.58,0,22.77,10.21,22.77,22.79V520.21z"/>
<path class="st2" d="M146.61,515.53c0,12.59-10.2,22.79-22.79,22.79H19.42c-12.59,0-22.79-10.2-22.79-22.79v-104.4
	c0-12.59,10.2-22.79,22.79-22.79h104.4c12.59,0,22.79,10.2,22.79,22.79V515.53z"/>
<path class="st3" d="M343.63,518.52c0,12.59-10.2,22.79-22.79,22.79h-104.4c-12.59,0-22.79-10.2-22.79-22.79v-104.4
	c0-12.59,10.2-22.79,22.79-22.79h104.4c12.59,0,22.79,10.2,22.79,22.79V518.52z"/>
<linearGradient id="SVGID_1_" gradientUnits="userSpaceOnUse" x1="192.1307" y1="649.5012" x2="342.1307" y2="649.5012" gradientTransform="matrix(6.123234e-17 -1 1 6.123234e-17 -574.5013 342.1307)">
	<stop  offset="0" style="stop-color:#F3CA5F"/>
	<stop  offset="0.2151" style="stop-color:#F88827"/>
	<stop  offset="0.4301" style="stop-color:#DC2D5C"/>
	<stop  offset="0.7097" style="stop-color:#A44882"/>
	<stop  offset="1" style="stop-color:#46469B"/>
</linearGradient>
<path class="st4" d="M127.21,0C139.8,0,150,10.21,150,22.79v104.41c0,12.59-10.2,22.79-22.79,22.79H22.79C10.2,150,0,139.8,0,127.21
	V22.79C0,10.21,10.2,0,22.79,0H127.21z"/>
<path class="st5" d="M725.2,482.51l2.43-18.81H709v-12.01c0-5.44,1.52-9.16,9.32-9.16l9.95-0.01v-16.82
	c-1.72-0.23-7.62-0.74-14.51-0.74c-14.36,0-24.18,8.77-24.18,24.86v13.87h-16.24v18.81h16.24v48.25H709v-48.25H725.2z"/>
<path class="st5" d="M473.17,412.27h-6.53l-4.4,16.93l-4.58-16.93h-6.8c1.36,3.99,2.78,8.01,4.14,12.01
	c2.07,6.01,3.36,10.54,3.95,13.64v17.46h6.46v-17.46L473.17,412.27z M490.43,444.97v-11.25c0-3.43-0.59-5.94-1.81-7.57
	c-1.61-2.19-3.87-3.29-6.79-3.29c-2.9,0-5.17,1.1-6.78,3.29c-1.24,1.63-1.82,4.13-1.82,7.57v11.25c0,3.41,0.58,5.94,1.82,7.56
	c1.61,2.19,3.88,3.29,6.78,3.29c2.92,0,5.18-1.1,6.79-3.29C489.84,450.92,490.43,448.39,490.43,444.97z M484.6,446.07
	c0,2.97-0.9,4.46-2.77,4.46c-1.88,0-2.78-1.49-2.78-4.46v-13.51c0-2.97,0.9-4.45,2.78-4.45c1.88,0,2.77,1.48,2.77,4.45V446.07z
	 M511.95,455.38v-32.12h-5.82v24.55c-1.29,1.82-2.52,2.73-3.68,2.73c-0.78,0-1.24-0.46-1.36-1.36c-0.07-0.19-0.07-0.9-0.07-2.27
	v-23.65h-5.8v25.4c0,2.26,0.2,3.8,0.52,4.78c0.58,1.63,1.87,2.39,3.75,2.39c2.12,0,4.33-1.29,6.65-3.95v3.51H511.95z"/>
<path class="st5" d="M530.81,494.36c0,7.43-0.01,15.32-1.67,22.53c-1.16,5.06-5.31,8.8-10.3,9.37c-11.82,1.32-23.78,1.32-35.69,1.32
	c-11.91,0.01-23.87,0-35.69-1.32c-4.99-0.56-9.14-4.3-10.3-9.37c-1.66-7.22-1.66-15.1-1.66-22.53c0-7.44,0.02-15.31,1.68-22.53
	c1.16-5.06,5.31-8.8,10.3-9.36c11.82-1.32,23.78-1.33,35.69-1.32c11.91,0,23.87,0,35.69,1.32c4.99,0.55,9.14,4.29,10.3,9.36
	C530.82,479.05,530.81,486.93,530.81,494.36z"/>
<path class="st1" d="M462.68,478.33v-6.01H442.6v6.01h6.78v36.65h6.41v-36.65H462.68z M474.32,514.98v-3.46
	c-2.29,2.62-4.46,3.9-6.58,3.9c-1.86,0-3.14-0.75-3.71-2.36c-0.32-0.97-0.51-2.48-0.51-4.73v-25.14h5.76v23.4
	c0,1.35,0,2.05,0.05,2.24c0.14,0.89,0.58,1.35,1.35,1.35c1.15,0,2.37-0.89,3.64-2.69v-24.3h5.77v31.79H474.32z M496.21,505.9
	c0,2.87-0.85,4.29-2.51,4.29c-0.95,0-1.91-0.45-2.87-1.41v-19.38c0.96-0.95,1.92-1.4,2.87-1.4c1.66,0,2.51,1.47,2.51,4.34V505.9z
	 M501.97,505.44v-12.66c0-3.01-0.2-5.11-0.58-6.39c-0.77-2.38-2.31-3.59-4.61-3.59c-2.12,0-4.09,1.16-5.95,3.45v-13.93h-5.76v42.66
	h5.76v-3.08c1.92,2.38,3.9,3.52,5.95,3.52c2.3,0,3.84-1.21,4.61-3.57C501.77,510.5,501.97,508.38,501.97,505.44z M517.95,495.34
	h-5.76v-2.94c0-2.94,0.96-4.41,2.89-4.41c1.9,0,2.87,1.47,2.87,4.41V495.34z M523.71,504.81v-0.84h-5.88c0,2.31-0.07,3.58-0.12,3.9
	c-0.33,1.54-1.16,2.31-2.58,2.31c-1.98,0-2.94-1.46-2.94-4.41v-5.63h11.52v-6.58c0-3.4-0.58-5.89-1.79-7.49
	c-1.61-2.18-3.9-3.26-6.79-3.26c-2.94,0-5.24,1.08-6.9,3.26c-1.23,1.61-1.78,4.09-1.78,7.49v11.13c0,3.37,0.62,5.88,1.85,7.47
	c1.66,2.17,3.95,3.26,6.97,3.26c3.01,0,5.37-1.14,6.97-3.45c0.7-1.02,1.15-2.18,1.34-3.45
	C523.64,507.94,523.71,506.66,523.71,504.81z"/>
<g>
	<path class="st5" d="M18.17,513.5v-70H39v70H18.17z"/>
	<path class="st5" d="M50.09,513.5v-70H75.4v10.24c3.26-4.08,6.9-7.12,10.91-9.11s8.55-2.99,13.62-2.99c4.25,0,8.05,0.71,11.4,2.12
		c3.35,1.42,6.18,3.52,8.5,6.31c2.1,2.53,3.6,5.61,4.48,9.24c0.88,3.63,1.32,9.56,1.32,17.81v36.38H97.81v-36.25
		c0-5.32-0.71-8.98-2.12-10.98c-1.42-2-3.87-2.99-7.34-2.99c-3.52,0-6.14,1.16-7.86,3.48c-1.72,2.32-2.58,5.86-2.58,10.63v36.12
		H50.09z"/>
</g>
<circle class="st5" cx="28.5" cy="426.5" r="11.5"/>
<path d="M297.2,426"/>
<polygon class="st5" points="306.96,425 220.68,513 229.86,513 314.42,425 "/>
<path class="st5" d="M218,425h23.24L317,513c-7.75,0-15.5,0-23.24,0C268.5,483.67,243.25,454.33,218,425z"/>
<path d="M226.61,430h13.73l44.77,52c-4.58,0-9.16,0-13.73,0C256.45,464.67,241.53,447.33,226.61,430z"/>
<path d="M248.99,456h13.73l44.77,52c-4.58,0-9.16,0-13.73,0C278.83,490.67,263.91,473.33,248.99,456z"/>
<g>
	<g>
		<path class="st5" d="M102.24,124.48H49.65c-11.99,0-21.76-9.76-21.76-21.76V50.13c0-12,9.77-21.77,21.76-21.77h52.59
			c11.99,0,21.76,9.76,21.76,21.77v52.58C124,114.72,114.23,124.48,102.24,124.48z"/>
		<path class="st5" d="M49.65,37.94c-6.72,0-12.19,5.47-12.19,12.2v52.58c0,6.73,5.47,12.2,12.19,12.2h52.59
			c6.72,0,12.19-5.47,12.19-12.2V50.13c0-6.72-5.47-12.2-12.19-12.2H49.65z"/>
	</g>
</g>
<g>
	
		<linearGradient id="SVGID_00000116917994512554782410000005390879071804361604_" gradientUnits="userSpaceOnUse" x1="239.6522" y1="652.4338" x2="300.7846" y2="652.4338" gradientTransform="matrix(6.123234e-17 -1 1 6.123234e-17 -576.7622 346.6522)">
		<stop  offset="0" style="stop-color:#F3CA5F"/>
		<stop  offset="0.2151" style="stop-color:#F88827"/>
		<stop  offset="0.4301" style="stop-color:#DC2D5C"/>
		<stop  offset="0.7097" style="stop-color:#A44882"/>
		<stop  offset="1" style="stop-color:#46469B"/>
	</linearGradient>
	<path style="fill:url(#SVGID_00000116917994512554782410000005390879071804361604_);" d="M45.11,76.44
		c0,16.86,13.71,30.56,30.57,30.56c16.86,0,30.57-13.71,30.57-30.56c0-16.85-13.71-30.57-30.57-30.57
		C58.81,45.87,45.11,59.58,45.11,76.44z M94.47,76.44c0,10.37-8.43,18.8-18.8,18.8c-10.36,0-18.8-8.43-18.8-18.8
		c0-10.37,8.44-18.8,18.8-18.8C86.04,57.64,94.47,66.06,94.47,76.44z"/>
</g>
<path class="st7" d="M101.43,45.07c0,3.49,2.82,6.3,6.31,6.3c3.47,0,6.3-2.81,6.3-6.3c0-3.48-2.83-6.31-6.3-6.31
	C104.25,38.76,101.43,41.59,101.43,45.07z"/>
</svg>
