<?xml version="1.0" encoding="utf-8"?>
<!-- Generator: Adobe Illustrator 22.0.0, SVG Export Plug-In . SVG Version: 6.00 Build 0)  -->
<svg version="1.1" id="图层_1" xmlns="http://www.w3.org/2000/svg" xmlns:xlink="http://www.w3.org/1999/xlink" x="0px" y="0px"
	 viewBox="0 0 20 18.6" style="enable-background:new 0 0 20 18.6;" xml:space="preserve">
<style type="text/css">
	.st0{fill:url(#SVGID_1_);}
</style>
<linearGradient id="SVGID_1_" gradientUnits="userSpaceOnUse" x1="2.128723e-02" y1="9.2895" x2="20" y2="9.2895">
	<stop  offset="0" style="stop-color:#E60012"/>
	<stop  offset="1" style="stop-color:#FEA6A9"/>
</linearGradient>
<path class="st0" d="M12.2,10.6l-1.4-1.4H9.4L8,10.6L9.4,12h0.9l1.2,1.2v2.3l0.2,0.2h1l0.6-0.6v-1.9l1.2-1.2l-1.4-1.4L12.2,10.6
	L12.2,10.6z M11.2,0.9C10.4,0.9,9.7,1,9,1.2L8.9,0.8C8.6,0.9,8.3,1,8.1,1.1C8.6,2.9,8.4,5.1,7.3,7c-1.1,1.8-3,2.1-4.1,2.1h0V8.1h0
	c0.9,0,2.5-0.2,3.3-1.6C7.7,4.4,7.8,1.8,6.6,0c-0.9,0.8-2,1.3-3.1,1.8C2,2.5,0.8,3,0.3,4c-0.9,1.9,0.3,3.3,1.3,4
	C2,5.7,3.2,3.7,5,2.2l0.6,0.7c-2,1.7-3.2,4.2-3.2,6.8c0,4.9,3.9,8.8,8.8,8.8s8.8-4,8.8-8.8C20,4.8,16.1,0.9,11.2,0.9z M14.2,13.5
	v1.8L13,16.6h-1.7l-0.7-0.7v-2.3l-0.6-0.6H9l-2.3-2.3L9,8.3h2.2l1.4,1.4h0.9l2.3,2.3L14.2,13.5L14.2,13.5z M17.6,8.8l-1.1,1.1
	l-1.1-1.1h-1.8l-0.9-0.9h-0.9l-0.4-0.4H8.8V5.6l2-0.9h0.7V3.9l2.1-1.6h2v0.9h-1.7l-1.5,1.1v1.1H11L9.7,6.1v0.3h2l0.4,0.4H13L14,7.8
	h1.8l0.7,0.7l0.7-0.7h2v0.9L17.6,8.8L17.6,8.8L17.6,8.8z"/>
</svg>
