<?xml version="1.0" encoding="utf-8"?>
<!-- Generator: Adobe Illustrator 22.0.0, SVG Export Plug-In . SVG Version: 6.00 Build 0)  -->
<svg version="1.1" id="图层_1" xmlns="http://www.w3.org/2000/svg" xmlns:xlink="http://www.w3.org/1999/xlink" x="0px" y="0px"
	 viewBox="0 0 104.9 112.1" style="enable-background:new 0 0 104.9 112.1;" xml:space="preserve">
<style type="text/css">
	.st0{clip-path:url(#SVGID_2_);fill:#231814;}
	.st1{clip-path:url(#SVGID_2_);fill:#095CA6;}
</style>
<g>
	<g>
		<defs>
			<rect id="SVGID_1_" x="-886.7" y="-418.4" width="1871.9" height="1053"/>
		</defs>
		<clipPath id="SVGID_2_">
			<use xlink:href="#SVGID_1_"  style="overflow:visible;"/>
		</clipPath>
		<path class="st0" d="M16,102.6h2.5c1.4-0.1,2.6,0.5,2.6,2.1c0,1.6-1.3,2-2.6,2.1H17v3.3h-1V102.6z M18.7,105.9
			c0.1,0,1.3,0.1,1.3-1.2c0-1.3-1.2-1.2-1.3-1.2H17v2.4H18.7z"/>
		<path class="st0" d="M23.3,110h-1v-5.2h1v1h0c0.1-0.7,0.8-1.1,1.5-1.1c0.1,0,0.2,0,0.3,0v0.9c-0.1-0.1-0.3-0.1-0.4-0.1
			c-1.2,0-1.5,0.7-1.5,1.8V110z"/>
		<path class="st0" d="M26.9,107.6c-0.1,0.9,0.3,1.8,1.3,1.8c0.8,0,1.1-0.3,1.3-1.1h1c-0.2,1.2-1.1,1.8-2.3,1.8
			c-1.7,0-2.3-1.2-2.3-2.7c0-1.5,0.8-2.8,2.4-2.8c1.5,0,2.3,1,2.3,2.4v0.5H26.9z M29.6,107c0-0.9-0.4-1.5-1.3-1.5
			c-0.8,0-1.3,0.7-1.3,1.5H29.6z"/>
		<path class="st0" d="M34.9,106.5c-0.1-0.6-0.4-1.1-1.1-1.1c-0.9,0-1.3,0.8-1.3,2c0,1.2,0.4,2,1.3,2c0.6,0,1-0.4,1.1-1.2h1
			c-0.1,1.2-0.9,1.9-2.1,1.9c-1.7,0-2.3-1.2-2.3-2.7c0-1.5,0.8-2.8,2.4-2.8c1.1,0,1.9,0.7,2,1.8H34.9z"/>
		<path class="st0" d="M37.1,102.6h1.2v1.1h-1.2V102.6z M37.2,104.9h1v5.2h-1V104.9z"/>
		<path class="st0" d="M41.7,104.7c1,0,2.1,0.4,2,1.6h-1c0-0.7-0.5-0.9-1-0.9c-0.5,0-0.9,0.2-0.9,0.8c0,0.6,0.9,0.6,1.3,0.7
			c0.9,0.3,1.9,0.4,1.9,1.6c0,1.3-1.2,1.7-2.3,1.7c-1.1,0-2-0.5-2-1.7h1c0,0.6,0.5,1,1,1c0.6,0,1.2-0.2,1.2-0.9
			c0-1.2-3.1-0.3-3.1-2.3C39.7,105.2,40.7,104.7,41.7,104.7"/>
		<path class="st0" d="M45.8,107.6c-0.1,0.9,0.3,1.8,1.3,1.8c0.8,0,1.1-0.3,1.3-1.1h1c-0.2,1.2-1.1,1.8-2.3,1.8
			c-1.7,0-2.3-1.2-2.3-2.7c0-1.5,0.8-2.8,2.4-2.8c1.5,0,2.3,1,2.3,2.4v0.5H45.8z M48.4,107c0-0.9-0.4-1.5-1.3-1.5
			c-0.8,0-1.3,0.7-1.3,1.5H48.4z"/>
		<rect x="50.9" y="102.6" class="st0" width="1" height="7.4"/>
		<polygon class="st0" points="55.4,112 54.4,112 55.1,110 53,104.9 54.1,104.9 55.7,108.9 57.3,104.9 58.4,104.9 		"/>
		<path class="st0" d="M63.3,106.7v3.4h-1v-7.4h2.7c1.2,0,2.5,0.4,2.5,1.9c0,0.9-0.5,1.6-1.4,1.8v0c0.9,0.2,1,0.7,1.1,1.5
			c0.1,0.7,0.2,1.5,0.5,2.2h-1.1c-0.1-0.4-0.2-0.9-0.3-1.4c-0.1-0.7-0.1-1.3-0.4-1.6c-0.3-0.3-0.7-0.3-1.1-0.3H63.3z M63.3,105.8H65
			c1.1-0.1,1.4-0.6,1.4-1.2s-0.3-1.1-1.4-1.2h-1.7V105.8z"/>
		<path class="st0" d="M69.1,102.6h1.2v1.1h-1.2V102.6z M69.2,104.9h1v5.2h-1V104.9z"/>
		<path class="st0" d="M75.6,104.9h1c0,0.3-0.1,0.6-0.1,0.9v3.6c0,1.9-0.8,2.7-2.7,2.7c-1.1,0-1.9-0.5-1.9-1.7h1c0,0.7,0.5,1,1.2,1
			c1.4,0,1.4-1.2,1.4-2.3h0c-0.3,0.6-1.1,0.9-1.7,0.9c-1.6,0-2.2-1.1-2.2-2.6c0-1.5,0.8-2.7,2.4-2.7c0.5,0,1.1,0.2,1.4,0.7
			c0,0,0.2,0.3,0.2,0.2L75.6,104.9z M74.1,109.2c1.1,0,1.5-0.9,1.5-1.9c0-1-0.4-1.9-1.5-1.9c-1.1,0-1.5,1.1-1.5,1.9
			C72.7,108.1,73,109.2,74.1,109.2"/>
		<path class="st0" d="M78.3,110v-7.4h1v3h0c0.4-0.6,0.9-0.8,1.7-0.8c1.3,0,1.8,0.9,1.8,1.8v3.5h-1V107c0-0.9-0.2-1.5-1.2-1.5
			c-0.4,0-1,0.3-1.2,0.7c-0.2,0.5-0.2,0.9-0.2,1.2v2.7H78.3z"/>
		<path class="st0" d="M84.7,104.9v-1.1l1-0.3v1.4l1.2,0v0.7l-1.2,0v3.3c0,0.4,0.3,0.5,0.6,0.5c0.2,0,0.4,0,0.5-0.1v0.7
			c-0.2,0-0.4,0.1-0.7,0.1c-0.2,0-0.4,0-0.7-0.1c-0.2,0-0.4-0.1-0.6-0.3c-0.2-0.2-0.2-0.3-0.2-1v-3.3l-0.9,0v-0.7L84.7,104.9z"/>
		<rect x="88" y="108.8" class="st0" width="1.2" height="1.2"/>
		<rect x="62.9" y="72.1" class="st0" width="1.7" height="1.6"/>
		<path class="st0" d="M21.1,71.7v6.9c0,2.9-2.1,4.3-4.8,4.3c-2.7,0-4.8-1.4-4.8-4.3v-6.9H14v6c0,1.9,0.1,3.5,2.4,3.5
			c2.3,0,2.4-1.7,2.4-3.5v-6H21.1z M14.3,68.4h1.5v1.8h-1.5V68.4z M16.9,68.4h1.5v1.8h-1.5V68.4z"/>
		<polygon class="st0" points="22.8,71.7 25.4,71.7 28.3,80.4 28.3,80.4 31.2,71.7 33.5,71.7 29.4,82.7 26.9,82.7 		"/>
		<path class="st0" d="M37,77.7v5h-1.5v-11h3.9c1.8,0,3.7,0.6,3.7,2.8c0,1.3-0.8,2.3-2.1,2.6v0c1.3,0.3,1.5,1,1.7,2.2
			c0.2,1.1,0.3,2.3,0.7,3.3h-1.6c-0.1-0.7-0.3-1.4-0.4-2c-0.1-1-0.1-1.9-0.6-2.4c-0.4-0.5-1-0.5-1.7-0.5H37z M37,76.4h2.5
			c1.7-0.1,2.1-0.8,2.1-1.7c0-0.9-0.4-1.6-2.1-1.7H37V76.4z"/>
		<path class="st0" d="M45.6,82.7v-11h1.4v4.4h0c0.5-0.9,1.4-1.2,2.5-1.2c2,0,2.6,1.3,2.6,2.7v5.2h-1.4v-4.5c0-1.3-0.3-2.2-1.7-2.2
			c-0.6,0-1.5,0.4-1.7,1.1c-0.3,0.8-0.2,1.3-0.2,1.8v3.9H45.6z"/>
		<path class="st0" d="M55.6,79.1c-0.1,1.3,0.4,2.7,1.9,2.7c1.1,0,1.7-0.4,1.9-1.6h1.5c-0.2,1.7-1.6,2.6-3.4,2.6
			c-2.4,0-3.4-1.7-3.4-4c0-2.2,1.1-4.1,3.5-4.1c2.3,0,3.4,1.5,3.4,3.6v0.7H55.6z M59.5,78.1c0-1.3-0.5-2.3-1.9-2.3
			c-1.2,0-1.9,1-1.9,2.3H59.5z"/>
		<rect x="63" y="75.1" class="st0" width="1.4" height="7.6"/>
		<path class="st0" d="M68.4,76.2L68.4,76.2c0.5-1,1.6-1.4,2.3-1.4c0.5,0,2.9,0.1,2.9,2.6v5.3h-1.4v-4.8c0-1.3-0.5-1.9-1.7-1.9
			c0,0-0.8,0-1.4,0.6c-0.2,0.2-0.6,0.5-0.6,2v4.1H67v-7.6h1.4V76.2z"/>
		<rect x="76" y="71.7" class="st0" width="1.4" height="11"/>
		<path class="st0" d="M84.5,78c0-1.3-0.1-2.1-1.6-2.1c-0.7,0-1.4,0.4-1.4,1.2h-1.5c0.1-1.7,1.4-2.3,2.9-2.3c1.6,0,3.1,0.5,3.1,2.6
			v3.6c0,0.3,0,1,0.1,1.6h-1c-0.1,0-0.4,0.1-0.4-0.1c0-0.4-0.1-0.7-0.1-1h0c-0.5,1-1.3,1.4-2.4,1.4c-1.3,0-2.7-0.7-2.7-2.2
			c0-2.1,1.9-2.8,3.7-2.8H84.5z M83,79c-0.9,0-2.1,0.4-2.1,1.5c0,0.9,0.7,1.4,1.5,1.4c1.7,0,2-1.5,2-2.9H83z"/>
		<path class="st0" d="M89.7,76.2L89.7,76.2c0.5-1,1.6-1.4,2.3-1.4c0.5,0,2.9,0.1,2.9,2.6v5.3h-1.4v-4.8c0-1.3-0.5-1.9-1.7-1.9
			c0,0-0.8,0-1.4,0.6c-0.2,0.2-0.6,0.5-0.6,2v4.2h-1.4v-7.6h1.4V76.2z"/>
		<path class="st0" d="M102.6,71.8h1.4v9.6c0,0.5,0,0.9,0.1,1.4h-1.5l0-1.1v-0.1h0C102,82.6,101,83,99.9,83c-2.3,0-3.2-2.1-3.2-4
			c0-2.1,1-4,3.4-4c1,0,1.9,0.4,2.4,1.3h0V71.8z M100.4,82c1.7,0,2.2-1.6,2.2-3.1c0-1.4-0.5-3-2.2-3c-1.7,0-2.2,1.6-2.2,3
			C98.3,80.3,98.8,82,100.4,82"/>
		<polygon class="st0" points="1,71.7 9.9,71.7 9.9,73.5 6.6,73.5 6.6,82.7 4.3,82.7 4.3,73.5 1,73.5 		"/>
		<path class="st0" d="M93.5,70.8c-2.6,0-4.7-2.1-4.7-4.7c0-2.6,2.1-4.7,4.7-4.7c2.6,0,4.7,2.1,4.7,4.7
			C98.3,68.7,96.2,70.8,93.5,70.8 M93.5,62.4c-2,0-3.7,1.7-3.7,3.7c0,2,1.7,3.7,3.7,3.7c2,0,3.7-1.7,3.7-3.7
			C97.2,64,95.6,62.4,93.5,62.4"/>
		<path class="st0" d="M92.7,66.2v2.2H92v-4.8h1.7c0.8,0,1.6,0.3,1.6,1.2c0,0.6-0.3,1-0.9,1.2v0c0.6,0.1,0.7,0.4,0.7,1
			c0.1,0.5,0.1,1,0.3,1.4h-0.7c-0.1-0.3-0.1-0.6-0.2-0.9c-0.1-0.4-0.1-0.8-0.3-1.1c-0.2-0.2-0.5-0.2-0.7-0.2H92.7z M92.7,65.6h1.1
			c0.7,0,0.9-0.4,0.9-0.7c0-0.4-0.2-0.7-0.9-0.7h-1.1V65.6z"/>
		<rect x="0" y="91.1" class="st1" width="105.1" height="1.6"/>
		<path class="st1" d="M86,58.1l-4.2-7.2c-4-0.7-8.2-1.1-12.4-1.1c-5.9,0-11.5,0.7-17,2.1c-5.4,1.4-11.1,2.2-16.9,2.2
			c-2.1,0-4.1-0.1-6.1-0.3l23-39.9L66.5,38c-4.8,0.2-9.4,0.9-13.9,2.1c-3.3,0.8-6.6,1.4-10.1,1.8l-4.2,7.3c4.9-0.2,9.7-0.9,14.3-2.1
			c5.4-1.4,11.1-2.1,17-2.1c3.1,0,6.2,0.2,9.2,0.6l-4.4-7.6L62.9,18.1L52.5,0.1L18.6,58.9c5.4,1.5,11.1,2.2,17,2.2
			c5.8,0,11.6-0.7,17-2.2c5.4-1.3,11.1-2.1,17-2.1c5.8,0,11.5,0.8,17,2.1L86,58.1z"/>
	</g>
</g>
</svg>
