<?xml version="1.0" encoding="utf-8"?>
<!-- Generator: Adobe Illustrator 22.0.0, SVG Export Plug-In . SVG Version: 6.00 Build 0)  -->
<svg version="1.1" id="图层_1" xmlns="http://www.w3.org/2000/svg" xmlns:xlink="http://www.w3.org/1999/xlink" x="0px" y="0px"
	 viewBox="0 0 27 20.5" style="enable-background:new 0 0 27 20.5;" xml:space="preserve">
<style type="text/css">
	.st0{fill:url(#SVGID_1_);}
	.st1{fill:url(#SVGID_2_);}
</style>
<g>
	<linearGradient id="SVGID_1_" gradientUnits="userSpaceOnUse" x1="0" y1="10.25" x2="27.0311" y2="10.25">
		<stop  offset="0" style="stop-color:#F5705A"/>
		<stop  offset="1" style="stop-color:#EF2D33"/>
	</linearGradient>
	<path class="st0" d="M0,0h27v20.4H0V0z M25.7,2.4c-7.7,5.5-15.2,10.9-23,16.5h23C25.7,18.9,25.7,2.4,25.7,2.4z M1.3,18.1
		C9,12.6,16.5,7.2,24.4,1.6h-23V18.1z"/>
	<linearGradient id="SVGID_2_" gradientUnits="userSpaceOnUse" x1="3.7864" y1="9.9328" x2="22.9742" y2="9.9328">
		<stop  offset="0" style="stop-color:#F5705A"/>
		<stop  offset="1" style="stop-color:#EF2D33"/>
	</linearGradient>
	<path class="st1" d="M3.8,4.8h8v1.6h-8V4.8z M17.7,13.5c-0.5,0-1,0.3-1.4,1.1l-0.7-0.5c0.6-1.1,1.4-1.6,2.1-1.6
		c1.4,0,2.2,1.6,3.2,1.6c0.5,0,0.9-0.3,1.4-1.1l0.7,0.5c-0.6,1.1-1.4,1.6-2.1,1.6C19.5,15.1,18.7,13.5,17.7,13.5L17.7,13.5z"/>
</g>
</svg>
