<?xml version="1.0" encoding="utf-8"?>
<!-- Generator: Adobe Illustrator 27.0.1, SVG Export Plug-In . SVG Version: 6.00 Build 0)  -->
<svg version="1.1" id="图层_1" xmlns="http://www.w3.org/2000/svg" xmlns:xlink="http://www.w3.org/1999/xlink" x="0px" y="0px"
	 viewBox="0 0 150 150" style="enable-background:new 0 0 150 150;" xml:space="preserve">
<style type="text/css">
	.st0{fill:#3A5A98;}
	.st1{fill:#CA2128;}
	.st2{fill:#2E80FF;}
	.st3{fill:url(#SVGID_1_);}
	.st4{fill:#FFFFFF;}
	.st5{fill:url(#SVGID_00000096771909324056323240000010598912301959751308_);}
	.st6{fill:#B90087;}
	.st7{fill:#FF0000;}
</style>
<path class="st0" d="M528,511.21c0,12.59-10.19,22.79-22.77,22.79H400.92c-12.58,0-22.77-10.21-22.77-22.79V406.79
	c0-12.59,10.2-22.79,22.77-22.79h104.31c12.58,0,22.77,10.2,22.77,22.79V511.21z"/>
<path class="st1" d="M325,509.21c0,12.59-10.19,22.79-22.77,22.79H197.92c-12.58,0-22.77-10.2-22.77-22.79V404.79
	c0-12.59,10.2-22.79,22.77-22.79h104.31c12.58,0,22.77,10.21,22.77,22.79V509.21z"/>
<path class="st2" d="M143,506.21c0,12.59-10.21,22.79-22.79,22.79H15.79C3.2,529-7,518.8-7,506.21V401.79
	C-7,389.21,3.2,379,15.79,379h104.41c12.59,0,22.79,10.21,22.79,22.79V506.21z"/>
<path d="M-41,508.21C-41,520.8-51.2,531-63.79,531h-104.41c-12.59,0-22.79-10.2-22.79-22.79V403.79c0-12.59,10.21-22.79,22.79-22.79
	h104.41C-51.2,381-41,391.2-41,403.79V508.21z"/>
<linearGradient id="SVGID_1_" gradientUnits="userSpaceOnUse" x1="-195.8693" y1="1205.5012" x2="-45.8693" y2="1205.5012" gradientTransform="matrix(6.123234e-17 -1 1 6.123234e-17 -574.5013 342.1307)">
	<stop  offset="0" style="stop-color:#F3CA5F"/>
	<stop  offset="0.2151" style="stop-color:#F88827"/>
	<stop  offset="0.4301" style="stop-color:#DC2D5C"/>
	<stop  offset="0.7097" style="stop-color:#A44882"/>
	<stop  offset="1" style="stop-color:#46469B"/>
</linearGradient>
<path class="st3" d="M683.21,388c12.59,0,22.79,10.21,22.79,22.79v104.41c0,12.59-10.2,22.79-22.79,22.79H578.79
	C566.2,538,556,527.8,556,515.21V410.79c0-12.59,10.2-22.79,22.79-22.79H683.21z"/>
<path class="st4" d="M493.2,471.51l2.43-18.81H477v-12.01c0-5.44,1.52-9.16,9.32-9.16l9.95-0.01v-16.82
	c-1.72-0.23-7.62-0.74-14.51-0.74c-14.36,0-24.18,8.77-24.18,24.86v13.87h-16.24v18.81h16.24v48.25H477v-48.25H493.2z"/>
<path class="st4" d="M241.17,401.27h-6.53l-4.4,16.93l-4.58-16.93h-6.8c1.36,3.99,2.78,8.01,4.14,12.01
	c2.07,6.01,3.36,10.54,3.95,13.64v17.46h6.46v-17.46L241.17,401.27z M258.43,433.97v-11.25c0-3.43-0.59-5.94-1.81-7.57
	c-1.61-2.19-3.87-3.29-6.79-3.29c-2.9,0-5.17,1.1-6.78,3.29c-1.24,1.63-1.82,4.13-1.82,7.57v11.25c0,3.41,0.58,5.94,1.82,7.56
	c1.61,2.19,3.88,3.29,6.78,3.29c2.92,0,5.18-1.1,6.79-3.29C257.84,439.92,258.43,437.39,258.43,433.97z M252.6,435.07
	c0,2.97-0.9,4.46-2.77,4.46c-1.88,0-2.78-1.49-2.78-4.46v-13.51c0-2.97,0.9-4.45,2.78-4.45c1.88,0,2.77,1.48,2.77,4.45V435.07z
	 M279.95,444.38v-32.12h-5.82v24.55c-1.29,1.82-2.52,2.73-3.68,2.73c-0.78,0-1.24-0.46-1.36-1.36c-0.07-0.19-0.07-0.9-0.07-2.27
	v-23.65h-5.8v25.4c0,2.26,0.2,3.8,0.52,4.78c0.58,1.63,1.87,2.39,3.75,2.39c2.12,0,4.33-1.29,6.65-3.95v3.51H279.95z"/>
<path class="st4" d="M298.81,483.36c0,7.43-0.01,15.32-1.67,22.53c-1.16,5.06-5.31,8.8-10.3,9.37c-11.82,1.32-23.78,1.32-35.69,1.32
	c-11.91,0.01-23.87,0-35.69-1.32c-4.99-0.56-9.14-4.3-10.3-9.37c-1.66-7.22-1.66-15.1-1.66-22.53c0-7.44,0.02-15.31,1.68-22.53
	c1.16-5.06,5.31-8.8,10.3-9.36c11.82-1.32,23.78-1.33,35.69-1.32c11.91,0,23.87,0,35.69,1.32c4.99,0.55,9.14,4.29,10.3,9.36
	C298.82,468.05,298.81,475.93,298.81,483.36z"/>
<path class="st1" d="M230.68,467.33v-6.01H210.6v6.01h6.78v36.65h6.41v-36.65H230.68z M242.32,503.98v-3.46
	c-2.29,2.62-4.46,3.9-6.58,3.9c-1.86,0-3.14-0.75-3.71-2.36c-0.32-0.97-0.51-2.48-0.51-4.73v-25.14h5.76v23.4
	c0,1.35,0,2.05,0.05,2.24c0.14,0.89,0.58,1.35,1.35,1.35c1.15,0,2.37-0.89,3.64-2.69v-24.3h5.77v31.79H242.32z M264.21,494.9
	c0,2.87-0.85,4.29-2.51,4.29c-0.95,0-1.91-0.45-2.87-1.41v-19.38c0.96-0.95,1.92-1.4,2.87-1.4c1.66,0,2.51,1.47,2.51,4.34V494.9z
	 M269.97,494.44v-12.66c0-3.01-0.2-5.11-0.58-6.39c-0.77-2.38-2.31-3.59-4.61-3.59c-2.12,0-4.09,1.16-5.95,3.45v-13.93h-5.76v42.66
	h5.76v-3.08c1.92,2.38,3.9,3.52,5.95,3.52c2.3,0,3.84-1.21,4.61-3.57C269.77,499.5,269.97,497.38,269.97,494.44z M285.95,484.34
	h-5.76v-2.94c0-2.94,0.96-4.41,2.89-4.41c1.9,0,2.87,1.47,2.87,4.41V484.34z M291.71,493.81v-0.84h-5.88c0,2.31-0.07,3.58-0.12,3.9
	c-0.33,1.54-1.16,2.31-2.58,2.31c-1.98,0-2.94-1.46-2.94-4.41v-5.63h11.52v-6.58c0-3.4-0.58-5.89-1.79-7.49
	c-1.61-2.18-3.9-3.26-6.79-3.26c-2.94,0-5.24,1.08-6.9,3.26c-1.23,1.61-1.78,4.09-1.78,7.49v11.13c0,3.37,0.62,5.88,1.85,7.47
	c1.66,2.17,3.95,3.26,6.97,3.26c3.01,0,5.37-1.14,6.97-3.45c0.7-1.02,1.15-2.18,1.34-3.45
	C291.64,496.94,291.71,495.66,291.71,493.81z"/>
<g>
	<path class="st4" d="M14.17,500.5v-70H35v70H14.17z"/>
	<path class="st4" d="M46.09,500.5v-70H71.4v10.24c3.26-4.08,6.9-7.12,10.91-9.11s8.55-2.99,13.62-2.99c4.25,0,8.05,0.71,11.4,2.12
		c3.35,1.42,6.18,3.52,8.5,6.31c2.1,2.53,3.6,5.61,4.48,9.24c0.88,3.63,1.32,9.56,1.32,17.81v36.38H93.81v-36.25
		c0-5.32-0.71-8.98-2.12-10.98c-1.42-2-3.87-2.99-7.34-2.99c-3.52,0-6.14,1.16-7.86,3.48c-1.72,2.32-2.58,5.86-2.58,10.63v36.12
		H46.09z"/>
</g>
<circle class="st4" cx="24.5" cy="413.5" r="11.5"/>
<path d="M-86.8,416"/>
<polygon class="st4" points="-77.04,415 -163.32,503 -154.14,503 -69.58,415 "/>
<path class="st4" d="M-166,415h23.24L-67,503c-7.75,0-15.5,0-23.24,0C-115.5,473.67-140.75,444.33-166,415z"/>
<path d="M-157.39,420h13.73l44.77,52c-4.58,0-9.16,0-13.73,0C-127.55,454.67-142.47,437.33-157.39,420z"/>
<path d="M-135.01,446h13.73l44.77,52c-4.58,0-9.16,0-13.73,0C-105.17,480.67-120.09,463.33-135.01,446z"/>
<g>
	<g>
		<path class="st4" d="M658.24,512.48h-52.59c-11.99,0-21.76-9.76-21.76-21.76v-52.58c0-12,9.77-21.77,21.76-21.77h52.59
			c11.99,0,21.76,9.76,21.76,21.77v52.58C680,502.72,670.23,512.48,658.24,512.48z"/>
		<path class="st4" d="M605.65,425.94c-6.72,0-12.19,5.47-12.19,12.2v52.58c0,6.73,5.47,12.2,12.19,12.2h52.59
			c6.72,0,12.19-5.47,12.19-12.2v-52.58c0-6.72-5.47-12.2-12.19-12.2H605.65z"/>
	</g>
</g>
<g>
	
		<linearGradient id="SVGID_00000001625132339427115480000016384019102722784128_" gradientUnits="userSpaceOnUse" x1="-148.3478" y1="1208.4337" x2="-87.2154" y2="1208.4337" gradientTransform="matrix(6.123234e-17 -1 1 6.123234e-17 -576.7622 346.6522)">
		<stop  offset="0" style="stop-color:#F3CA5F"/>
		<stop  offset="0.2151" style="stop-color:#F88827"/>
		<stop  offset="0.4301" style="stop-color:#DC2D5C"/>
		<stop  offset="0.7097" style="stop-color:#A44882"/>
		<stop  offset="1" style="stop-color:#46469B"/>
	</linearGradient>
	<path style="fill:url(#SVGID_00000001625132339427115480000016384019102722784128_);" d="M601.11,464.44
		c0,16.86,13.71,30.56,30.57,30.56c16.86,0,30.57-13.71,30.57-30.56c0-16.85-13.71-30.57-30.57-30.57
		C614.81,433.87,601.11,447.58,601.11,464.44z M650.47,464.44c0,10.37-8.43,18.8-18.8,18.8c-10.36,0-18.8-8.43-18.8-18.8
		c0-10.37,8.44-18.8,18.8-18.8C642.04,445.64,650.47,454.06,650.47,464.44z"/>
</g>
<path class="st6" d="M657.43,433.07c0,3.49,2.82,6.3,6.31,6.3c3.47,0,6.3-2.81,6.3-6.3c0-3.48-2.83-6.31-6.3-6.31
	C660.25,426.76,657.43,429.59,657.43,433.07z"/>
<g>
	<g>
		<path class="st7" d="M270.26,51.57l50.55-27.28c3.75-2.02,8.26-2.02,12.01,0l50.55,27.28c4.09,2.21,6.63,6.48,6.63,11.12v64.17
			c0,6.98-5.66,12.64-12.64,12.64h-101.1c-6.98,0-12.64-5.66-12.64-12.64V62.69C263.62,58.05,266.17,53.78,270.26,51.57
			L270.26,51.57z M276.26,62.69v64.17h101.1V62.69l-50.55-27.28L276.26,62.69z M276.26,62.69"/>
		<path class="st7" d="M326,111L326,111c-4.95,0-9-4.05-9-9V78c0-4.95,4.05-9,9-9l0,0c4.95,0,9,4.05,9,9v24
			C335,106.95,330.95,111,326,111z"/>
	</g>
</g>
<g>
	<g>
		<path class="st7" d="M18.26,51.57l50.55-27.28c3.75-2.02,8.26-2.02,12.01,0l50.55,27.28c4.09,2.21,6.63,6.48,6.63,11.12v64.17
			c0,6.98-5.66,12.64-12.64,12.64H24.26c-6.98,0-12.64-5.66-12.64-12.64V62.69C11.62,58.05,14.17,53.78,18.26,51.57L18.26,51.57z
			 M24.26,62.69v64.17h101.1V62.69L74.81,35.41L24.26,62.69z M24.26,62.69"/>
		<path class="st7" d="M74,111L74,111c-4.95,0-9-4.05-9-9V78c0-4.95,4.05-9,9-9h0c4.95,0,9,4.05,9,9v24C83,106.95,78.95,111,74,111z
			"/>
	</g>
</g>
<g>
	<g>
		<path class="st7" d="M380.24,164.71c-0.08,45.43-0.16,90.86-0.24,136.29c-44-0.33-88-0.67-132-1c0.12-25.24,0.24-50.49,0.36-75.73
			l55.3-13.83v-45.73c0-2.26,0.9-4.42,2.49-6.02c1.6-1.59,3.76-2.49,6.02-2.49h59.56C376.43,156.2,380.24,160.01,380.24,164.71z
			 M261.12,288.08h42.54v-64.48l-42.54,10.63V288.08z M316.43,288.08h51.05V168.96h-51.05V288.08z M316.43,288.08"/>
	</g>
</g>
<path class="st7" d="M342,253L342,253c-4.4,0-8-3.6-8-8v-37c0-4.4,3.6-8,8-8l0,0c4.4,0,8,3.6,8,8v37C350,249.4,346.4,253,342,253z"
	/>
<path class="st7" d="M282,276L282,276c-4.4,0-8-3.6-8-8v-14c0-4.4,3.6-8,8-8l0,0c4.4,0,8,3.6,8,8v14C290,272.4,286.4,276,282,276z"
	/>
<g>
	<path class="st7" d="M77,41c-1.56,4.13-3.78,7.82-6.22,11.42c0,0-0.67-3.41-0.67-3.41c3.12,1.45,6.13,3.09,9.06,4.89
		c0,0,2.82,1.72,2.82,1.72c-2.55,2.33-5.24,4.78-8.04,6.82c-2.05,1.5-4.14,2.91-6.45,4.05c2.29-4.5,5.45-8.47,8.8-12.2
		c0,0,0.53,3.8,0.53,3.8c-3.91-1.91-7.7-4.27-11.35-6.66C69,47.62,72.6,43.88,77,41L77,41z"/>
</g>
</svg>
