<svg width="32" height="34" viewBox="0 0 32 34" fill="none" xmlns="http://www.w3.org/2000/svg">
<path d="M24.6667 8H20.6667C19.8667 8 19.3333 8.51429 19.3333 9.28571C19.3333 10.0571 19.8667 10.5714 20.6667 10.5714H24.6667C25.0667 10.5714 25.3333 10.8286 25.3333 11.2143V22.7857C25.3333 23.1714 25.0667 23.4286 24.6667 23.4286H20.6667C19.8667 23.4286 19.3333 23.9429 19.3333 24.7143C19.3333 25.4857 19.8667 26 20.6667 26H24.6667C26.5333 26 28 24.5857 28 22.7857V11.2143C28 9.41429 26.5333 8 24.6667 8ZM7.33333 23.4286H3.33333C2.93333 23.4286 2.66667 23.1714 2.66667 22.7857V11.2143C2.66667 10.8286 2.93333 10.5714 3.33333 10.5714H7.33333C8.13333 10.5714 8.66667 10.0571 8.66667 9.28571C8.66667 8.51429 8.13333 8 7.33333 8H3.33333C1.46667 8 0 9.41429 0 11.2143V22.7857C0 24.5857 1.46667 26 3.33333 26H7.33333C8.13333 26 8.66667 25.4857 8.66667 24.7143C8.66667 23.9429 8.13333 23.4286 7.33333 23.4286ZM30.6667 13.1429H29.3333V20.8571H30.6667C31.4667 20.8571 32 20.3429 32 19.5714V14.4286C32 13.6571 31.4667 13.1429 30.6667 13.1429Z" fill="url(#paint0_linear_85_1750)"/>
<path d="M18.861 16.3423C18.5831 15.956 18.1662 15.6984 17.6103 15.6984H11.4957L14.692 9.77504C14.9699 9.13119 14.692 8.35857 14.1361 8.10103C13.4413 7.84349 12.6075 8.10103 12.3295 8.61611L8.16047 16.3423C7.88253 16.7286 8.0215 17.2437 8.16047 17.63C8.29944 18.0163 8.85531 18.2738 9.27221 18.2738H15.3868L12.1905 24.1972C11.9126 24.8411 12.1905 25.6137 12.7464 25.8712C12.8854 26 13.1633 26 13.3023 26C13.8582 26 14.2751 25.7425 14.553 25.2274L18.7221 17.5012C19.139 17.1149 19 16.7286 18.861 16.3423V16.3423Z" fill="url(#paint1_linear_85_1750)"/>
<defs>
<linearGradient id="paint0_linear_85_1750" x1="-0.037057" y1="17.006" x2="31.9968" y2="17.006" gradientUnits="userSpaceOnUse">
<stop stop-color="#FF7759"/>
<stop offset="1" stop-color="#E60012"/>
</linearGradient>
<linearGradient id="paint1_linear_85_1750" x1="7.98726" y1="17.006" x2="18.9989" y2="17.006" gradientUnits="userSpaceOnUse">
<stop stop-color="#FF7759"/>
<stop offset="1" stop-color="#E60012"/>
</linearGradient>
</defs>
</svg>
