<?xml version="1.0" encoding="utf-8"?>
<!-- Generator: Adobe Illustrator 22.0.0, SVG Export Plug-In . SVG Version: 6.00 Build 0)  -->
<svg version="1.1" id="图层_1" xmlns="http://www.w3.org/2000/svg" xmlns:xlink="http://www.w3.org/1999/xlink" x="0px" y="0px"
	 viewBox="0 0 15.3 19" style="enable-background:new 0 0 15.3 19;" xml:space="preserve">
<style type="text/css">
	.st0{fill:url(#SVGID_1_);}
</style>
<linearGradient id="SVGID_1_" gradientUnits="userSpaceOnUse" x1="2.511960e-02" y1="9.5" x2="15.2249" y2="9.5">
	<stop  offset="0" style="stop-color:#fff"/>
	<stop  offset="1" style="stop-color:#fff"/>
</linearGradient>
<path class="st0" d="M7.6,0C3.4,0,0,3.4,0,7.7c0,1.9,0.7,3.7,1.9,5.1l4.5,5.6C6.7,18.8,7.1,19,7.6,19c0.5,0,0.9-0.2,1.2-0.6l4.4-5.6
	c1.3-1.4,2-3.2,2-5.1C15.2,3.4,11.8,0,7.6,0z M10.3,10.1c-0.7,0.7-1.7,1.1-2.7,1.1c-2.1,0-3.8-1.7-3.8-3.8c0-1,0.4-2,1.1-2.7
	s1.7-1.1,2.7-1.1c2.1,0,3.8,1.7,3.8,3.8C11.5,8.4,11.1,9.4,10.3,10.1L10.3,10.1z M7.7,5.1C7,5.1,6.5,5.3,6,5.8
	c-0.4,0.4-0.7,1-0.7,1.6c0,1.3,1,2.3,2.3,2.3c0.6,0,1.2-0.2,1.6-0.7c0.4-0.4,0.7-1,0.7-1.6C10,6.1,8.9,5.1,7.7,5.1z"/>
</svg>
