<?xml version="1.0" encoding="utf-8"?>
<!-- Generator: Adobe Illustrator 22.0.0, SVG Export Plug-In . SVG Version: 6.00 Build 0)  -->
<svg version="1.1" id="图层_1" xmlns="http://www.w3.org/2000/svg" xmlns:xlink="http://www.w3.org/1999/xlink" x="0px" y="0px"
	 viewBox="0 0 14.9 13" style="enable-background:new 0 0 14.9 13;" xml:space="preserve">
<style type="text/css">
	.st0{fill:url(#SVGID_1_);}
</style>
<g>
	<linearGradient id="SVGID_1_" gradientUnits="userSpaceOnUse" x1="0" y1="6.5" x2="14.855" y2="6.5">
		<stop  offset="0" style="stop-color:#fff"/>
		<stop  offset="1" style="stop-color:#fff"/>
	</linearGradient>
	<path class="st0" d="M10.2,4.6c0.2,0.2,0.4,0.5,0.7,0.8c0.2,0.2,0.4,0.5,0.7,0.8c0.2,0.3,0.5,0.6,0.7,0.8c0.3,0.4,0.6,0.7,0.8,1
		c0.2,0.3,0.4,0.6,0.5,0.8c0.1,0.2,0.2,0.5,0.3,0.7c0,0.2,0.1,0.4,0.1,0.6v1c0,0.3,0,0.6-0.1,0.8c-0.1,0.2-0.2,0.4-0.4,0.6
		c-0.2,0.2-0.4,0.3-0.6,0.4C12.5,13,12.3,13,12.1,13H2.9c-0.3,0-0.5,0-0.8-0.1c-0.2-0.1-0.5-0.2-0.6-0.4c-0.2-0.2-0.3-0.4-0.4-0.6
		c-0.1-0.2-0.2-0.5-0.2-0.8V10c0-0.2,0-0.5,0.1-0.7s0.1-0.4,0.2-0.7c0.1-0.2,0.3-0.5,0.5-0.8S2.2,7.3,2.5,7C2.8,6.7,3,6.4,3.3,6.1
		C3.6,5.8,3.8,5.6,4,5.4c0.3-0.3,0.5-0.5,0.7-0.8C4.8,4.6,10.2,4.6,10.2,4.6z M7.4,10.2c0.3,0,0.5,0,0.7-0.1C8.4,10,8.6,9.8,8.7,9.7
		C8.9,9.5,9,9.3,9.1,9.1c0.1-0.2,0.1-0.5,0.1-0.7c0-0.3,0-0.5-0.1-0.7C9,7.4,8.9,7.2,8.7,7C8.6,6.8,8.4,6.7,8.1,6.6
		C7.9,6.5,7.7,6.5,7.4,6.5c-0.3,0-0.5,0-0.7,0.1C6.5,6.7,6.3,6.8,6.1,7C5.9,7.2,5.8,7.4,5.7,7.6C5.6,7.8,5.5,8.1,5.5,8.3
		c0,0.3,0,0.5,0.1,0.7c0.1,0.2,0.2,0.4,0.4,0.6c0.2,0.2,0.4,0.3,0.6,0.4S7.2,10.2,7.4,10.2z M14.9,2.8v0.9c0,0.3-0.1,0.5-0.3,0.7
		c-0.2,0.2-0.4,0.3-0.7,0.3h-1.9c-0.3,0-0.5-0.1-0.7-0.3c-0.2-0.2-0.3-0.4-0.3-0.7V2.8H3.7v0.9c0,0.3-0.1,0.5-0.3,0.7
		C3.3,4.6,3,4.6,2.8,4.6H0.9c-0.3,0-0.5-0.1-0.7-0.3C0.1,4.2,0,4,0,3.7v-1c0-0.1,0-0.2,0.1-0.3s0.1-0.2,0.2-0.2
		C0.4,2.2,0.5,2.1,0.6,2C0.7,2,0.8,1.9,0.9,1.9C1,1.8,1.3,1.7,1.7,1.5S2.5,1,3.1,0.8s1.2-0.4,2-0.6S6.6,0,7.4,0
		C8.4,0,9.2,0.1,10,0.3s1.4,0.4,1.9,0.6s1,0.4,1.3,0.6c0.3,0.2,0.6,0.3,0.7,0.4C14,1.9,14.2,2,14.3,2c0.1,0.1,0.2,0.1,0.3,0.2
		s0.2,0.1,0.2,0.2C14.8,2.5,14.9,2.6,14.9,2.8C14.9,2.8,14.9,2.8,14.9,2.8z"/>
</g>
</svg>
