<?xml version="1.0" encoding="utf-8"?>
<!-- Generator: Adobe Illustrator 22.0.0, SVG Export Plug-In . SVG Version: 6.00 Build 0)  -->
<svg version="1.1" id="图层_1" xmlns="http://www.w3.org/2000/svg" xmlns:xlink="http://www.w3.org/1999/xlink" x="0px" y="0px"
	 viewBox="0 0 10 10" style="enable-background:new 0 0 10 10;" xml:space="preserve">
<style type="text/css">
	.st0{fill:#666666;}
</style>
<path class="st0" d="M5,1.9C4.8,1.9,4.6,2,4.6,2.3v2.3H2.3C2,4.6,1.9,4.8,1.9,5S2,5.4,2.3,5.4h2.3v2.3C4.6,8,4.8,8.1,5,8.1
	S5.4,8,5.4,7.7V5.4h2.3C8,5.4,8.1,5.2,8.1,5S8,4.6,7.7,4.6H5.4V2.3C5.4,2,5.2,1.9,5,1.9z"/>
<text transform="matrix(1 0 0 1 100 100)" style="font-family:'AdobeSongStd-Light-GBpc-EUC-H'; font-size:12px;">he_d1p1nli</text>
</svg>
