<svg width="16" height="16" viewBox="0 0 16 16" fill="none" xmlns="http://www.w3.org/2000/svg">
<path d="M7.71116 8.72089C7.75749 8.76756 7.81261 8.8046 7.87332 8.82988C7.93403 8.85515 7.99914 8.86816 8.06491 8.86816C8.13067 8.86816 8.19579 8.85515 8.2565 8.82988C8.31721 8.8046 8.37232 8.76756 8.41866 8.72089L13.2367 3.90289C13.2831 3.85647 13.3199 3.80136 13.345 3.74071C13.3702 3.68005 13.3831 3.61504 13.3831 3.54939C13.3831 3.48374 13.3702 3.41873 13.345 3.35808C13.3199 3.29743 13.2831 3.24232 13.2367 3.19589C13.1902 3.14947 13.1351 3.11265 13.0745 3.08752C13.0138 3.0624 12.9488 3.04947 12.8832 3.04947C12.8175 3.04947 12.7525 3.0624 12.6918 3.08752C12.6312 3.11265 12.5761 3.14947 12.5297 3.19589L8.06516 7.66039L3.46866 3.06439C3.3749 2.97064 3.24775 2.91797 3.11516 2.91797C2.98257 2.91797 2.85541 2.97064 2.76166 3.06439C2.6679 3.15815 2.61523 3.2853 2.61523 3.41789C2.61523 3.48354 2.62817 3.54855 2.65329 3.60921C2.67841 3.66986 2.71524 3.72497 2.76166 3.77139L7.71116 8.72089Z" fill="#999999"/>
<path d="M12.5296 7.19663L8.06515 11.6611L3.46915 7.06513C3.37539 6.97137 3.24824 6.9187 3.11565 6.9187C2.98306 6.9187 2.8559 6.97137 2.76215 7.06513C2.66839 7.15888 2.61572 7.28604 2.61572 7.41863C2.61572 7.55121 2.66839 7.67837 2.76215 7.77213L7.71165 12.7216C7.75798 12.7683 7.81309 12.8053 7.87381 12.8306C7.93452 12.8559 7.99963 12.8689 8.0654 12.8689C8.13116 12.8689 8.19627 12.8559 8.25699 12.8306C8.3177 12.8053 8.37281 12.7683 8.41915 12.7216L13.2371 7.90363C13.2836 7.85717 13.3204 7.80203 13.3455 7.74134C13.3706 7.68066 13.3835 7.61562 13.3835 7.54995C13.3835 7.48427 13.3705 7.41925 13.3454 7.35858C13.3202 7.29792 13.2834 7.2428 13.2369 7.19638C13.1904 7.14995 13.1353 7.11314 13.0746 7.08802C13.0139 7.06291 12.9489 7.05 12.8832 7.05002C12.8175 7.05005 12.7525 7.06301 12.6919 7.08816C12.6312 7.11331 12.5761 7.15017 12.5296 7.19663Z" fill="#999999"/>
</svg>
