<svg width="22" height="22" viewBox="0 0 22 22" fill="none" xmlns="http://www.w3.org/2000/svg">
<path d="M11.0002 2.03519C12.7683 2.04334 14.4943 2.5749 15.9606 3.56281C17.4268 4.55072 18.5677 5.95073 19.2393 7.58626C19.9109 9.22179 20.0831 11.0196 19.7342 12.7528C19.3853 14.4861 18.5309 16.0772 17.2788 17.3255C16.0266 18.5738 14.4329 19.4233 12.6986 19.7669C10.9642 20.1105 9.167 19.9328 7.53354 19.2563C5.90007 18.5797 4.50356 17.4345 3.52014 15.9652C2.53673 14.4959 2.01046 12.7682 2.00773 11.0002C2.00772 9.82058 2.24052 8.65255 2.69277 7.56307C3.14502 6.47359 3.80784 5.48408 4.64323 4.65124C5.47862 3.8184 6.47017 3.15862 7.56103 2.7097C8.65189 2.26079 9.82062 2.03157 11.0002 2.03519V2.03519ZM11.0002 0.660193C8.95731 0.654754 6.95869 1.25541 5.25723 2.38615C3.55578 3.51689 2.22795 5.12691 1.44176 7.0125C0.655574 8.89809 0.446352 10.9745 0.840568 12.979C1.23478 14.9836 2.21472 16.8261 3.6564 18.2736C5.09807 19.721 6.93669 20.7083 8.93963 21.1105C10.9426 21.5128 13.0198 21.3118 14.9085 20.5332C16.7972 19.7545 18.4125 18.4332 19.5501 16.7362C20.6876 15.0393 21.2962 13.0431 21.299 11.0002C21.299 8.26499 20.2153 5.6412 18.2851 3.70326C16.3548 1.76531 13.7354 0.671105 11.0002 0.660193V0.660193Z" fill="#13212E"/>
<path d="M11.0002 2.03516C12.5127 2.03516 14.6439 5.50016 14.6439 11.0002C14.6439 16.5002 12.5127 19.9377 11.0002 19.9377C9.4877 19.9377 7.35645 16.5002 7.35645 11.0002C7.35645 5.50016 9.47395 2.03516 11.0002 2.03516ZM11.0002 0.660156C8.2502 0.660156 5.98145 5.28016 5.98145 11.0002C5.98145 16.7202 8.2502 21.3127 11.0002 21.3127C13.7502 21.3127 16.0189 16.6927 16.0189 11.0002C16.0189 5.30766 13.7502 0.660156 11.0002 0.660156Z" fill="#13212E"/>
<path d="M18.3973 4.20703H17.2148C15.2682 5.11297 13.147 5.58226 10.9998 5.58203C8.85699 5.58337 6.74002 5.11398 4.79857 4.20703H3.64357L2.74982 4.71578C5.25002 6.18695 8.09891 6.9609 10.9998 6.95703C13.8989 6.96107 16.7467 6.19217 19.2498 4.72953L18.3973 4.20703ZM18.3973 17.7783H17.2148C15.2761 16.8786 13.1646 16.4125 11.0273 16.4125C8.89006 16.4125 6.7785 16.8786 4.83982 17.7783H3.65732L2.74982 17.2695C5.23813 15.8067 8.07214 15.0354 10.9586 15.0354C13.845 15.0354 16.679 15.8067 19.1673 17.2695L18.3973 17.7783ZM0.976074 10.312H20.5836V11.687H0.976074V10.312Z" fill="#13212E"/>
<path d="M11.6875 0.907227V20.5147H10.3125V0.907227H11.6875Z" fill="#13212E"/>
</svg>
