<svg width="28" height="28" viewBox="0 0 28 28" fill="none" xmlns="http://www.w3.org/2000/svg">
<path d="M11.7684 12.7991C7.92565 12.9793 4.81343 15.0407 4.81343 17.6026C4.81343 20.1644 7.92565 22.0958 11.7684 21.9157C15.6111 21.7355 18.7334 19.3338 18.7334 16.762C18.7334 14.2101 15.6211 12.619 11.7684 12.7991ZM14.3903 19.2638C13.2094 20.7848 10.8878 21.5254 8.61614 20.3045C7.54538 19.7141 7.58541 18.5633 7.58541 18.5633C7.58541 18.5633 7.13509 14.9407 11.0078 14.4903C14.8806 14.04 15.5711 17.7427 14.3903 19.2638ZM11.7984 16.832C11.5482 17.0122 11.4982 17.3524 11.6383 17.5726C11.7684 17.7927 12.0686 17.8127 12.3088 17.6326C12.5489 17.4425 12.639 17.1122 12.5089 16.8921C12.3788 16.6819 12.0886 16.6219 11.7984 16.832ZM9.96711 17.3324C9.24659 17.4024 8.72622 18.0329 8.72622 18.6433C8.72622 19.2437 9.30663 19.664 10.0271 19.574C10.7477 19.4939 11.3281 18.9335 11.3281 18.3331C11.3381 17.7327 10.7977 17.2523 9.96711 17.3324ZM23.7469 0H4.26304C1.91136 0 0 1.91137 0 4.26305V23.737C0 26.0886 1.91136 28 4.26304 28H23.7369C26.0886 28 28 26.0886 28 23.737V4.26305C28.01 1.91137 26.0986 0 23.7469 0ZM22.1658 18.4732C20.5847 21.8356 15.3509 23.4768 11.4782 23.1766C7.79556 22.8863 3.06218 21.6655 2.57183 17.2123C2.57183 17.2123 2.31165 15.1909 4.27305 12.589C4.27305 12.589 7.08505 8.65618 10.3574 7.53538C13.6397 6.42459 14.02 8.30593 14.02 9.42673C13.8499 10.3774 13.5196 10.9278 14.7505 10.5475C14.7505 10.5475 17.9728 9.05647 19.3038 10.3774C20.3745 11.4482 19.4839 12.9192 19.4839 12.9192C19.4839 12.9192 19.0436 13.4096 19.9542 13.5897C20.8749 13.7698 23.7569 15.1008 22.1658 18.4732ZM18.9935 9.16655C18.6433 9.16655 18.3631 8.88635 18.3631 8.5361C18.3631 8.18585 18.6433 7.89564 18.9935 7.89564C18.9935 7.89564 22.9464 7.16512 22.476 11.4081C22.476 11.4282 22.476 11.4482 22.466 11.4782C22.426 11.7784 22.1558 12.0086 21.8456 12.0086C21.4953 12.0086 21.2051 11.7284 21.2051 11.3781C21.2051 11.3781 21.8256 8.5461 18.9935 9.16655ZM25.6683 12.569C25.5582 13.2895 25.198 13.3495 24.7777 13.3495C24.2673 13.3495 23.857 13.0293 23.857 12.5189C23.857 12.0786 24.0371 11.6283 24.0371 11.6283C24.0872 11.4382 24.5175 10.2873 23.7569 8.56612C22.3559 6.20443 19.5239 6.17441 19.1837 6.3045C18.8434 6.4346 18.3531 6.50465 18.3531 6.50465C17.8427 6.50465 17.4324 6.08435 17.4324 5.58399C17.4324 5.16369 17.7126 4.80343 18.1029 4.69335C18.1029 4.69335 18.1129 4.68335 18.1229 4.67334C18.1529 4.66333 18.183 4.64332 18.213 4.63331C18.6033 4.55325 20.0143 4.28306 21.3752 4.60329C23.827 5.1737 27.1794 7.53538 25.6683 12.569Z" fill="#F56467"/>
</svg>
