<?xml version="1.0" encoding="utf-8"?>
<!-- Generator: Adobe Illustrator 27.0.1, SVG Export Plug-In . SVG Version: 6.00 Build 0)  -->
<svg version="1.1" id="图层_1" xmlns="http://www.w3.org/2000/svg" xmlns:xlink="http://www.w3.org/1999/xlink" x="0px" y="0px"
	 viewBox="0 0 150 150" style="enable-background:new 0 0 150 150;" xml:space="preserve">
<style type="text/css">
	.st0{opacity:0.9;fill:#3A5A98;}
	.st1{fill:#CA2128;}
	.st2{opacity:0.8;fill:#2E80FF;}
	.st3{opacity:0.7;}
	.st4{fill:url(#SVGID_1_);}
	.st5{fill:#FFFFFF;}
	.st6{fill:url(#SVGID_00000150094026049574346050000002125596971506662327_);}
	.st7{fill:#B90087;}
</style>
<path class="st0" d="M-220.5,509.71c0,12.59-10.23,22.79-22.85,22.79H-348c-12.62,0-22.85-10.21-22.85-22.79V405.29
	c0-12.59,10.23-22.79,22.85-22.79h104.66c12.62,0,22.85,10.2,22.85,22.79V509.71z"/>
<path class="st1" d="M150,127.21c0,12.59-10.19,22.79-22.77,22.79H22.92c-12.58,0-22.77-10.2-22.77-22.79V22.79
	C0.15,10.21,10.34,0,22.92,0h104.31C139.81,0,150,10.21,150,22.79V127.21z"/>
<path class="st2" d="M146.61,515.53c0,12.59-10.2,22.79-22.79,22.79H19.42c-12.59,0-22.79-10.2-22.79-22.79v-104.4
	c0-12.59,10.2-22.79,22.79-22.79h104.4c12.59,0,22.79,10.2,22.79,22.79V515.53z"/>
<path class="st3" d="M343.63,518.52c0,12.59-10.2,22.79-22.79,22.79h-104.4c-12.59,0-22.79-10.2-22.79-22.79v-104.4
	c0-12.59,10.2-22.79,22.79-22.79h104.4c12.59,0,22.79,10.2,22.79,22.79V518.52z"/>
<linearGradient id="SVGID_1_" gradientUnits="userSpaceOnUse" x1="-191.3705" y1="458.316" x2="-41" y2="458.316" gradientTransform="matrix(6.123234e-17 -1 1 6.123234e-17 -574.5013 342.1307)">
	<stop  offset="0" style="stop-color:#F3CA5F"/>
	<stop  offset="0.2151" style="stop-color:#F88827"/>
	<stop  offset="0.4301" style="stop-color:#DC2D5C"/>
	<stop  offset="0.7097" style="stop-color:#A44882"/>
	<stop  offset="1" style="stop-color:#46469B"/>
</linearGradient>
<path class="st4" d="M-63.99,383.13c12.59,0,22.79,10.23,22.79,22.85v104.67c0,12.62-10.2,22.85-22.79,22.85h-104.4
	c-12.59,0-22.79-10.23-22.79-22.85V405.98c0-12.62,10.2-22.85,22.79-22.85H-63.99z"/>
<path class="st5" d="M-255.8,469.51l2.43-18.81H-272v-12.01c0-5.44,1.52-9.16,9.32-9.16l9.95-0.01v-16.82
	c-1.72-0.23-7.62-0.74-14.51-0.74c-14.36,0-24.18,8.77-24.18,24.86v13.87h-16.24v18.81h16.24v48.25H-272v-48.25H-255.8z"/>
<path class="st5" d="M66.17,19.27h-6.53l-4.4,16.93l-4.58-16.93h-6.8c1.36,3.99,2.78,8.01,4.14,12.01
	c2.07,6.01,3.36,10.54,3.95,13.64v17.46h6.46V44.92L66.17,19.27z M83.43,51.97V40.72c0-3.43-0.59-5.94-1.81-7.57
	c-1.61-2.19-3.87-3.29-6.79-3.29c-2.9,0-5.17,1.1-6.78,3.29c-1.24,1.63-1.82,4.13-1.82,7.57v11.25c0,3.42,0.58,5.94,1.82,7.56
	c1.61,2.19,3.88,3.29,6.78,3.29c2.92,0,5.18-1.1,6.79-3.29C82.84,57.92,83.43,55.39,83.43,51.97z M77.6,53.07
	c0,2.97-0.9,4.46-2.77,4.46c-1.88,0-2.78-1.49-2.78-4.46V39.56c0-2.97,0.9-4.45,2.78-4.45c1.88,0,2.77,1.48,2.77,4.45V53.07z
	 M104.95,62.38V30.25h-5.82V54.8c-1.29,1.82-2.52,2.73-3.68,2.73c-0.78,0-1.24-0.46-1.36-1.36c-0.07-0.19-0.07-0.9-0.07-2.27V30.25
	h-5.8v25.4c0,2.26,0.2,3.8,0.52,4.78c0.58,1.63,1.87,2.39,3.75,2.39c2.12,0,4.33-1.29,6.65-3.95v3.51H104.95z"/>
<path class="st5" d="M123.81,101.36c0,7.43-0.01,15.32-1.67,22.53c-1.16,5.06-5.31,8.8-10.3,9.37c-11.82,1.32-23.78,1.32-35.69,1.32
	c-11.91,0.01-23.87,0-35.69-1.32c-4.99-0.56-9.14-4.3-10.3-9.37c-1.66-7.22-1.66-15.1-1.66-22.53c0-7.44,0.02-15.31,1.68-22.53
	c1.16-5.06,5.31-8.8,10.3-9.36c11.82-1.32,23.78-1.33,35.69-1.32c11.91,0,23.87,0,35.69,1.32c4.99,0.55,9.14,4.29,10.3,9.36
	C123.82,86.05,123.81,93.93,123.81,101.36z"/>
<path class="st1" d="M55.68,85.33v-6.01H35.6v6.01h6.78v36.65h6.41V85.33H55.68z M67.32,121.98v-3.46c-2.29,2.62-4.46,3.9-6.58,3.9
	c-1.86,0-3.14-0.75-3.71-2.36c-0.32-0.97-0.51-2.48-0.51-4.73V90.19h5.76v23.4c0,1.35,0,2.05,0.05,2.24
	c0.14,0.89,0.58,1.35,1.35,1.35c1.15,0,2.37-0.89,3.64-2.69v-24.3h5.77v31.79H67.32z M89.21,112.9c0,2.87-0.85,4.29-2.51,4.29
	c-0.95,0-1.91-0.45-2.87-1.41V96.39c0.96-0.95,1.92-1.4,2.87-1.4c1.66,0,2.51,1.47,2.51,4.34V112.9z M94.97,112.44V99.78
	c0-3.01-0.2-5.11-0.58-6.39c-0.77-2.38-2.31-3.59-4.61-3.59c-2.12,0-4.09,1.16-5.95,3.45V79.32h-5.76v42.66h5.76v-3.08
	c1.92,2.38,3.9,3.52,5.95,3.52c2.3,0,3.84-1.21,4.61-3.57C94.77,117.5,94.97,115.38,94.97,112.44z M110.95,102.34h-5.76V99.4
	c0-2.94,0.96-4.41,2.89-4.41c1.9,0,2.87,1.47,2.87,4.41V102.34z M116.71,111.81v-0.84h-5.88c0,2.31-0.07,3.58-0.12,3.9
	c-0.33,1.54-1.16,2.31-2.58,2.31c-1.98,0-2.94-1.46-2.94-4.41v-5.63h11.52v-6.58c0-3.4-0.58-5.89-1.79-7.49
	c-1.61-2.18-3.9-3.26-6.79-3.26c-2.94,0-5.24,1.08-6.9,3.26c-1.23,1.61-1.78,4.09-1.78,7.49v11.13c0,3.37,0.62,5.88,1.85,7.47
	c1.66,2.17,3.95,3.26,6.97,3.26c3.01,0,5.37-1.14,6.97-3.45c0.7-1.02,1.15-2.18,1.34-3.45
	C116.64,114.94,116.71,113.66,116.71,111.81z"/>
<g>
	<path class="st5" d="M18.17,513.5v-70H39v70H18.17z"/>
	<path class="st5" d="M50.09,513.5v-70H75.4v10.24c3.26-4.08,6.9-7.12,10.91-9.11s8.55-2.99,13.62-2.99c4.25,0,8.05,0.71,11.4,2.12
		c3.35,1.42,6.18,3.52,8.5,6.31c2.1,2.53,3.6,5.61,4.48,9.24c0.88,3.63,1.32,9.56,1.32,17.81v36.38H97.81v-36.25
		c0-5.32-0.71-8.98-2.12-10.98c-1.42-2-3.87-2.99-7.34-2.99c-3.52,0-6.14,1.16-7.86,3.48c-1.72,2.32-2.58,5.86-2.58,10.63v36.12
		H50.09z"/>
</g>
<circle class="st5" cx="28.5" cy="426.5" r="11.5"/>
<path d="M297.2,426"/>
<polygon class="st5" points="306.96,425 220.68,513 229.86,513 314.42,425 "/>
<path class="st5" d="M218,425h23.24L317,513c-7.75,0-15.5,0-23.24,0C268.5,483.67,243.25,454.33,218,425z"/>
<path d="M226.61,430h13.73l44.77,52c-4.58,0-9.16,0-13.73,0C256.45,464.67,241.53,447.33,226.61,430z"/>
<path d="M248.99,456h13.73l44.77,52c-4.58,0-9.16,0-13.73,0C278.83,490.67,263.91,473.33,248.99,456z"/>
<g>
	<g>
		<path class="st5" d="M-88.76,508.48h-52.59c-11.99,0-21.76-9.76-21.76-21.76v-52.58c0-12,9.77-21.77,21.76-21.77h52.59
			c11.99,0,21.76,9.76,21.76,21.77v52.58C-67,498.72-76.77,508.48-88.76,508.48z"/>
		<path class="st5" d="M-141.35,421.94c-6.72,0-12.19,5.47-12.19,12.2v52.58c0,6.73,5.47,12.2,12.19,12.2h52.59
			c6.72,0,12.19-5.47,12.19-12.2v-52.58c0-6.72-5.47-12.2-12.19-12.2H-141.35z"/>
	</g>
</g>
<g>
	
		<linearGradient id="SVGID_00000178197393279386992260000014115620026321258120_" gradientUnits="userSpaceOnUse" x1="-144.3478" y1="461.4338" x2="-83.2154" y2="461.4338" gradientTransform="matrix(6.123234e-17 -1 1 6.123234e-17 -576.7622 346.6522)">
		<stop  offset="0" style="stop-color:#F3CA5F"/>
		<stop  offset="0.2151" style="stop-color:#F88827"/>
		<stop  offset="0.4301" style="stop-color:#DC2D5C"/>
		<stop  offset="0.7097" style="stop-color:#A44882"/>
		<stop  offset="1" style="stop-color:#46469B"/>
	</linearGradient>
	<path style="fill:url(#SVGID_00000178197393279386992260000014115620026321258120_);" d="M-145.89,460.44
		c0,16.86,13.71,30.56,30.57,30.56c16.86,0,30.57-13.71,30.57-30.56c0-16.85-13.71-30.57-30.57-30.57
		C-132.19,429.87-145.89,443.58-145.89,460.44z M-96.53,460.44c0,10.37-8.43,18.8-18.8,18.8c-10.36,0-18.8-8.43-18.8-18.8
		c0-10.37,8.44-18.8,18.8-18.8C-104.96,441.64-96.53,450.06-96.53,460.44z"/>
</g>
<path class="st7" d="M-89.57,429.07c0,3.49,2.82,6.3,6.31,6.3c3.47,0,6.3-2.81,6.3-6.3c0-3.48-2.83-6.31-6.3-6.31
	C-86.75,422.76-89.57,425.59-89.57,429.07z"/>
</svg>
