<?xml version="1.0" encoding="utf-8"?>
<!-- Generator: Adobe Illustrator 27.0.1, SVG Export Plug-In . SVG Version: 6.00 Build 0)  -->
<svg version="1.1" id="图层_1" xmlns="http://www.w3.org/2000/svg" xmlns:xlink="http://www.w3.org/1999/xlink" x="0px" y="0px"
	 viewBox="0 0 150 150" style="enable-background:new 0 0 150 150;" xml:space="preserve">
<style type="text/css">
	.st0{fill:#3A5A98;}
	.st1{fill:#CA2128;}
	.st2{fill:#2E80FF;}
	.st3{fill:url(#SVGID_1_);}
	.st4{fill:#FFFFFF;}
	.st5{fill:url(#SVGID_00000181050524672238103550000010461241912206657974_);}
	.st6{fill:#B90087;}
	.st7{fill:#FF0000;}
	.st8{fill:none;stroke:#FF0000;stroke-width:9;stroke-miterlimit:10;}
	.st9{fill:none;stroke:#FF0000;stroke-width:12;stroke-miterlimit:10;}
	.st10{fill:none;stroke:#FF0000;stroke-width:2;stroke-linecap:round;stroke-miterlimit:10;}
	.st11{clip-path:url(#SVGID_00000115516794165491533960000001509835468076840068_);fill:#FF0000;}
	.st12{clip-path:url(#SVGID_00000003790785507239222330000016305068850209872260_);fill:#FF0000;}
	.st13{clip-path:url(#SVGID_00000132060460379771407560000000095437723749711031_);fill:#FF0000;}
	.st14{clip-path:url(#SVGID_00000153688797896539277510000013713885139319381411_);fill:#FF0000;}
</style>
<path class="st0" d="M528,511.21c0,12.59-10.19,22.79-22.77,22.79H400.92c-12.58,0-22.77-10.21-22.77-22.79V406.79
	c0-12.59,10.2-22.79,22.77-22.79h104.31c12.58,0,22.77,10.2,22.77,22.79V511.21z"/>
<path class="st1" d="M325,509.21c0,12.59-10.19,22.79-22.77,22.79H197.92c-12.58,0-22.77-10.2-22.77-22.79V404.79
	c0-12.59,10.2-22.79,22.77-22.79h104.31c12.58,0,22.77,10.21,22.77,22.79V509.21z"/>
<path class="st2" d="M143,506.21c0,12.59-10.21,22.79-22.79,22.79H15.79C3.2,529-7,518.8-7,506.21V401.79
	C-7,389.21,3.2,379,15.79,379h104.41c12.59,0,22.79,10.21,22.79,22.79V506.21z"/>
<path d="M-41,508.21C-41,520.8-51.2,531-63.79,531h-104.41c-12.59,0-22.79-10.2-22.79-22.79V403.79c0-12.59,10.21-22.79,22.79-22.79
	h104.41C-51.2,381-41,391.2-41,403.79V508.21z"/>
<linearGradient id="SVGID_1_" gradientUnits="userSpaceOnUse" x1="-195.8693" y1="1205.5013" x2="-45.8693" y2="1205.5013" gradientTransform="matrix(0 -1 1 0 -574.5013 342.1307)">
	<stop  offset="0" style="stop-color:#F3CA5F"/>
	<stop  offset="0.2151" style="stop-color:#F88827"/>
	<stop  offset="0.4301" style="stop-color:#DC2D5C"/>
	<stop  offset="0.7097" style="stop-color:#A44882"/>
	<stop  offset="1" style="stop-color:#46469B"/>
</linearGradient>
<path class="st3" d="M683.21,388c12.59,0,22.79,10.21,22.79,22.79v104.41c0,12.59-10.2,22.79-22.79,22.79H578.79
	C566.2,538,556,527.8,556,515.21V410.79c0-12.59,10.2-22.79,22.79-22.79H683.21z"/>
<path class="st4" d="M493.2,471.51l2.43-18.81H477v-12.01c0-5.44,1.52-9.16,9.32-9.16l9.95-0.01v-16.82
	c-1.72-0.23-7.62-0.74-14.51-0.74c-14.36,0-24.18,8.77-24.18,24.86v13.87h-16.24v18.81h16.24v48.25H477v-48.25H493.2z"/>
<path class="st4" d="M241.17,401.27h-6.53l-4.4,16.93l-4.58-16.93h-6.8c1.36,3.99,2.78,8.01,4.14,12.01
	c2.07,6.01,3.36,10.54,3.95,13.64v17.46h6.46v-17.46L241.17,401.27z M258.43,433.97v-11.25c0-3.43-0.59-5.94-1.81-7.57
	c-1.61-2.19-3.87-3.29-6.79-3.29c-2.9,0-5.17,1.1-6.78,3.29c-1.24,1.63-1.82,4.13-1.82,7.57v11.25c0,3.41,0.58,5.94,1.82,7.56
	c1.61,2.19,3.88,3.29,6.78,3.29c2.92,0,5.18-1.1,6.79-3.29C257.84,439.92,258.43,437.39,258.43,433.97z M252.6,435.07
	c0,2.97-0.9,4.46-2.77,4.46c-1.88,0-2.78-1.49-2.78-4.46v-13.51c0-2.97,0.9-4.45,2.78-4.45c1.88,0,2.77,1.48,2.77,4.45V435.07z
	 M279.95,444.38v-32.12h-5.82v24.55c-1.29,1.82-2.52,2.73-3.68,2.73c-0.78,0-1.24-0.46-1.36-1.36c-0.07-0.19-0.07-0.9-0.07-2.27
	v-23.65h-5.8v25.4c0,2.26,0.2,3.8,0.52,4.78c0.58,1.63,1.87,2.39,3.75,2.39c2.12,0,4.33-1.29,6.65-3.95v3.51H279.95z"/>
<path class="st4" d="M298.81,483.36c0,7.43-0.01,15.32-1.67,22.53c-1.16,5.06-5.31,8.8-10.3,9.37c-11.82,1.32-23.78,1.32-35.69,1.32
	c-11.91,0.01-23.87,0-35.69-1.32c-4.99-0.56-9.14-4.3-10.3-9.37c-1.66-7.22-1.66-15.1-1.66-22.53c0-7.44,0.02-15.31,1.68-22.53
	c1.16-5.06,5.31-8.8,10.3-9.36c11.82-1.32,23.78-1.33,35.69-1.32c11.91,0,23.87,0,35.69,1.32c4.99,0.55,9.14,4.29,10.3,9.36
	C298.82,468.05,298.81,475.93,298.81,483.36z"/>
<path class="st1" d="M230.68,467.33v-6.01H210.6v6.01h6.78v36.65h6.41v-36.65H230.68z M242.32,503.98v-3.46
	c-2.29,2.62-4.46,3.9-6.58,3.9c-1.86,0-3.14-0.75-3.71-2.36c-0.32-0.97-0.51-2.48-0.51-4.73v-25.14h5.76v23.4
	c0,1.35,0,2.05,0.05,2.24c0.14,0.89,0.58,1.35,1.35,1.35c1.15,0,2.37-0.89,3.64-2.69v-24.3h5.77v31.79H242.32z M264.21,494.9
	c0,2.87-0.85,4.29-2.51,4.29c-0.95,0-1.91-0.45-2.87-1.41v-19.38c0.96-0.95,1.92-1.4,2.87-1.4c1.66,0,2.51,1.47,2.51,4.34V494.9z
	 M269.97,494.44v-12.66c0-3.01-0.2-5.11-0.58-6.39c-0.77-2.38-2.31-3.59-4.61-3.59c-2.12,0-4.09,1.16-5.95,3.45v-13.93h-5.76v42.66
	h5.76v-3.08c1.92,2.38,3.9,3.52,5.95,3.52c2.3,0,3.84-1.21,4.61-3.57C269.77,499.5,269.97,497.38,269.97,494.44z M285.95,484.34
	h-5.76v-2.94c0-2.94,0.96-4.41,2.89-4.41c1.9,0,2.87,1.47,2.87,4.41V484.34z M291.71,493.81v-0.84h-5.88c0,2.31-0.07,3.58-0.12,3.9
	c-0.33,1.54-1.16,2.31-2.58,2.31c-1.98,0-2.94-1.46-2.94-4.41v-5.63h11.52v-6.58c0-3.4-0.58-5.89-1.79-7.49
	c-1.61-2.18-3.9-3.26-6.79-3.26c-2.94,0-5.24,1.08-6.9,3.26c-1.23,1.61-1.78,4.09-1.78,7.49v11.13c0,3.37,0.62,5.88,1.85,7.47
	c1.66,2.17,3.95,3.26,6.97,3.26c3.01,0,5.37-1.14,6.97-3.45c0.7-1.02,1.15-2.18,1.34-3.45
	C291.64,496.94,291.71,495.66,291.71,493.81z"/>
<g>
	<path class="st4" d="M14.17,500.5v-70H35v70H14.17z"/>
	<path class="st4" d="M46.09,500.5v-70H71.4v10.24c3.26-4.08,6.9-7.12,10.91-9.11s8.55-2.99,13.62-2.99c4.25,0,8.05,0.71,11.4,2.12
		c3.35,1.42,6.18,3.52,8.5,6.31c2.1,2.53,3.6,5.61,4.48,9.24c0.88,3.63,1.32,9.56,1.32,17.81v36.38H93.81v-36.25
		c0-5.32-0.71-8.98-2.12-10.98c-1.42-2-3.87-2.99-7.34-2.99c-3.52,0-6.14,1.16-7.86,3.48c-1.72,2.32-2.58,5.86-2.58,10.63v36.12
		H46.09z"/>
</g>
<circle class="st4" cx="24.5" cy="413.5" r="11.5"/>
<path d="M-86.8,416"/>
<polygon class="st4" points="-77.04,415 -163.32,503 -154.14,503 -69.58,415 "/>
<path class="st4" d="M-166,415h23.24L-67,503c-7.75,0-15.5,0-23.24,0C-115.5,473.67-140.75,444.33-166,415z"/>
<path d="M-157.39,420h13.73l44.77,52c-4.58,0-9.16,0-13.73,0C-127.55,454.67-142.47,437.33-157.39,420z"/>
<path d="M-135.01,446h13.73l44.77,52c-4.58,0-9.16,0-13.73,0C-105.17,480.67-120.09,463.33-135.01,446z"/>
<g>
	<g>
		<path class="st4" d="M658.24,512.48h-52.59c-11.99,0-21.76-9.76-21.76-21.76v-52.58c0-12,9.77-21.77,21.76-21.77h52.59
			c11.99,0,21.76,9.76,21.76,21.77v52.58C680,502.72,670.23,512.48,658.24,512.48z"/>
		<path class="st4" d="M605.65,425.94c-6.72,0-12.19,5.47-12.19,12.2v52.58c0,6.73,5.47,12.2,12.19,12.2h52.59
			c6.72,0,12.19-5.47,12.19-12.2v-52.58c0-6.72-5.47-12.2-12.19-12.2H605.65z"/>
	</g>
</g>
<g>
	
		<linearGradient id="SVGID_00000116916136666236512410000013737582584502957716_" gradientUnits="userSpaceOnUse" x1="-148.3478" y1="1208.4337" x2="-87.2154" y2="1208.4337" gradientTransform="matrix(0 -1 1 0 -576.7622 346.6522)">
		<stop  offset="0" style="stop-color:#F3CA5F"/>
		<stop  offset="0.2151" style="stop-color:#F88827"/>
		<stop  offset="0.4301" style="stop-color:#DC2D5C"/>
		<stop  offset="0.7097" style="stop-color:#A44882"/>
		<stop  offset="1" style="stop-color:#46469B"/>
	</linearGradient>
	<path style="fill:url(#SVGID_00000116916136666236512410000013737582584502957716_);" d="M601.11,464.44
		c0,16.86,13.71,30.56,30.57,30.56c16.86,0,30.57-13.71,30.57-30.56c0-16.85-13.71-30.57-30.57-30.57
		C614.81,433.87,601.11,447.58,601.11,464.44z M650.47,464.44c0,10.37-8.43,18.8-18.8,18.8c-10.36,0-18.8-8.43-18.8-18.8
		c0-10.37,8.44-18.8,18.8-18.8C642.04,445.64,650.47,454.06,650.47,464.44z"/>
</g>
<path class="st6" d="M657.43,433.07c0,3.49,2.82,6.3,6.31,6.3c3.47,0,6.3-2.81,6.3-6.3c0-3.48-2.83-6.31-6.3-6.31
	C660.25,426.76,657.43,429.59,657.43,433.07z"/>
<g>
	<g>
		<path class="st7" d="M270.26,51.57l50.55-27.28c3.75-2.02,8.26-2.02,12.01,0l50.55,27.28c4.09,2.21,6.63,6.48,6.63,11.12v64.17
			c0,6.98-5.66,12.64-12.64,12.64h-101.1c-6.98,0-12.64-5.66-12.64-12.64V62.69C263.62,58.05,266.17,53.78,270.26,51.57
			L270.26,51.57z M276.26,62.69v64.17h101.1V62.69l-50.55-27.28L276.26,62.69z M276.26,62.69"/>
		<path class="st7" d="M326,111L326,111c-4.95,0-9-4.05-9-9V78c0-4.95,4.05-9,9-9l0,0c4.95,0,9,4.05,9,9v24
			C335,106.95,330.95,111,326,111z"/>
	</g>
</g>
<g>
	<g>
		<path class="st7" d="M424.26,53.57l50.55-27.28c3.75-2.02,8.26-2.02,12.01,0l50.55,27.28c4.09,2.21,6.63,6.48,6.63,11.12v64.17
			c0,6.98-5.66,12.64-12.64,12.64h-101.1c-6.98,0-12.64-5.66-12.64-12.64V64.69C417.62,60.05,420.17,55.78,424.26,53.57
			L424.26,53.57z M430.26,64.69v64.17h101.1V64.69l-50.55-27.28L430.26,64.69z M430.26,64.69"/>
		<path class="st7" d="M480,113L480,113c-4.95,0-9-4.05-9-9V80c0-4.95,4.05-9,9-9l0,0c4.95,0,9,4.05,9,9v24
			C489,108.95,484.95,113,480,113z"/>
	</g>
</g>
<g>
	<g>
		<path class="st7" d="M380.24,164.71c-0.08,45.43-0.16,90.86-0.24,136.29c-44-0.33-88-0.67-132-1c0.12-25.24,0.24-50.49,0.36-75.73
			l55.3-13.83v-45.73c0-2.26,0.9-4.42,2.49-6.02c1.6-1.59,3.76-2.49,6.02-2.49h59.56C376.43,156.2,380.24,160.01,380.24,164.71z
			 M261.12,288.08h42.54v-64.48l-42.54,10.63V288.08z M316.43,288.08h51.05V168.96h-51.05V288.08z M316.43,288.08"/>
	</g>
</g>
<path class="st7" d="M342,253L342,253c-4.4,0-8-3.6-8-8v-37c0-4.4,3.6-8,8-8l0,0c4.4,0,8,3.6,8,8v37C350,249.4,346.4,253,342,253z"
	/>
<path class="st7" d="M282,276L282,276c-4.4,0-8-3.6-8-8v-14c0-4.4,3.6-8,8-8l0,0c4.4,0,8,3.6,8,8v14C290,272.4,286.4,276,282,276z"
	/>
<g>
	<g>
		<path class="st7" d="M536.24,168.71c-0.08,45.43-0.16,90.86-0.24,136.29c-44-0.33-88-0.67-132-1c0.12-25.24,0.24-50.49,0.36-75.73
			l55.3-13.83v-45.73c0-2.26,0.9-4.42,2.49-6.02c1.6-1.59,3.76-2.49,6.02-2.49h59.56C532.43,160.2,536.24,164.01,536.24,168.71z
			 M417.12,292.08h42.54v-64.48l-42.54,10.63V292.08z M472.43,292.08h51.05V172.96h-51.05V292.08z M472.43,292.08"/>
	</g>
</g>
<path class="st7" d="M498,257L498,257c-4.4,0-8-3.6-8-8v-37c0-4.4,3.6-8,8-8l0,0c4.4,0,8,3.6,8,8v37C506,253.4,502.4,257,498,257z"
	/>
<path class="st7" d="M438,280L438,280c-4.4,0-8-3.6-8-8v-14c0-4.4,3.6-8,8-8l0,0c4.4,0,8,3.6,8,8v14C446,276.4,442.4,280,438,280z"
	/>
<g>
	<path class="st7" d="M483,43c-1.56,4.13-3.78,7.82-6.22,11.42l-0.67-3.41c3.12,1.45,6.13,3.09,9.06,4.89l2.82,1.72
		c-2.55,2.33-5.24,4.78-8.04,6.82c-2.05,1.5-4.14,2.91-6.45,4.05c2.29-4.5,5.45-8.47,8.8-12.2l0.53,3.8
		c-3.91-1.91-7.7-4.27-11.35-6.66C475,49.62,478.6,45.88,483,43L483,43z"/>
</g>
<g>
	<path class="st7" d="M484-45c-1.56,4.13-3.78,7.82-6.22,11.42l-0.67-3.41c3.12,1.45,6.13,3.09,9.06,4.89l2.82,1.72
		c-2.55,2.33-5.24,4.78-8.04,6.82c-2.05,1.5-4.14,2.91-6.45,4.05c2.29-4.5,5.45-8.47,8.8-12.2l0.53,3.8
		c-3.91-1.91-7.7-4.27-11.35-6.66C476-38.38,479.6-42.12,484-45L484-45z"/>
</g>
<g>
	<path class="st7" d="M502,175c-1.56,4.13-3.78,7.82-6.22,11.42l-0.67-3.41c3.12,1.45,6.13,3.09,9.06,4.89l2.82,1.72
		c-2.55,2.33-5.24,4.78-8.04,6.82c-2.05,1.5-4.14,2.91-6.45,4.05c2.29-4.5,5.45-8.47,8.8-12.2c0,0,0.53,3.8,0.53,3.8
		c-3.91-1.91-7.7-4.27-11.35-6.66C494,181.62,497.6,177.88,502,175L502,175z"/>
</g>
<path class="st8" d="M341.5-3h-41c-6.6,0-12-5.4-12-12v-96.5c0-6.6,5.4-12,12-12h41c6.6,0,12,5.4,12,12V-15
	C353.5-8.4,348.1-3,341.5-3z"/>
<circle class="st7" cx="321.5" cy="-85.5" r="9.5"/>
<circle class="st7" cx="514.5" cy="-104.5" r="9.5"/>
<path class="st7" d="M295.73,2H264c-6.6,0-12-5.4-12-12v-63.5c0-6.6,5.4-12,12-12h31.73c6.6,0,12,5.4,12,12V-10
	C307.73-3.4,302.33,2,295.73,2z"/>
<circle class="st4" cx="281" cy="-55" r="8"/>
<path class="st9" d="M532-1H426c-6.6,0-12-5.4-12-12v-108c0-6.6,5.4-12,12-12h106c6.6,0,12,5.4,12,12v108C544-6.4,538.6-1,532-1z"/>
<line class="st10" x1="480" y1="-85" x2="480" y2="-57"/>
<g>
	<g>
		<path class="st7" d="M368.66-231.34v54.45H283.1v-85.56h54.84c-0.21-1.29-0.34-2.59-0.39-3.89c0.04-3.99,0.78-7.94,2.18-11.67
			H283.1c-8.59,0-15.56,6.96-15.56,15.56v85.56c0,8.59,6.96,15.56,15.56,15.56h85.56c8.59,0,15.56-6.96,15.56-15.56v-56.63
			c-3.73,1.4-7.68,2.14-11.67,2.18C371.26-231.26,369.96-231.26,368.66-231.34L368.66-231.34z M368.44-276.79
			c-6.29,0-11.97,3.79-14.37,9.6c-2.41,5.81-1.08,12.51,3.37,16.95c4.45,4.45,11.14,5.78,16.95,3.37c5.81-2.41,9.6-8.08,9.6-14.37
			C384-269.83,377.04-276.79,368.44-276.79L368.44-276.79z M376.44-285.79"/>
	</g>
</g>
<g>
	<g>
		<path class="st7" d="M-465.87,1.53h-21.87h10.93v13.21h-43.73V1.53h10.93h-21.87c-12.08,0-21.87-11.83-21.87-26.43v-52.86h21.87
			v52.86h65.6v-66.07h-32.8v-26.43h32.8c12.08,0,21.87,11.83,21.87,26.43v66.07C-444-10.3-453.79,1.53-465.87,1.53z M-553.33-90.97
			h-21.87v-26.43h65.6v26.43h-21.87"/>
	</g>
</g>
<g>
	<g>
		<path class="st7" d="M-470.12,164.6h-96.36c-6.14,0-11.12-4.98-11.12-11.12V86.77c0-6.14,4.98-11.12,11.12-11.12h11.12V57.12
			c0-6.14,4.98-11.12,11.12-11.12h74.12c6.14,0,11.12,4.98,11.12,11.12v96.36C-459,159.62-463.98,164.6-470.12,164.6L-470.12,164.6z
			 M-473.82,90.47V71.94c0-6.14-4.98-11.12-11.12-11.12h-44.47c-6.14,0-11.12,4.98-11.12,11.12v63.01c0,4.09-3.32,7.41-7.41,7.41
			c-4.09,0-7.41-3.32-7.41-7.41V91.16c-4.43,1.56-7.4,5.74-7.41,10.44v37.06c0,6.14,4.98,11.12,11.12,11.12h66.71
			c6.14,0,11.12-4.98,11.12-11.12V90.47z M-496.06,134.95h-22.24c-4.09,0-7.41-3.32-7.41-7.41c0-4.09,3.32-7.41,7.41-7.41h22.24
			c4.09,0,7.41,3.32,7.41,7.41C-488.65,131.63-491.97,134.95-496.06,134.95L-496.06,134.95z M-496.06,112.71h-22.24
			c-4.09,0-7.41-3.32-7.41-7.41c0-4.09,3.32-7.41,7.41-7.41h22.24c4.09,0,7.41,3.32,7.41,7.41
			C-488.65,109.39-491.97,112.71-496.06,112.71L-496.06,112.71z M-496.06,90.47h-22.24c-4.09,0-7.41-3.32-7.41-7.41
			c0-4.09,3.32-7.41,7.41-7.41h22.24c4.09,0,7.41,3.32,7.41,7.41C-488.65,87.16-491.97,90.47-496.06,90.47L-496.06,90.47z
			 M-496.06,90.47"/>
	</g>
</g>
<g>
</g>
<g>
	<g>
		<path class="st7" d="M526.84-287.25l13.4,16.97c0.89,0.89,0,1.79-0.89,2.68l-42.87,33.05c-0.89,0.89-19.65-0.89-19.65-0.89
			s3.57-17.86,4.47-18.76l42.87-33.04C525.06-288.14,525.95-288.14,526.84-287.25L526.84-287.25z M526.84-287.25"/>
		<path class="st7" d="M493.8-230.98c-2.68,0-20.54-0.89-20.54-0.89s4.46-24.11,5.36-25.01l42.87-33.05
			c2.68-1.79,5.36-1.79,7.14,0.89l13.4,16.97c1.79,1.79,0.89,5.36-0.89,7.14l-42.87,33.05C497.37-230.98,497.37-230.98,493.8-230.98
			L493.8-230.98z M480.41-238.13c6.25,0,11.61,0.89,14.29,0.89l41.08-32.15l-10.72-14.29l-41.08,32.15
			C483.08-249.74,482.19-244.38,480.41-238.13L480.41-238.13z M480.41-238.13"/>
		<path class="st7" d="M478-267c0.11-5.21,0.22-10.42,0.33-15.64h-44.84c-10.13,0-18.34,8.21-18.34,18.34v84.03
			c0,10.13,8.21,18.34,18.34,18.34h82.52c10.13,0,18.34-8.21,18.34-18.34v-51.46c-4.78-0.09-9.57-0.18-14.35-0.27
			c0,17.33,0,34.67,0,52c-0.01,0.47-0.09,1.76-1,3c-1.08,1.47-2.58,1.9-3,2c-27,0-54,0-81,0c-0.73-0.13-2.45-0.55-4-2
			c-1.18-1.11-1.74-2.32-2-3c0-27,0-54,0-81c-0.02-0.2-0.29-3.27,2-5c1.17-0.89,2.45-0.99,3-1C448.67-267,463.33-267,478-267z
			 M478.28-273.47"/>
	</g>
</g>
<g>
	<g>
		<path class="st7" d="M792-430c0.11-5.21,0.22-10.42,0.33-15.64h-44.84c-10.13,0-18.34,8.21-18.34,18.34v84.03
			c0,10.13,8.21,18.34,18.34,18.34h82.52c10.13,0,18.34-8.21,18.34-18.34v-51.46c-4.78-0.09-9.57-0.18-14.35-0.27
			c0,17.33,0,34.67,0,52c-0.01,0.47-0.09,1.76-1,3c-1.08,1.47-2.58,1.9-3,2c-27,0-54,0-81,0c-0.73-0.13-2.45-0.55-4-2
			c-1.18-1.11-1.74-2.32-2-3c0-27,0-54,0-81c-0.02-0.2-0.29-3.27,2-5c1.17-0.89,2.45-0.99,3-1C762.67-430,777.33-430,792-430z
			 M792.28-436.47"/>
		<path class="st7" d="M836.59-440.94L836.59-440.94c-4.11-3.65-10.47-3.27-14.12,0.84l-23.9,26.92
			c-3.65,4.11-3.27,10.47,0.84,14.12l0,0c4.11,3.65,10.47,3.27,14.12-0.84l23.9-26.92C841.08-430.93,840.7-437.29,836.59-440.94z"/>
	</g>
</g>
<g>
	<g>
		<defs>
			<rect id="SVGID_00000008125526020227592840000003869370687100325816_" x="573" y="-283" width="109" height="123"/>
		</defs>
		<clipPath id="SVGID_00000018231798337497631170000007115621698139124889_">
			<use xlink:href="#SVGID_00000008125526020227592840000003869370687100325816_"  style="overflow:visible;"/>
		</clipPath>
		<path style="clip-path:url(#SVGID_00000018231798337497631170000007115621698139124889_);fill:#FF0000;" d="M573-259.31
			c0-6.26,2.46-12.26,6.84-16.69c4.38-4.42,10.32-6.91,16.52-6.91h62.3c6.2,0,12.14,2.49,16.52,6.91
			c4.38,4.43,6.84,10.43,6.84,16.69v75.51c0,6.26-2.46,12.26-6.84,16.68c-4.38,4.43-10.32,6.91-16.52,6.91h-62.3
			c-6.2,0-12.14-2.49-16.52-6.91c-4.38-4.42-6.84-10.43-6.84-16.68V-259.31z M596.36-273.47c-3.72,0-7.28,1.49-9.91,4.15
			c-2.63,2.65-4.11,6.26-4.11,10.01v75.51c0,3.75,1.48,7.36,4.11,10.01c2.63,2.65,6.19,4.15,9.91,4.15h62.3
			c3.72,0,7.28-1.49,9.91-4.15c2.63-2.65,4.11-6.26,4.11-10.01v-75.51c0-3.76-1.48-7.36-4.11-10.01c-2.63-2.66-6.19-4.15-9.91-4.15
			H596.36z M596.36-273.47"/>
	</g>
	<path class="st7" d="M590.8-246.8c0-2.33,0.69-4.57,1.93-6.22c1.23-1.65,2.9-2.58,4.65-2.58h35.05c3.63,0,6.57,3.94,6.57,8.8
		c0,4.86-2.94,8.8-6.57,8.8h-35.05c-1.74,0-3.42-0.93-4.65-2.58C591.5-242.23,590.8-244.47,590.8-246.8L590.8-246.8z M590.8-220.8
		c0-2.33,0.89-4.57,2.49-6.22c1.59-1.65,3.75-2.58,6-2.58h45.23c4.68,0,8.48,3.94,8.48,8.8c0,4.86-3.8,8.8-8.48,8.8h-45.23
		c-2.25,0-4.41-0.93-6-2.58C591.7-216.23,590.8-218.47,590.8-220.8L590.8-220.8z M590.8-194.8c0-2.33,1.08-4.57,3-6.22
		c1.92-1.65,4.53-2.58,7.25-2.58h54.69c5.66,0,10.25,3.94,10.25,8.8c0,4.86-4.59,8.8-10.25,8.8h-54.69c-2.72,0-5.33-0.93-7.25-2.58
		C591.89-190.23,590.8-192.47,590.8-194.8L590.8-194.8z M596.8-202.99"/>
</g>
<g>
	<g>
		<defs>
			<rect id="SVGID_00000168827657203558718390000005621660944627298750_" x="-412" y="46" width="140" height="132"/>
		</defs>
		<clipPath id="SVGID_00000111871054495201939090000009540776946338934453_">
			<use xlink:href="#SVGID_00000168827657203558718390000005621660944627298750_"  style="overflow:visible;"/>
		</clipPath>
		<path style="clip-path:url(#SVGID_00000111871054495201939090000009540776946338934453_);fill:#FF0000;" d="M-412,71.43
			c0-6.72,3.16-13.16,8.79-17.91c5.63-4.75,13.26-7.42,21.22-7.42h80.01c7.96,0,15.59,2.67,21.22,7.42
			c5.63,4.75,8.79,11.19,8.79,17.91v81.03c0,6.72-3.16,13.16-8.79,17.91c-5.63,4.75-13.26,7.42-21.22,7.42H-382
			c-7.96,0-15.59-2.67-21.22-7.42c-5.63-4.75-8.79-11.19-8.79-17.91V71.43z M-382,56.23c-4.78,0-9.35,1.6-12.73,4.45
			c-3.38,2.85-5.27,6.71-5.27,10.74v81.03c0,4.03,1.9,7.89,5.27,10.74c3.38,2.85,7.95,4.45,12.73,4.45h80.01
			c4.78,0,9.35-1.6,12.73-4.45c3.38-2.85,5.27-6.71,5.27-10.74V71.43c0-4.03-1.9-7.89-5.27-10.74c-3.38-2.85-7.95-4.45-12.73-4.45
			H-382z M-382,56.23"/>
	</g>
</g>
<g>
	<g>
		<g>
			<path class="st7" d="M-463.73-230.13v64.66h-103v-101.61h66.01c-0.25-1.53-0.4-3.07-0.47-4.62c0.05-4.73,0.93-9.42,2.62-13.85
				h-68.17c-10.34,0-18.73,8.27-18.73,18.47v101.61c0,10.2,8.38,18.47,18.73,18.47h103c10.34,0,18.73-8.27,18.73-18.47v-67.25
				c-4.49,1.66-9.25,2.54-14.05,2.59C-460.6-230.04-462.17-230.04-463.73-230.13L-463.73-230.13z M-463.99-284.1
				c-7.58,0-14.4,4.5-17.3,11.4c-2.9,6.9-1.3,14.85,4.06,20.13c5.36,5.28,13.41,6.86,20.41,4c7-2.86,11.56-9.6,11.56-17.07
				C-445.27-275.83-453.65-284.1-463.99-284.1L-463.99-284.1z M-454.36-294.79"/>
		</g>
	</g>
	<g>
		<path class="st7" d="M-530.27-239.27c0-0.3,0.12-0.58,0.33-0.79c0.21-0.21,0.49-0.33,0.79-0.33h18.8c0.3,0,0.58,0.12,0.79,0.33
			c0.21,0.21,0.33,0.5,0.33,0.79v3.92c0,0.63-0.52,1.15-1.15,1.15h-9.48c-0.46,0-0.9,0.19-1.22,0.52c-0.32,0.33-0.5,0.77-0.5,1.23
			c-0.01,0.95,0.76,1.73,1.72,1.74h7.54c0.62,0,1.12,0.5,1.12,1.12v3.92c0,0.64-0.52,1.15-1.15,1.15h-7.52
			c-0.46,0-0.9,0.19-1.22,0.51c-0.32,0.33-0.5,0.77-0.5,1.23v0.28c0,0.46,0.17,0.9,0.5,1.23c0.32,0.33,0.76,0.51,1.22,0.52h10.06
			c0.3,0,0.58,0.12,0.79,0.33c0.21,0.21,0.33,0.49,0.33,0.79v3.92c0,0.63-0.52,1.15-1.15,1.15h-19.34c-0.3,0-0.58-0.12-0.79-0.33
			c-0.21-0.21-0.33-0.5-0.33-0.79L-530.27-239.27z M-530.27-239.27"/>
		<path class="st7" d="M-559.37-239.48c0-0.65,0.53-1.18,1.18-1.18h5.97c0.39,0,0.76,0.2,0.97,0.52l8.55,12.95l-0.28-4.13v-8.15
			c0-0.31,0.12-0.62,0.35-0.84c0.22-0.22,0.52-0.35,0.84-0.35h5.99c0.31,0,0.6,0.12,0.82,0.34c0.22,0.22,0.34,0.51,0.34,0.82v23.52
			c0,0.65-0.53,1.18-1.18,1.18h-6.25c-0.39,0-0.75-0.2-0.97-0.53l-8.55-13.27l0.28,4.17v8.44c0,0.31-0.13,0.62-0.35,0.84
			c-0.22,0.22-0.52,0.35-0.84,0.35h-5.72c-0.64,0-1.16-0.52-1.16-1.16L-559.37-239.48z M-559.37-239.48"/>
		<path class="st7" d="M-472.83-187.27c0,1.86-0.99,3.36-2.21,3.36h-83.84c-1.22,0-2.21-1.51-2.21-3.36v-4.47
			c0-1.86,0.99-3.36,2.21-3.36h83.84c1.22,0,2.21,1.51,2.21,3.36V-187.27z M-472.83-187.27"/>
		<path class="st7" d="M-477.83-214.72c-0.07,0.32-0.35,0.56-0.67,0.56h-7.14c-0.33-0.01-0.61-0.24-0.67-0.56l-2.27-11.17
			c-0.05-0.33-0.34-0.58-0.68-0.57c-0.34,0-0.62,0.26-0.66,0.59l-2,11.12c-0.05,0.34-0.34,0.59-0.69,0.59h-7.14
			c-0.32,0-0.59-0.22-0.66-0.53l-6.16-25.04c-0.06-0.21-0.01-0.44,0.12-0.62c0.13-0.18,0.34-0.28,0.56-0.29h6.95
			c0.34,0,0.63,0.25,0.69,0.59l1.99,11.4c0.05,0.33,0.34,0.58,0.67,0.58c0.34,0,0.63-0.25,0.67-0.58l1.74-11.37
			c0.05-0.35,0.34-0.61,0.69-0.61h6.52c0.34,0.01,0.63,0.26,0.68,0.6l1.96,11.53c0.05,0.33,0.34,0.58,0.67,0.58
			c0.34,0,0.63-0.25,0.67-0.58l2.01-11.83c0.05-0.33,0.34-0.58,0.67-0.59h6.47c0.22,0,0.42,0.11,0.56,0.28
			c0.13,0.17,0.18,0.4,0.13,0.61L-477.83-214.72z M-477.83-214.72"/>
	</g>
</g>
<g>
	<g>
		<path class="st7" d="M-480.78,303.08c-27.04,0.01-43.62,0-49.73-0.03c-0.94-0.06-1.86,0.35-2.44,1.09
			c-3.79,4.36-9.2,10.53-16.23,18.51c-1.52,1.73-3.83,2.57-6.11,2.21c-2.28-0.36-4.22-1.85-5.14-3.96
			c-2.44-5.56-4.85-11.12-7.25-16.7c-0.39-0.92-0.86-1.15-1.81-1.15c-2.27,0.03-5.3,0.03-9.09,0.03c-3.73,0-6.75-3.02-6.75-6.75
			v-71.48c0-1.79,0.71-3.51,1.98-4.77c1.27-1.27,2.98-1.98,4.77-1.98h97.8c3.73,0,6.75,3.02,6.75,6.75v71.47
			C-474.03,300.06-477.06,303.08-480.78,303.08L-480.78,303.08z M-486.33,290.94v-60.66l-85.58,0.04v60.66l6.66-0.04
			c2.61,0,4.1,0.11,4.46,0.32c0.36,0.24,2.5,5.33,6.41,15.29c0.17,0.44,0.56,0.75,1.02,0.83c0.46,0.08,0.93-0.09,1.24-0.44
			c5.99-6.8,10.39-11.78,13.22-14.94c0.31-0.35,0.99-0.7,2.02-1.02L-486.33,290.94L-486.33,290.94z M-544.84,246h31
			c2.41,0,4.64,1.54,5.85,4.05c1.21,2.51,1.21,5.6,0,8.11c-1.21,2.51-3.43,4.05-5.85,4.05h-31c-3.73,0-6.75-3.63-6.75-8.11
			C-551.59,249.63-548.56,246-544.84,246L-544.84,246z M-457.09,279h-7.6c-0.89,0-1.75-0.36-2.39-0.99
			c-0.63-0.63-0.99-1.49-0.99-2.39v-5.31c0-0.9,0.36-1.75,0.99-2.39c0.63-0.63,1.49-0.99,2.39-0.99h2.05v-61.58h-79.98v2.61
			c0,1.86-1.51,3.37-3.37,3.37h-5.4c-1.86,0-3.37-1.51-3.37-3.37v-8.21c0-3.73,3.02-6.75,6.75-6.75h90.93
			c3.73,0,6.75,3.02,6.75,6.75v72.5C-450.34,275.97-453.37,279-457.09,279L-457.09,279z M-457.09,279"/>
	</g>
</g>
<g>
	<path class="st7" d="M-513.09-347.09c-28.2-0.03-51.06-22.89-51.09-51.09c0-28.18,22.93-51.09,51.09-51.09
		c28.16,0,51.09,22.91,51.09,51.09C-462.04-369.98-484.89-347.13-513.09-347.09L-513.09-347.09z M-512.98-433.13
		c-18.77,0-34.05,15.28-34.05,34.05c0,18.77,15.28,34.05,34.05,34.05c18.77,0,34.05-15.28,34.05-34.05
		C-478.93-417.85-494.21-433.13-512.98-433.13L-512.98-433.13z M-465.19-324h-95.59c-3.62-0.02-6.54-3.85-6.54-8.57
		c0-4.72,2.92-8.55,6.54-8.57h95.58c3.62,0.02,6.54,3.84,6.54,8.56C-458.65-327.86-461.57-324.03-465.19-324L-465.19-324z
		 M-465.19-328"/>
</g>
<g>
	<g>
		<path class="st7" d="M693.33-49.9c-1.51-1.28-3.73-1.28-5.24,0l-17.72,15.65l-9.19-8.1c-1.52-1.28-3.73-1.28-5.25,0
			c-0.69,0.57-1.09,1.42-1.09,2.32c0,0.89,0.4,1.74,1.09,2.32l11.82,10.43c1.51,1.28,3.73,1.28,5.25,0l20.33-17.97
			c0.69-0.57,1.09-1.42,1.09-2.32C694.42-48.48,694.02-49.33,693.33-49.9 M699.04-18.26l10.22,17.89L698.34,0.5L691.21,8
			L681.18-9.54c-4.34,0.75-8.77,0.75-13.11,0L658.06,8l-7.13-7.5l-10.92-0.86l10.22-17.89c-6.01-5.55-9.72-13.13-9.72-21.48
			c0-16.95,15.31-30.75,34.13-30.75c18.82,0,34.12,13.79,34.12,30.75C708.76-31.39,705.05-23.81,699.04-18.26"/>
		<path class="st7" d="M625.69-1.53h-28.88v-12.71l28.88-2V-1.53z M625.69-25.32l-28.88,2.67v-12.02l28.88-4.64V-25.32z
			 M625.69-49.17l-28.88,5.54v-12.29l28.88-7.26V-49.17z M625.69-72.62l-28.88,7.6v-12.81l28.88-9.35V-72.62z M657.73-101.22v20.21
			l-0.41,0.16c-5.53,2.29-10.57,5.64-14.82,9.86c-3.41,3.34-6.28,7.21-8.48,11.45v-40.21l-45.94,14.5v84.03H580l0.02-88.3
			l61.41-21.17L657.73-101.22z M675.46-84.48c-1.29,0-2.57,0.05-3.83,0.16v-41.44L616.55-108v-5.41l60.64-21.69l18.23,15.2v39.87
			c-0.6-0.28-1.2-0.55-1.8-0.81C687.86-83.26,681.69-84.49,675.46-84.48L675.46-84.48z M675.46-84.48"/>
	</g>
</g>
<g>
	<g>
		<defs>
			<rect id="SVGID_00000130606238212158774790000002900902369601100476_" x="-396.59" y="-278" width="137.11" height="144"/>
		</defs>
		<clipPath id="SVGID_00000008866390506374571670000013730650674878715780_">
			<use xlink:href="#SVGID_00000130606238212158774790000002900902369601100476_"  style="overflow:visible;"/>
		</clipPath>
		<path style="clip-path:url(#SVGID_00000008866390506374571670000013730650674878715780_);fill:#FF0000;" d="M-327.91-228.57
			v-39.99c21.37,1.61,35.79,12.65,41.79,31.99c1.65,5.42,7.05,15.07,11.36,22.82c2.84,5.09,6.05,10.85,6.25,12.05
			c-0.67,1.44-8.11,5.16-14.69,7.79l-0.77,0.29v18.48c0,0.17-0.11,3.96-4.07,8c-3.72,3.82-12.33,4.06-12.4,4.06h-10.03v25.68
			l0.09,0.21c0.42,1.09,1.78,2.96,4.15,2.96c3.33,0,4.56-2.08,4.77-3.2l0.03-16.62c2.94,0.09,10.18-0.29,17.1-4.67
			c9.49-6.04,9.4-16.05,9.37-16.49v-12.37c3.41-1.19,14.73-5.6,15.45-11.76c0.29-3.02-2.57-8.79-7.65-18.67
			c-3.49-6.78-7.44-14.45-10.13-21.54c-7.11-18.93-19.36-38.32-56.31-38.32c-38.43,0-62.98,33.39-62.98,56.37
			c0,20.5,9.14,35.58,15.17,45.54c2.64,4.37,4.72,7.82,4.69,9.65v28.91c0,1.68,2.17,3.2,4.36,3.2c2.53,0,4.67-1.07,4.67-3.17v-28.93
			c0-3.53-2.8-8.77-6.4-15.44c-5.65-10.57-13.42-24.98-13.47-39.76c-0.13-24.77,26.8-45.4,50.6-47.2v39.71"/>
	</g>
	<path class="st7" d="M-332.6-201.9c-6.62-0.47-11.62-6.21-11.16-12.83c0.47-6.63,6.21-11.62,12.84-11.16
		c6.61,0.47,11.62,6.23,11.15,12.84C-320.24-206.44-325.98-201.45-332.6-201.9 M-300.86-193.59c-1.73-1.41-4.02-1.93-6.19-1.41
		l-7.95-6.66c2.25-3.06,3.72-6.73,4.01-10.79c0.79-11.47-7.86-21.41-19.32-22.23c-11.47-0.78-21.41,7.86-22.22,19.32
		c-0.79,11.47,7.86,21.41,19.32,22.23c4.03,0.28,8.05-0.63,11.57-2.61l8.94,7.48c-0.08,2.17,0.7,4.34,2.49,5.85
		c3.09,2.58,7.69,2.17,10.27-0.91C-297.36-186.41-297.77-191-300.86-193.59"/>
</g>
<g>
	<g>
		<path class="st7" d="M-331.39-322.36h-47.59c-1.8,0-3.47-0.6-4.7-1.69c-0.62-0.55-1.65-1.72-1.65-3.41V-412
			c0-1.69,1.03-2.86,1.65-3.41c1.23-1.09,2.9-1.69,4.7-1.69h27.05v-11.67h-28.71c-4.26,0-8.3,1.5-11.36,4.23
			c-3.23,2.87-5,6.74-5,10.89v87.85c0,4.15,1.78,8.02,5,10.89c3.06,2.73,7.1,4.23,11.36,4.23h57.14
			C-326.62-313.58-329.29-318.62-331.39-322.36L-331.39-322.36z M-331.39-322.36"/>
		<path class="st7" d="M-278.91-415.41c0.62,0.55,1.65,1.72,1.65,3.41v31.77c3.62,1.41,8.64,3.33,11.67,5.65v-39.07
			c0-4.15-1.78-8.02-5-10.89c-3.06-2.73-7.1-4.23-11.36-4.23h-29.91v11.67h28.25C-281.81-417.1-280.14-416.5-278.91-415.41
			L-278.91-415.41z M-278.91-415.41"/>
		<g>
			<path class="st7" d="M-291.27-372.46c-17.82,0-32.27,14.44-32.27,32.27c0,17.82,14.45,32.27,32.27,32.27
				c17.82,0,32.27-14.45,32.27-32.27C-259-358.02-273.45-372.46-291.27-372.46L-291.27-372.46z M-271.16-348.11l-22.58,21.77
				c-0.3,0.3-0.64,0.54-1,0.71c-1.42,1.01-3.4,0.88-4.67-0.39l-9.7-9.7c-1.42-1.42-1.42-3.72,0-5.13c1.42-1.42,3.72-1.42,5.13,0
				l7.28,7.28l20.41-19.67c1.42-1.42,3.72-1.42,5.13,0C-269.74-351.83-269.74-349.53-271.16-348.11L-271.16-348.11z M-271.16-348.11
				"/>
		</g>
	</g>
	<path class="st7" d="M-331.67-455c2.7,0,4.89,2.17,4.94,4.86l0,0.08v70.41l25.87-25.87c1.93-1.93,5.06-1.93,6.99,0
		c1.91,1.91,1.93,4.99,0.06,6.93l-0.06,0.06l-34.31,34.31c-0.05,0.05-0.09,0.09-0.14,0.13l-0.09,0.08c-0.37,0.33-0.79,0.6-1.24,0.8
		l-0.1,0.04l-0.07,0.03c-0.42,0.17-0.85,0.28-1.3,0.33l-0.11,0.01l-0.07,0.01l-0.11,0.01l-0.12,0c-0.05,0-0.09,0-0.14,0h-0.07
		l-0.11,0l-0.13-0.01c-0.5-0.03-0.99-0.14-1.46-0.31l-0.09-0.04l-0.07-0.03c-0.48-0.2-0.93-0.48-1.33-0.83l-0.11-0.1l-0.06-0.06
		c-0.03-0.02-0.05-0.05-0.08-0.07l-34.3-34.3c-1.93-1.93-1.93-5.06,0-6.99c1.91-1.91,4.99-1.93,6.93-0.06l0.06,0.06l25.87,25.87
		v-70.41C-336.61-452.79-334.4-455-331.67-455L-331.67-455z"/>
</g>
<g>
	<path class="st7" d="M-322.12-54.75h-50.05c-2.76,0-5-2.25-5-5c0-2.76,2.25-5,5-5h50.05c2.76,0,5,2.25,5,5
		C-317.12-57-319.37-54.75-322.12-54.75L-322.12-54.75z M-355.49-34.73h-16.68c-2.76,0-5-2.25-5-5c0-2.76,2.25-5,5-5h16.68
		c2.76,0,5,2.25,5,5C-350.48-36.98-352.73-34.73-355.49-34.73L-355.49-34.73z M-355.49-34.73"/>
	<path class="st7" d="M-332.08,20.57h-55.1c-8.27,0-15.01-6.74-15.01-15.01V-96.45c0-8.27,6.74-15.01,15.01-15.01h93.42
		c8.27,0,15.01,6.74,15.01,15.01v56.72c0,2.76-2.25,5-5,5c-2.76,0-5-2.25-5-5v-56.72c0-2.76-2.25-5-5-5h-93.42c-2.76,0-5,2.25-5,5
		V5.55c0,2.76,2.25,5,5,5h55.1c2.76,0,5,2.25,5,5C-327.08,18.32-329.31,20.57-332.08,20.57L-332.08,20.57z M-332.08,20.57"/>
	<path class="st7" d="M-298.77,19.02c-2.76,0-5-2.2-5-4.95c0-7.52,3.74-14.66,10.27-19.7c2.51-1.95,3.58-4.95,2.86-8.04
		c-0.67-2.81-3.09-5.15-6.06-5.79c-2.69-0.6-5.41,0-7.45,1.63c-1.88,1.51-2.97,3.72-2.97,6.06c0,2.76-2.25,5-5,5
		c-2.76,0-5-2.25-5-5.02c0-5.39,2.44-10.43,6.71-13.85c4.41-3.55,10.2-4.85,15.87-3.6c6.73,1.49,12.08,6.69,13.63,13.28
		c1.63,6.92-0.86,13.91-6.46,18.26c-4.06,3.14-6.38,7.41-6.38,11.7C-293.76,16.74-296.01,19.02-298.77,19.02L-298.77,19.02z
		 M-298.7,32c-2.76,0-5.02-2.25-5.02-5c0-2.76,2.23-5,4.99-5h0.04c2.77,0,5,2.25,5,5C-293.69,29.75-295.94,32-298.7,32L-298.7,32z
		 M-298.7,32"/>
</g>
<g>
	<path class="st7" d="M94.88,63.25H44.83c-2.76,0-5-2.25-5-5c0-2.76,2.25-5,5-5h50.05c2.76,0,5,2.25,5,5
		C99.88,61,97.63,63.25,94.88,63.25L94.88,63.25z M61.51,83.27H44.83c-2.76,0-5-2.25-5-5c0-2.76,2.25-5,5-5h16.68c2.76,0,5,2.25,5,5
		C66.52,81.02,64.27,83.27,61.51,83.27L61.51,83.27z M61.51,83.27"/>
	<path class="st7" d="M84.92,138.57h-55.1c-8.27,0-15.01-6.74-15.01-15.01V21.55c0-8.27,6.74-15.01,15.01-15.01h93.42
		c8.27,0,15.01,6.74,15.01,15.01v56.72c0,2.76-2.25,5-5,5c-2.76,0-5-2.25-5-5V21.55c0-2.76-2.25-5-5-5H29.81c-2.76,0-5,2.25-5,5
		v102.01c0,2.76,2.25,5,5,5h55.1c2.76,0,5,2.25,5,5C89.92,136.32,87.69,138.57,84.92,138.57L84.92,138.57z M84.92,138.57"/>
</g>
<g>
	<path class="st7" d="M-380.52,142.06c-3.39,3-8.4,2.48-11.19-1.15c-2.79-3.64-2.31-9.01,1.07-12.01l27.57-24.4
		c2.74-2.42,6.64-2.61,9.56-0.45l20.49,15.1l29.2-29c2.08-2.12,5.06-2.88,7.8-1.98c2.74,0.9,4.82,3.31,5.44,6.31
		c0.62,3-0.31,6.13-2.45,8.19l-33.87,33.64c-2.73,2.71-6.84,3.02-9.9,0.77l-20.8-15.34l-22.94,20.3V142.06z M-380.52,142.06"/>
</g>
<g>
	<path class="st7" d="M-343.79,334.94h-34.17c-4.05,0-7.34-3.36-7.34-7.51c0-4.15,3.29-7.51,7.34-7.51h34.17
		c4.05,0,7.34,3.36,7.34,7.51C-336.45,331.58-339.74,334.94-343.79,334.94L-343.79,334.94z M-283.06,334.69h-31.82
		c-6.65,0-12.06-5.54-12.06-12.35v-60.61c0-6.81,5.41-12.35,12.06-12.35h31.82c6.65,0,12.06,5.54,12.06,12.35v60.61
		C-271,329.15-276.41,334.69-283.06,334.69L-283.06,334.69z M-312.27,319.67h26.59v-55.25h-26.59V319.67z M-312.27,319.67"/>
	<path class="st7" d="M-343.79,333.17c-4.05,0-7.34-3.36-7.34-7.51v-18.95l-47.14,0.43h-0.07c-8.63,0-15.66-7.19-15.66-16.03v-76.7
		c0-8.84,7.03-16.03,15.66-16.03h109.1c8.64,0,15.66,7.19,15.66,16.03v20.21c0,4.15-3.29,7.51-7.34,7.51
		c-4.05,0-7.34-3.36-7.34-7.51v-20.21c0-0.54-0.46-1.01-0.98-1.01h-109.1c-0.52,0-0.98,0.47-0.98,1.01v76.7c0,0.53,0.45,1,0.97,1.01
		l54.5-0.5l0.07,0c4.05,0,7.34,3.36,7.34,7.51v26.53C-336.45,329.81-339.74,333.17-343.79,333.17L-343.79,333.17z M-343.79,333.17"
		/>
</g>
<text transform="matrix(1 0 0 1 301.8921 534.4227)" style="font-family:'AdobeSongStd-Light-GBpc-EUC-H'; font-size:12px;">career </text>
<g>
	<g>
		<path class="st7" d="M-439,476.16c0-0.39-0.05-0.73-0.1-0.97c0-1.32,0-2.64,0-3.95l0-5.5c0-9.29,0-18.58,0-27.87l0-0.24
			c0-0.61,0-0.86-0.01-1.07c0-0.1,0-0.21,0-0.31c0-0.26,0-0.58-0.03-0.94c-0.14-1.89-0.97-3.53-2.4-4.75
			c-1.88-1.6-4.03-1.6-4.74-1.6l-60.74,0l-0.07,0l-0.21,0c-4.07,0.03-7.25,3.18-7.25,7.17c0.01,10.09,0.01,20.36,0.01,30.29
			c0,5.05,0,10.09,0,15.13c0,0.52,0.03,1.31,0.3,2.16c0.93,3.01,3.64,4.96,6.91,4.99l1.8,0.01c2.08,0.02,4.23,0.03,6.35,0.03h0.42
			c10.75-0.01,21.5-0.03,32.25-0.05l8.68-0.01l3.34,0c2.79,0.01,5.58,0.01,8.37,0.01h0.27c1.52,0,2.95-0.51,4.14-1.46
			c1.18-0.94,2.59-2.68,2.59-5.59c0-1.35,0-2.93,0-4.5C-439.05,476.91-439,476.57-439,476.16L-439,476.16z M-448.99,437.11
			c-3.71,3.57-7.73,7.23-11.64,10.79c-4.81,4.38-9.78,8.91-14.22,13.3c-0.5,0.49-0.94,0.79-1.39,0.95c-0.26,0.09-0.61,0.2-1.39-0.31
			c-0.27-0.18-0.54-0.4-0.82-0.68c-4.43-4.38-9.39-8.9-14.18-13.27c-3.9-3.56-7.91-7.22-11.63-10.79L-448.99,437.11z
			 M-447.25,476.76c-0.01,1.3-0.01,2.6-0.01,3.79c-2.4,0-4.8-0.01-7.2-0.01l-2.17-0.01l-9.89,0.01c-10.75,0.02-21.5,0.04-32.24,0.05
			l-0.41,0c-2.09,0-4.23-0.02-6.29-0.03l-0.92-0.01c0-4.71,0-9.43,0-14.14c0-6.6,0-13.34,0-20.09c2.72,2.54,5.52,5.09,8.26,7.59
			c4.73,4.32,9.63,8.78,13.95,13.04c0.65,0.64,1.33,1.2,2.04,1.67c1.98,1.31,3.86,1.75,5.48,1.75c1.16,0,2.19-0.22,3.03-0.51
			c1.64-0.56,3.12-1.49,4.51-2.87c4.32-4.27,9.23-8.75,13.98-13.07c2.62-2.38,5.28-4.81,7.89-7.24c0,6.35,0,12.7,0,19.04l0,5.5
			c0,1.45,0,2.89,0,4.33c0,0.22,0.02,0.43,0.04,0.6C-447.23,476.34-447.25,476.54-447.25,476.76L-447.25,476.76z M-541.34,421.65
			c-27.18,8.2-46.15,34.76-46.15,64.57c0,2.64,2.19,4.77,4.89,4.77c2.7,0,4.89-2.14,4.89-4.77c0-25.67,16.15-48.47,39.26-55.45
			c2.58-0.78,4.03-3.45,3.23-5.97C-536.02,422.29-538.76,420.88-541.34,421.65L-541.34,421.65z M-476,387
			c-0.01-20.95-16.74-38-37.3-38c-20.57,0-37.3,17.05-37.3,38c0,20.96,16.73,38.01,37.3,38.01C-492.73,425.01-476,407.96-476,387
			L-476,387z M-538.28,387c0-14.16,11.53-25.68,25.69-25.68c14.16,0,25.69,11.52,25.69,25.68c0,14.17-11.53,25.69-25.69,25.69
			C-526.75,412.69-538.28,401.17-538.28,387L-538.28,387z M-538.28,387"/>
	</g>
</g>
<g>
	<g>
		<path class="st7" d="M-551.34,590.65c-27.18,8.2-46.15,34.76-46.15,64.57c0,2.64,2.19,4.77,4.89,4.77c2.7,0,4.89-2.14,4.89-4.77
			c0-25.67,16.15-48.47,39.26-55.45c2.58-0.78,4.03-3.45,3.23-5.97C-546.02,591.29-548.76,589.88-551.34,590.65L-551.34,590.65z
			 M-486,556c-0.01-20.95-16.74-38-37.3-38c-20.57,0-37.3,17.05-37.3,38c0,20.96,16.73,38.01,37.3,38.01
			C-502.73,594.01-486,576.96-486,556L-486,556z M-548.28,556c0-14.16,11.53-25.68,25.69-25.68c14.16,0,25.69,11.52,25.69,25.68
			c0,14.17-11.53,25.69-25.69,25.69C-536.75,581.69-548.28,570.17-548.28,556L-548.28,556z M-548.28,556"/>
	</g>
</g>
<g>
	<g>
		<defs>
			<rect id="SVGID_00000018195711397686503320000002866642495051107263_" x="-523.3" y="594" width="69.83" height="69.92"/>
		</defs>
		<clipPath id="SVGID_00000003795004163367040510000010869907623488629420_">
			<use xlink:href="#SVGID_00000018195711397686503320000002866642495051107263_"  style="overflow:visible;"/>
		</clipPath>
		<path style="clip-path:url(#SVGID_00000003795004163367040510000010869907623488629420_);fill:#FF0000;" d="M-488.41,663.83
			c-19.24,0-34.9-15.66-34.9-34.9c0-19.24,15.66-34.9,34.9-34.9c19.24,0,34.9,15.66,34.9,34.9c0,5.31-1.16,10.41-3.45,15.16
			c-0.93,1.92-3.23,2.73-5.15,1.8c-1.92-0.93-2.73-3.23-1.8-5.15c1.78-3.69,2.69-7.66,2.69-11.8c0-14.99-12.19-27.18-27.18-27.18
			c-14.99,0-27.18,12.19-27.18,27.18c0,14.99,12.19,27.18,27.18,27.18c6.07,0,11.8-1.95,16.59-5.65c1.69-1.3,4.11-0.99,5.42,0.7
			c1.3,1.69,0.99,4.11-0.7,5.41C-473.26,661.32-480.63,663.83-488.41,663.83L-488.41,663.83z M-488.41,663.83"/>
	</g>
	<path class="st7" d="M-474.94,625.07h-9.62v-9.62c0-2.13-1.73-3.86-3.86-3.86c-2.13,0-3.86,1.73-3.86,3.86v9.62h-9.62
		c-2.13,0-3.86,1.73-3.86,3.86c0,2.13,1.73,3.86,3.86,3.86h9.62v9.62c0,2.13,1.73,3.86,3.86,3.86c2.13,0,3.86-1.73,3.86-3.86v-9.62
		h9.62c2.13,0,3.86-1.73,3.86-3.86C-471.08,626.8-472.81,625.07-474.94,625.07L-474.94,625.07z M-474.94,625.07"/>
</g>
<path class="st7" d="M109.32,81.09c2.13-0.53,4.39,0.01,6.04,1.47l15.01,15.01c1.54,1.53,2.16,3.75,1.65,5.86l-1.83,7.14
	c-0.22,0.92,0.06,1.89,0.73,2.56l9.89,9.89c1.4,1.37,2.2,3.25,2.2,5.22c0,1.96-0.79,3.84-2.2,5.22l-5.48,5.5
	c-1.37,1.4-3.25,2.2-5.22,2.2c-1.96,0-3.85-0.79-5.22-2.2l-9.89-9.89c-0.67-0.67-1.64-0.95-2.56-0.73l-6.77,1.83
	c-2.37,0.61-4.88-0.09-6.59-1.83l-14.46-14.46c-1.71-1.73-2.35-4.26-1.65-6.59l2.01-7.87c0.35-1.59,1.54-2.86,3.11-3.29
	c1.55-0.53,3.27-0.1,4.39,1.1l5.86,5.86l5.12-1.28l1.28-5.12l-5.86-5.86c-1.23-1.18-1.72-2.93-1.28-4.58
	c0.43-1.57,1.7-2.77,3.29-3.11L109.32,81.09z"/>
<path class="st7" d="M110.24,91.89c1.71,1.65,2.34,4.12,1.65,6.39l-1.47,6.04c-0.59,2.24-2.34,3.99-4.58,4.58l-6.04,1.65
	c-2.27,0.58-4.68-0.04-6.39-1.65l-2.75-2.75l-0.73,2.93l13.91,13.91l6.59-1.65c3.4-0.88,7.02,0.09,9.52,2.56l8.05,8.05l1.83,1.83
	l5.49-5.49l-1.83-1.83l-8.05-8.05c-2.5-2.48-3.48-6.12-2.56-9.52l1.65-6.39l-13.91-13.91l-3.11,0.73L110.24,91.89z"/>
</svg>
