<?xml version="1.0" encoding="utf-8"?>
<!-- Generator: Adobe Illustrator 27.0.1, SVG Export Plug-In . SVG Version: 6.00 Build 0)  -->
<svg version="1.1" id="图层_1" xmlns="http://www.w3.org/2000/svg" xmlns:xlink="http://www.w3.org/1999/xlink" x="0px" y="0px"
	 viewBox="0 0 150 150" style="enable-background:new 0 0 150 150;" xml:space="preserve">
<style type="text/css">
	.st0{fill:#3A5A98;}
	.st1{fill:#CA2128;}
	.st2{fill:#2E80FF;}
	.st3{fill:url(#SVGID_1_);}
	.st4{fill:#FFFFFF;}
	.st5{fill:url(#SVGID_00000174566184292530140960000017499669277295300286_);}
	.st6{fill:#B90087;}
	.st7{fill:#FF0000;}
	.st8{fill:none;stroke:#FF0000;stroke-width:9;stroke-miterlimit:10;}
	.st9{fill:none;stroke:#FF0000;stroke-width:12;stroke-miterlimit:10;}
	.st10{fill:none;stroke:#FF0000;stroke-width:2;stroke-linecap:round;stroke-miterlimit:10;}
	.st11{clip-path:url(#SVGID_00000059988860337685692540000010373418444262194342_);fill:#FF0000;}
	.st12{clip-path:url(#SVGID_00000178911673302291404170000003426670510664181181_);fill:#FF0000;}
	.st13{clip-path:url(#SVGID_00000014626140825076946150000016724641798036073881_);fill:#FF0000;}
</style>
<path class="st0" d="M528,511.21c0,12.59-10.19,22.79-22.77,22.79H400.92c-12.58,0-22.77-10.21-22.77-22.79V406.79
	c0-12.59,10.2-22.79,22.77-22.79h104.31c12.58,0,22.77,10.2,22.77,22.79V511.21z"/>
<path class="st1" d="M325,509.21c0,12.59-10.19,22.79-22.77,22.79H197.92c-12.58,0-22.77-10.2-22.77-22.79V404.79
	c0-12.59,10.2-22.79,22.77-22.79h104.31c12.58,0,22.77,10.21,22.77,22.79V509.21z"/>
<path class="st2" d="M143,506.21c0,12.59-10.21,22.79-22.79,22.79H15.79C3.2,529-7,518.8-7,506.21V401.79
	C-7,389.21,3.2,379,15.79,379h104.41c12.59,0,22.79,10.21,22.79,22.79V506.21z"/>
<path d="M-41,508.21C-41,520.8-51.2,531-63.79,531h-104.41c-12.59,0-22.79-10.2-22.79-22.79V403.79c0-12.59,10.21-22.79,22.79-22.79
	h104.41C-51.2,381-41,391.2-41,403.79V508.21z"/>
<linearGradient id="SVGID_1_" gradientUnits="userSpaceOnUse" x1="-195.8693" y1="1205.5013" x2="-45.8693" y2="1205.5013" gradientTransform="matrix(0 -1 1 0 -574.5013 342.1307)">
	<stop  offset="0" style="stop-color:#F3CA5F"/>
	<stop  offset="0.2151" style="stop-color:#F88827"/>
	<stop  offset="0.4301" style="stop-color:#DC2D5C"/>
	<stop  offset="0.7097" style="stop-color:#A44882"/>
	<stop  offset="1" style="stop-color:#46469B"/>
</linearGradient>
<path class="st3" d="M683.21,388c12.59,0,22.79,10.21,22.79,22.79v104.41c0,12.59-10.2,22.79-22.79,22.79H578.79
	C566.2,538,556,527.8,556,515.21V410.79c0-12.59,10.2-22.79,22.79-22.79H683.21z"/>
<path class="st4" d="M493.2,471.51l2.43-18.81H477v-12.01c0-5.44,1.52-9.16,9.32-9.16l9.95-0.01v-16.82
	c-1.72-0.23-7.62-0.74-14.51-0.74c-14.36,0-24.18,8.77-24.18,24.86v13.87h-16.24v18.81h16.24v48.25H477v-48.25H493.2z"/>
<path class="st4" d="M241.17,401.27h-6.53l-4.4,16.93l-4.58-16.93h-6.8c1.36,3.99,2.78,8.01,4.14,12.01
	c2.07,6.01,3.36,10.54,3.95,13.64v17.46h6.46v-17.46L241.17,401.27z M258.43,433.97v-11.25c0-3.43-0.59-5.94-1.81-7.57
	c-1.61-2.19-3.87-3.29-6.79-3.29c-2.9,0-5.17,1.1-6.78,3.29c-1.24,1.63-1.82,4.13-1.82,7.57v11.25c0,3.41,0.58,5.94,1.82,7.56
	c1.61,2.19,3.88,3.29,6.78,3.29c2.92,0,5.18-1.1,6.79-3.29C257.84,439.92,258.43,437.39,258.43,433.97z M252.6,435.07
	c0,2.97-0.9,4.46-2.77,4.46c-1.88,0-2.78-1.49-2.78-4.46v-13.51c0-2.97,0.9-4.45,2.78-4.45c1.88,0,2.77,1.48,2.77,4.45V435.07z
	 M279.95,444.38v-32.12h-5.82v24.55c-1.29,1.82-2.52,2.73-3.68,2.73c-0.78,0-1.24-0.46-1.36-1.36c-0.07-0.19-0.07-0.9-0.07-2.27
	v-23.65h-5.8v25.4c0,2.26,0.2,3.8,0.52,4.78c0.58,1.63,1.87,2.39,3.75,2.39c2.12,0,4.33-1.29,6.65-3.95v3.51H279.95z"/>
<path class="st4" d="M298.81,483.36c0,7.43-0.01,15.32-1.67,22.53c-1.16,5.06-5.31,8.8-10.3,9.37c-11.82,1.32-23.78,1.32-35.69,1.32
	c-11.91,0.01-23.87,0-35.69-1.32c-4.99-0.56-9.14-4.3-10.3-9.37c-1.66-7.22-1.66-15.1-1.66-22.53c0-7.44,0.02-15.31,1.68-22.53
	c1.16-5.06,5.31-8.8,10.3-9.36c11.82-1.32,23.78-1.33,35.69-1.32c11.91,0,23.87,0,35.69,1.32c4.99,0.55,9.14,4.29,10.3,9.36
	C298.82,468.05,298.81,475.93,298.81,483.36z"/>
<path class="st1" d="M230.68,467.33v-6.01H210.6v6.01h6.78v36.65h6.41v-36.65H230.68z M242.32,503.98v-3.46
	c-2.29,2.62-4.46,3.9-6.58,3.9c-1.86,0-3.14-0.75-3.71-2.36c-0.32-0.97-0.51-2.48-0.51-4.73v-25.14h5.76v23.4
	c0,1.35,0,2.05,0.05,2.24c0.14,0.89,0.58,1.35,1.35,1.35c1.15,0,2.37-0.89,3.64-2.69v-24.3h5.77v31.79H242.32z M264.21,494.9
	c0,2.87-0.85,4.29-2.51,4.29c-0.95,0-1.91-0.45-2.87-1.41v-19.38c0.96-0.95,1.92-1.4,2.87-1.4c1.66,0,2.51,1.47,2.51,4.34V494.9z
	 M269.97,494.44v-12.66c0-3.01-0.2-5.11-0.58-6.39c-0.77-2.38-2.31-3.59-4.61-3.59c-2.12,0-4.09,1.16-5.95,3.45v-13.93h-5.76v42.66
	h5.76v-3.08c1.92,2.38,3.9,3.52,5.95,3.52c2.3,0,3.84-1.21,4.61-3.57C269.77,499.5,269.97,497.38,269.97,494.44z M285.95,484.34
	h-5.76v-2.94c0-2.94,0.96-4.41,2.89-4.41c1.9,0,2.87,1.47,2.87,4.41V484.34z M291.71,493.81v-0.84h-5.88c0,2.31-0.07,3.58-0.12,3.9
	c-0.33,1.54-1.16,2.31-2.58,2.31c-1.98,0-2.94-1.46-2.94-4.41v-5.63h11.52v-6.58c0-3.4-0.58-5.89-1.79-7.49
	c-1.61-2.18-3.9-3.26-6.79-3.26c-2.94,0-5.24,1.08-6.9,3.26c-1.23,1.61-1.78,4.09-1.78,7.49v11.13c0,3.37,0.62,5.88,1.85,7.47
	c1.66,2.17,3.95,3.26,6.97,3.26c3.01,0,5.37-1.14,6.97-3.45c0.7-1.02,1.15-2.18,1.34-3.45
	C291.64,496.94,291.71,495.66,291.71,493.81z"/>
<g>
	<path class="st4" d="M14.17,500.5v-70H35v70H14.17z"/>
	<path class="st4" d="M46.09,500.5v-70H71.4v10.24c3.26-4.08,6.9-7.12,10.91-9.11s8.55-2.99,13.62-2.99c4.25,0,8.05,0.71,11.4,2.12
		c3.35,1.42,6.18,3.52,8.5,6.31c2.1,2.53,3.6,5.61,4.48,9.24c0.88,3.63,1.32,9.56,1.32,17.81v36.38H93.81v-36.25
		c0-5.32-0.71-8.98-2.12-10.98c-1.42-2-3.87-2.99-7.34-2.99c-3.52,0-6.14,1.16-7.86,3.48c-1.72,2.32-2.58,5.86-2.58,10.63v36.12
		H46.09z"/>
</g>
<circle class="st4" cx="24.5" cy="413.5" r="11.5"/>
<path d="M-86.8,416"/>
<polygon class="st4" points="-77.04,415 -163.32,503 -154.14,503 -69.58,415 "/>
<path class="st4" d="M-166,415h23.24L-67,503c-7.75,0-15.5,0-23.24,0C-115.5,473.67-140.75,444.33-166,415z"/>
<path d="M-157.39,420h13.73l44.77,52c-4.58,0-9.16,0-13.73,0C-127.55,454.67-142.47,437.33-157.39,420z"/>
<path d="M-135.01,446h13.73l44.77,52c-4.58,0-9.16,0-13.73,0C-105.17,480.67-120.09,463.33-135.01,446z"/>
<g>
	<g>
		<path class="st4" d="M658.24,512.48h-52.59c-11.99,0-21.76-9.76-21.76-21.76v-52.58c0-12,9.77-21.77,21.76-21.77h52.59
			c11.99,0,21.76,9.76,21.76,21.77v52.58C680,502.72,670.23,512.48,658.24,512.48z"/>
		<path class="st4" d="M605.65,425.94c-6.72,0-12.19,5.47-12.19,12.2v52.58c0,6.73,5.47,12.2,12.19,12.2h52.59
			c6.72,0,12.19-5.47,12.19-12.2v-52.58c0-6.72-5.47-12.2-12.19-12.2H605.65z"/>
	</g>
</g>
<g>
	
		<linearGradient id="SVGID_00000095318980422026009070000009059808682588971199_" gradientUnits="userSpaceOnUse" x1="-148.3478" y1="1208.4337" x2="-87.2154" y2="1208.4337" gradientTransform="matrix(0 -1 1 0 -576.7622 346.6522)">
		<stop  offset="0" style="stop-color:#F3CA5F"/>
		<stop  offset="0.2151" style="stop-color:#F88827"/>
		<stop  offset="0.4301" style="stop-color:#DC2D5C"/>
		<stop  offset="0.7097" style="stop-color:#A44882"/>
		<stop  offset="1" style="stop-color:#46469B"/>
	</linearGradient>
	<path style="fill:url(#SVGID_00000095318980422026009070000009059808682588971199_);" d="M601.11,464.44
		c0,16.86,13.71,30.56,30.57,30.56c16.86,0,30.57-13.71,30.57-30.56c0-16.85-13.71-30.57-30.57-30.57
		C614.81,433.87,601.11,447.58,601.11,464.44z M650.47,464.44c0,10.37-8.43,18.8-18.8,18.8c-10.36,0-18.8-8.43-18.8-18.8
		c0-10.37,8.44-18.8,18.8-18.8C642.04,445.64,650.47,454.06,650.47,464.44z"/>
</g>
<path class="st6" d="M657.43,433.07c0,3.49,2.82,6.3,6.31,6.3c3.47,0,6.3-2.81,6.3-6.3c0-3.48-2.83-6.31-6.3-6.31
	C660.25,426.76,657.43,429.59,657.43,433.07z"/>
<g>
	<g>
		<path class="st7" d="M270.26,51.57l50.55-27.28c3.75-2.02,8.26-2.02,12.01,0l50.55,27.28c4.09,2.21,6.63,6.48,6.63,11.12v64.17
			c0,6.98-5.66,12.64-12.64,12.64h-101.1c-6.98,0-12.64-5.66-12.64-12.64V62.69C263.62,58.05,266.17,53.78,270.26,51.57
			L270.26,51.57z M276.26,62.69v64.17h101.1V62.69l-50.55-27.28L276.26,62.69z M276.26,62.69"/>
		<path class="st7" d="M326,111L326,111c-4.95,0-9-4.05-9-9V78c0-4.95,4.05-9,9-9l0,0c4.95,0,9,4.05,9,9v24
			C335,106.95,330.95,111,326,111z"/>
	</g>
</g>
<g>
	<g>
		<path class="st7" d="M424.26,53.57l50.55-27.28c3.75-2.02,8.26-2.02,12.01,0l50.55,27.28c4.09,2.21,6.63,6.48,6.63,11.12v64.17
			c0,6.98-5.66,12.64-12.64,12.64h-101.1c-6.98,0-12.64-5.66-12.64-12.64V64.69C417.62,60.05,420.17,55.78,424.26,53.57
			L424.26,53.57z M430.26,64.69v64.17h101.1V64.69l-50.55-27.28L430.26,64.69z M430.26,64.69"/>
		<path class="st7" d="M480,113L480,113c-4.95,0-9-4.05-9-9V80c0-4.95,4.05-9,9-9l0,0c4.95,0,9,4.05,9,9v24
			C489,108.95,484.95,113,480,113z"/>
	</g>
</g>
<g>
	<g>
		<path class="st7" d="M380.24,164.71c-0.08,45.43-0.16,90.86-0.24,136.29c-44-0.33-88-0.67-132-1c0.12-25.24,0.24-50.49,0.36-75.73
			l55.3-13.83v-45.73c0-2.26,0.9-4.42,2.49-6.02c1.6-1.59,3.76-2.49,6.02-2.49h59.56C376.43,156.2,380.24,160.01,380.24,164.71z
			 M261.12,288.08h42.54v-64.48l-42.54,10.63V288.08z M316.43,288.08h51.05V168.96h-51.05V288.08z M316.43,288.08"/>
	</g>
</g>
<path class="st7" d="M342,253L342,253c-4.4,0-8-3.6-8-8v-37c0-4.4,3.6-8,8-8l0,0c4.4,0,8,3.6,8,8v37C350,249.4,346.4,253,342,253z"
	/>
<path class="st7" d="M282,276L282,276c-4.4,0-8-3.6-8-8v-14c0-4.4,3.6-8,8-8l0,0c4.4,0,8,3.6,8,8v14C290,272.4,286.4,276,282,276z"
	/>
<g>
	<g>
		<path class="st7" d="M536.24,168.71c-0.08,45.43-0.16,90.86-0.24,136.29c-44-0.33-88-0.67-132-1c0.12-25.24,0.24-50.49,0.36-75.73
			l55.3-13.83v-45.73c0-2.26,0.9-4.42,2.49-6.02c1.6-1.59,3.76-2.49,6.02-2.49h59.56C532.43,160.2,536.24,164.01,536.24,168.71z
			 M417.12,292.08h42.54v-64.48l-42.54,10.63V292.08z M472.43,292.08h51.05V172.96h-51.05V292.08z M472.43,292.08"/>
	</g>
</g>
<path class="st7" d="M498,257L498,257c-4.4,0-8-3.6-8-8v-37c0-4.4,3.6-8,8-8l0,0c4.4,0,8,3.6,8,8v37C506,253.4,502.4,257,498,257z"
	/>
<path class="st7" d="M438,280L438,280c-4.4,0-8-3.6-8-8v-14c0-4.4,3.6-8,8-8l0,0c4.4,0,8,3.6,8,8v14C446,276.4,442.4,280,438,280z"
	/>
<g>
	<path class="st7" d="M483,43c-1.56,4.13-3.78,7.82-6.22,11.42l-0.67-3.41c3.12,1.45,6.13,3.09,9.06,4.89l2.82,1.72
		c-2.55,2.33-5.24,4.78-8.04,6.82c-2.05,1.5-4.14,2.91-6.45,4.05c2.29-4.5,5.45-8.47,8.8-12.2l0.53,3.8
		c-3.91-1.91-7.7-4.27-11.35-6.66C475,49.62,478.6,45.88,483,43L483,43z"/>
</g>
<g>
	<path class="st7" d="M484-45c-1.56,4.13-3.78,7.82-6.22,11.42l-0.67-3.41c3.12,1.45,6.13,3.09,9.06,4.89l2.82,1.72
		c-2.55,2.33-5.24,4.78-8.04,6.82c-2.05,1.5-4.14,2.91-6.45,4.05c2.29-4.5,5.45-8.47,8.8-12.2l0.53,3.8
		c-3.91-1.91-7.7-4.27-11.35-6.66C476-38.38,479.6-42.12,484-45L484-45z"/>
</g>
<g>
	<path class="st7" d="M502,175c-1.56,4.13-3.78,7.82-6.22,11.42l-0.67-3.41c3.12,1.45,6.13,3.09,9.06,4.89l2.82,1.72
		c-2.55,2.33-5.24,4.78-8.04,6.82c-2.05,1.5-4.14,2.91-6.45,4.05c2.29-4.5,5.45-8.47,8.8-12.2c0,0,0.53,3.8,0.53,3.8
		c-3.91-1.91-7.7-4.27-11.35-6.66C494,181.62,497.6,177.88,502,175L502,175z"/>
</g>
<path class="st8" d="M341.5-3h-41c-6.6,0-12-5.4-12-12v-96.5c0-6.6,5.4-12,12-12h41c6.6,0,12,5.4,12,12V-15
	C353.5-8.4,348.1-3,341.5-3z"/>
<circle class="st7" cx="321.5" cy="-85.5" r="9.5"/>
<circle class="st7" cx="514.5" cy="-104.5" r="9.5"/>
<path class="st7" d="M295.73,2H264c-6.6,0-12-5.4-12-12v-63.5c0-6.6,5.4-12,12-12h31.73c6.6,0,12,5.4,12,12V-10
	C307.73-3.4,302.33,2,295.73,2z"/>
<circle class="st4" cx="281" cy="-55" r="8"/>
<path class="st9" d="M532-1H426c-6.6,0-12-5.4-12-12v-108c0-6.6,5.4-12,12-12h106c6.6,0,12,5.4,12,12v108C544-6.4,538.6-1,532-1z"/>
<line class="st10" x1="480" y1="-85" x2="480" y2="-57"/>
<g>
	<g>
		<path class="st7" d="M368.66-231.34v54.45H283.1v-85.56h54.84c-0.21-1.29-0.34-2.59-0.39-3.89c0.04-3.99,0.78-7.94,2.18-11.67
			H283.1c-8.59,0-15.56,6.96-15.56,15.56v85.56c0,8.59,6.96,15.56,15.56,15.56h85.56c8.59,0,15.56-6.96,15.56-15.56v-56.63
			c-3.73,1.4-7.68,2.14-11.67,2.18C371.26-231.26,369.96-231.26,368.66-231.34L368.66-231.34z M368.44-276.79
			c-6.29,0-11.97,3.79-14.37,9.6c-2.41,5.81-1.08,12.51,3.37,16.95c4.45,4.45,11.14,5.78,16.95,3.37c5.81-2.41,9.6-8.08,9.6-14.37
			C384-269.83,377.04-276.79,368.44-276.79L368.44-276.79z M376.44-285.79"/>
	</g>
</g>
<g>
	<g>
		<path class="st7" d="M688.27-78.13v64.66h-103v-101.61h66.01c-0.25-1.53-0.4-3.07-0.47-4.62c0.05-4.73,0.93-9.42,2.62-13.85
			h-68.17c-10.34,0-18.73,8.27-18.73,18.47v101.61c0,10.2,8.38,18.47,18.73,18.47h103C698.62,5,707-3.27,707-13.47v-67.25
			c-4.49,1.66-9.25,2.54-14.05,2.59C691.4-78.04,689.83-78.04,688.27-78.13L688.27-78.13z M688.01-132.1c-7.58,0-14.4,4.5-17.3,11.4
			c-2.9,6.9-1.3,14.85,4.06,20.13c5.36,5.28,13.41,6.86,20.41,4c7-2.86,11.56-9.6,11.56-17.07
			C706.73-123.83,698.35-132.1,688.01-132.1L688.01-132.1z M697.64-142.79"/>
	</g>
</g>
<g>
	<g>
		<path class="st7" d="M119.13,128.53H97.27h10.93v13.21H64.47v-13.21H75.4H53.53c-12.08,0-21.87-11.83-21.87-26.43V49.25h21.87
			v52.86h65.6V36.03h-32.8V9.61h32.8c12.08,0,21.87,11.83,21.87,26.43v66.07C141,116.7,131.21,128.53,119.13,128.53z M31.67,36.03
			H9.8V9.61h65.6v26.43H53.53"/>
	</g>
</g>
<g>
	<g>
		<path class="st7" d="M524.88-324.4h-96.36c-6.14,0-11.12-4.98-11.12-11.12v-66.71c0-6.14,4.98-11.12,11.12-11.12h11.12v-18.53
			c0-6.14,4.98-11.12,11.12-11.12h74.12c6.14,0,11.12,4.98,11.12,11.12v96.36C536-329.38,531.02-324.4,524.88-324.4L524.88-324.4z
			 M521.18-398.53v-18.53c0-6.14-4.98-11.12-11.12-11.12h-44.47c-6.14,0-11.12,4.98-11.12,11.12v63.01c0,4.09-3.32,7.41-7.41,7.41
			c-4.09,0-7.41-3.32-7.41-7.41v-43.79c-4.43,1.56-7.4,5.74-7.41,10.44v37.06c0,6.14,4.98,11.12,11.12,11.12h66.71
			c6.14,0,11.12-4.98,11.12-11.12V-398.53z M498.94-354.05H476.7c-4.09,0-7.41-3.32-7.41-7.41c0-4.09,3.32-7.41,7.41-7.41h22.24
			c4.09,0,7.41,3.32,7.41,7.41C506.35-357.37,503.03-354.05,498.94-354.05L498.94-354.05z M498.94-376.29H476.7
			c-4.09,0-7.41-3.32-7.41-7.41c0-4.09,3.32-7.41,7.41-7.41h22.24c4.09,0,7.41,3.32,7.41,7.41
			C506.35-379.61,503.03-376.29,498.94-376.29L498.94-376.29z M498.94-398.53H476.7c-4.09,0-7.41-3.32-7.41-7.41
			s3.32-7.41,7.41-7.41h22.24c4.09,0,7.41,3.32,7.41,7.41S503.03-398.53,498.94-398.53L498.94-398.53z M498.94-398.53"/>
	</g>
</g>
<g>
</g>
<g>
	<g>
		<path class="st7" d="M526.84-287.25l13.4,16.97c0.89,0.89,0,1.79-0.89,2.68l-42.87,33.05c-0.89,0.89-19.65-0.89-19.65-0.89
			s3.57-17.86,4.47-18.76l42.87-33.04C525.06-288.14,525.95-288.14,526.84-287.25L526.84-287.25z M526.84-287.25"/>
		<path class="st7" d="M493.8-230.98c-2.68,0-20.54-0.89-20.54-0.89s4.46-24.11,5.36-25.01l42.87-33.05
			c2.68-1.79,5.36-1.79,7.14,0.89l13.4,16.97c1.79,1.79,0.89,5.36-0.89,7.14l-42.87,33.05C497.37-230.98,497.37-230.98,493.8-230.98
			L493.8-230.98z M480.41-238.13c6.25,0,11.61,0.89,14.29,0.89l41.08-32.15l-10.72-14.29l-41.08,32.15
			C483.08-249.74,482.19-244.38,480.41-238.13L480.41-238.13z M480.41-238.13"/>
		<path class="st7" d="M478-267c0.11-5.21,0.22-10.42,0.33-15.64h-44.84c-10.13,0-18.34,8.21-18.34,18.34v84.03
			c0,10.13,8.21,18.34,18.34,18.34h82.52c10.13,0,18.34-8.21,18.34-18.34v-51.46c-4.78-0.09-9.57-0.18-14.35-0.27
			c0,17.33,0,34.67,0,52c-0.01,0.47-0.09,1.76-1,3c-1.08,1.47-2.58,1.9-3,2c-27,0-54,0-81,0c-0.73-0.13-2.45-0.55-4-2
			c-1.18-1.11-1.74-2.32-2-3c0-27,0-54,0-81c-0.02-0.2-0.29-3.27,2-5c1.17-0.89,2.45-0.99,3-1C448.67-267,463.33-267,478-267z
			 M478.28-273.47"/>
	</g>
</g>
<g>
	<g>
		<path class="st7" d="M792-430c0.11-5.21,0.22-10.42,0.33-15.64h-44.84c-10.13,0-18.34,8.21-18.34,18.34v84.03
			c0,10.13,8.21,18.34,18.34,18.34h82.52c10.13,0,18.34-8.21,18.34-18.34v-51.46c-4.78-0.09-9.57-0.18-14.35-0.27
			c0,17.33,0,34.67,0,52c-0.01,0.47-0.09,1.76-1,3c-1.08,1.47-2.58,1.9-3,2c-27,0-54,0-81,0c-0.73-0.13-2.45-0.55-4-2
			c-1.18-1.11-1.74-2.32-2-3c0-27,0-54,0-81c-0.02-0.2-0.29-3.27,2-5c1.17-0.89,2.45-0.99,3-1C762.67-430,777.33-430,792-430z
			 M792.28-436.47"/>
		<path class="st7" d="M836.59-440.94L836.59-440.94c-4.11-3.65-10.47-3.27-14.12,0.84l-23.9,26.92
			c-3.65,4.11-3.27,10.47,0.84,14.12l0,0c4.11,3.65,10.47,3.27,14.12-0.84l23.9-26.92C841.08-430.93,840.7-437.29,836.59-440.94z"/>
	</g>
</g>
<g>
	<g>
		<defs>
			<rect id="SVGID_00000138531161293140977460000002462278378372620954_" x="573" y="-283" width="109" height="123"/>
		</defs>
		<clipPath id="SVGID_00000131342980275154541300000002468381428708457644_">
			<use xlink:href="#SVGID_00000138531161293140977460000002462278378372620954_"  style="overflow:visible;"/>
		</clipPath>
		<path style="clip-path:url(#SVGID_00000131342980275154541300000002468381428708457644_);fill:#FF0000;" d="M573-259.31
			c0-6.26,2.46-12.26,6.84-16.69c4.38-4.42,10.32-6.91,16.52-6.91h62.3c6.2,0,12.14,2.49,16.52,6.91
			c4.38,4.43,6.84,10.43,6.84,16.69v75.51c0,6.26-2.46,12.26-6.84,16.68c-4.38,4.43-10.32,6.91-16.52,6.91h-62.3
			c-6.2,0-12.14-2.49-16.52-6.91c-4.38-4.42-6.84-10.43-6.84-16.68V-259.31z M596.36-273.47c-3.72,0-7.28,1.49-9.91,4.15
			c-2.63,2.65-4.11,6.26-4.11,10.01v75.51c0,3.75,1.48,7.36,4.11,10.01c2.63,2.65,6.19,4.15,9.91,4.15h62.3
			c3.72,0,7.28-1.49,9.91-4.15c2.63-2.65,4.11-6.26,4.11-10.01v-75.51c0-3.76-1.48-7.36-4.11-10.01c-2.63-2.66-6.19-4.15-9.91-4.15
			H596.36z M596.36-273.47"/>
	</g>
	<path class="st7" d="M590.8-246.8c0-2.33,0.69-4.57,1.93-6.22c1.23-1.65,2.9-2.58,4.65-2.58h35.05c3.63,0,6.57,3.94,6.57,8.8
		c0,4.86-2.94,8.8-6.57,8.8h-35.05c-1.74,0-3.42-0.93-4.65-2.58C591.5-242.23,590.8-244.47,590.8-246.8L590.8-246.8z M590.8-220.8
		c0-2.33,0.89-4.57,2.49-6.22c1.59-1.65,3.75-2.58,6-2.58h45.23c4.68,0,8.48,3.94,8.48,8.8c0,4.86-3.8,8.8-8.48,8.8h-45.23
		c-2.25,0-4.41-0.93-6-2.58C591.7-216.23,590.8-218.47,590.8-220.8L590.8-220.8z M590.8-194.8c0-2.33,1.08-4.57,3-6.22
		c1.92-1.65,4.53-2.58,7.25-2.58h54.69c5.66,0,10.25,3.94,10.25,8.8c0,4.86-4.59,8.8-10.25,8.8h-54.69c-2.72,0-5.33-0.93-7.25-2.58
		C591.89-190.23,590.8-192.47,590.8-194.8L590.8-194.8z M596.8-202.99"/>
</g>
<g>
	<g>
		<defs>
			<rect id="SVGID_00000150099748777824111160000016055399940798573476_" x="1068" y="-124" width="140" height="132"/>
		</defs>
		<clipPath id="SVGID_00000158744755471351038240000003591711828722149815_">
			<use xlink:href="#SVGID_00000150099748777824111160000016055399940798573476_"  style="overflow:visible;"/>
		</clipPath>
		<path style="clip-path:url(#SVGID_00000158744755471351038240000003591711828722149815_);fill:#FF0000;" d="M1068-98.57
			c0-6.72,3.16-13.16,8.79-17.91c5.63-4.75,13.26-7.42,21.22-7.42h80.01c7.96,0,15.59,2.67,21.22,7.42
			c5.63,4.75,8.79,11.19,8.79,17.91v81.03c0,6.72-3.16,13.16-8.79,17.91c-5.63,4.75-13.26,7.42-21.22,7.42H1098
			c-7.96,0-15.59-2.67-21.22-7.42c-5.63-4.75-8.79-11.19-8.79-17.91V-98.57z M1098-113.77c-4.78,0-9.35,1.6-12.73,4.45
			c-3.38,2.85-5.27,6.71-5.27,10.74v81.03c0,4.03,1.9,7.89,5.27,10.74c3.38,2.85,7.95,4.45,12.73,4.45h80.01
			c4.78,0,9.35-1.6,12.73-4.45c3.38-2.85,5.27-6.71,5.27-10.74v-81.03c0-4.03-1.9-7.89-5.27-10.74c-3.38-2.85-7.95-4.45-12.73-4.45
			H1098z M1098-113.77"/>
	</g>
</g>
<g>
	<path class="st7" d="M621.73-87.27c0-0.3,0.12-0.58,0.33-0.79c0.21-0.21,0.49-0.33,0.79-0.33h18.8c0.3,0,0.58,0.12,0.79,0.33
		c0.21,0.21,0.33,0.5,0.33,0.79v3.92c0,0.64-0.52,1.15-1.15,1.15h-9.48c-0.46,0-0.9,0.19-1.22,0.52c-0.32,0.33-0.5,0.77-0.5,1.23
		c-0.01,0.95,0.76,1.73,1.72,1.74h7.54c0.62,0,1.12,0.5,1.12,1.12v3.92c0,0.64-0.52,1.15-1.15,1.15h-7.52
		c-0.46,0-0.9,0.19-1.22,0.51c-0.32,0.33-0.5,0.77-0.5,1.23v0.28c0,0.46,0.17,0.9,0.5,1.23c0.32,0.33,0.76,0.51,1.22,0.52h10.06
		c0.3,0,0.58,0.12,0.79,0.33c0.21,0.21,0.33,0.49,0.33,0.79v3.92c0,0.63-0.52,1.15-1.15,1.15h-19.34c-0.3,0-0.58-0.12-0.79-0.33
		c-0.21-0.21-0.33-0.5-0.33-0.79L621.73-87.27z M621.73-87.27"/>
	<path class="st7" d="M592.63-87.48c0-0.65,0.53-1.18,1.18-1.18h5.97c0.39,0,0.76,0.2,0.97,0.52l8.55,12.95l-0.28-4.13v-8.15
		c0-0.31,0.12-0.62,0.35-0.84c0.22-0.22,0.52-0.35,0.84-0.35h5.99c0.31,0,0.6,0.12,0.82,0.34c0.22,0.22,0.34,0.51,0.34,0.82v23.52
		c0,0.65-0.53,1.18-1.18,1.18h-6.25c-0.39,0-0.75-0.2-0.97-0.53l-8.55-13.27l0.28,4.17v8.44c0,0.31-0.13,0.62-0.35,0.84
		c-0.22,0.22-0.52,0.35-0.84,0.35h-5.72c-0.64,0-1.16-0.52-1.16-1.16L592.63-87.48z M592.63-87.48"/>
	<path class="st7" d="M679.17-35.27c0,1.86-0.99,3.36-2.21,3.36h-83.84c-1.22,0-2.21-1.51-2.21-3.36v-4.47
		c0-1.86,0.99-3.36,2.21-3.36h83.84c1.22,0,2.21,1.51,2.21,3.36V-35.27z M679.17-35.27"/>
	<path class="st7" d="M674.17-62.72c-0.07,0.32-0.35,0.56-0.67,0.56h-7.14c-0.33-0.01-0.61-0.24-0.67-0.56l-2.27-11.17
		c-0.05-0.33-0.34-0.58-0.68-0.57c-0.34,0-0.62,0.26-0.66,0.59l-2,11.12c-0.05,0.34-0.34,0.59-0.69,0.59h-7.14
		c-0.32,0-0.59-0.22-0.66-0.53l-6.16-25.04c-0.06-0.21-0.01-0.44,0.12-0.62c0.13-0.18,0.34-0.28,0.56-0.29h6.95
		c0.34,0,0.63,0.25,0.69,0.59l1.99,11.4c0.05,0.33,0.34,0.58,0.67,0.58c0.34,0,0.63-0.25,0.67-0.58l1.74-11.37
		c0.05-0.35,0.34-0.61,0.69-0.61h6.52c0.34,0.01,0.63,0.26,0.68,0.6l1.96,11.53c0.05,0.33,0.34,0.58,0.67,0.58
		c0.34,0,0.63-0.25,0.67-0.58l2.01-11.83c0.05-0.33,0.34-0.58,0.68-0.58h6.47c0.22,0,0.42,0.11,0.56,0.28
		c0.13,0.17,0.18,0.4,0.13,0.61L674.17-62.72z M674.17-62.72"/>
</g>
<g>
	<g>
		<path class="st7" d="M830.22-175.92c-27.04,0.01-43.62,0-49.73-0.03c-0.94-0.06-1.86,0.35-2.44,1.09
			c-3.79,4.36-9.2,10.53-16.23,18.51c-1.52,1.73-3.83,2.57-6.11,2.21c-2.28-0.36-4.22-1.85-5.14-3.96
			c-2.44-5.56-4.85-11.12-7.25-16.7c-0.39-0.92-0.86-1.15-1.81-1.15c-2.27,0.03-5.3,0.03-9.09,0.03c-3.73,0-6.75-3.02-6.75-6.75
			v-71.48c0-1.79,0.71-3.51,1.98-4.77c1.27-1.27,2.98-1.98,4.77-1.98h97.8c3.73,0,6.75,3.02,6.75,6.75v71.47
			C836.97-178.94,833.94-175.92,830.22-175.92L830.22-175.92z M824.67-188.06v-60.66l-85.58,0.04v60.66l6.66-0.04
			c2.61,0,4.1,0.11,4.46,0.32c0.36,0.24,2.5,5.33,6.41,15.29c0.17,0.44,0.56,0.75,1.02,0.83c0.46,0.08,0.93-0.09,1.24-0.44
			c5.99-6.8,10.39-11.78,13.22-14.94c0.31-0.35,0.99-0.7,2.02-1.02L824.67-188.06L824.67-188.06z M766.16-233h31
			c2.41,0,4.64,1.54,5.85,4.05c1.21,2.51,1.21,5.6,0,8.11c-1.21,2.51-3.43,4.05-5.85,4.05h-31c-3.73,0-6.75-3.63-6.75-8.11
			C759.41-229.37,762.44-233,766.16-233L766.16-233z M853.91-200h-7.6c-0.89,0-1.75-0.36-2.39-0.99c-0.63-0.63-0.99-1.49-0.99-2.39
			v-5.31c0-0.9,0.36-1.75,0.99-2.39c0.63-0.63,1.49-0.99,2.39-0.99h2.05v-61.58h-79.98v2.61c0,1.86-1.51,3.37-3.37,3.37h-5.4
			c-1.86,0-3.37-1.51-3.37-3.37v-8.21c0-3.73,3.02-6.75,6.75-6.75h90.93c3.73,0,6.75,3.02,6.75,6.75v72.5
			C860.66-203.03,857.63-200,853.91-200L853.91-200z M853.91-200"/>
	</g>
</g>
<g>
	<path class="st7" d="M632.02-340.88c-26.05-0.03-47.16-21.14-47.19-47.19c0-26.03,21.18-47.19,47.19-47.19
		c26.01,0,47.19,21.17,47.19,47.19C679.17-362.03,658.06-340.92,632.02-340.88L632.02-340.88z M632.02-422.13
		c-18.77,0-34.05,15.28-34.05,34.05c0,18.77,15.28,34.05,34.05,34.05c18.77,0,34.05-15.28,34.05-34.05
		C666.07-406.85,650.79-422.13,632.02-422.13L632.02-422.13z M679.81-317h-95.59c-3.62-0.02-6.54-2.95-6.54-6.57
		c0-3.62,2.92-6.55,6.54-6.57h95.58c3.62,0.01,6.54,2.95,6.54,6.56C686.35-319.96,683.43-317.02,679.81-317L679.81-317z M679.81-317
		"/>
</g>
<g>
	<g>
		<path class="st7" d="M854.87-52.48c-1.63-1.38-4.01-1.38-5.64,0l-19.05,16.83l-9.88-8.71c-1.63-1.37-4.01-1.37-5.64,0
			c-0.74,0.61-1.17,1.53-1.17,2.49c0,0.96,0.43,1.87,1.17,2.49l12.71,11.21c1.63,1.38,4.02,1.38,5.64,0l21.86-19.33
			c0.74-0.62,1.17-1.53,1.17-2.49C856.04-50.95,855.61-51.86,854.87-52.48 M861.01-18.45L872,0.79l-11.75,0.93l-7.66,8.07
			L841.81-9.08c-4.66,0.81-9.43,0.81-14.09,0L816.95,9.79l-7.67-8.07l-11.74-0.93l10.99-19.24c-6.46-5.97-10.45-14.12-10.45-23.09
			c0-18.23,16.46-33.06,36.7-33.06c20.23,0,36.7,14.83,36.7,33.06C871.46-32.57,867.48-24.42,861.01-18.45"/>
		<path class="st7" d="M782.13-0.47h-31.05v-13.67l31.05-2.15V-0.47z M782.13-26.04l-31.05,2.87V-36.1l31.05-4.99V-26.04z
			 M782.13-51.69l-31.05,5.96v-13.22l31.05-7.8V-51.69z M782.13-76.91l-31.05,8.17v-13.78l31.05-10.05V-76.91z M816.59-107.66v21.73
			l-0.44,0.17c-5.95,2.46-11.37,6.06-15.94,10.6c-3.67,3.6-6.75,7.75-9.12,12.31v-43.24l-49.4,15.59v90.36H733l0.02-94.95
			l66.03-22.77L816.59-107.66z M835.65-89.67c-1.39,0-2.77,0.05-4.12,0.17v-44.56l-59.23,19.09v-5.82l65.21-23.32l19.6,16.34v42.87
			c-0.65-0.3-1.29-0.6-1.94-0.87C848.99-88.35,842.35-89.68,835.65-89.67L835.65-89.67z M835.65-89.67"/>
	</g>
</g>
<g>
	<g>
		<defs>
			<rect id="SVGID_00000166675381652236431400000014341368020596657792_" x="737.41" y="27.56" width="142.29" height="149.44"/>
		</defs>
		<clipPath id="SVGID_00000129173885325232342740000003762147311695557761_">
			<use xlink:href="#SVGID_00000166675381652236431400000014341368020596657792_"  style="overflow:visible;"/>
		</clipPath>
		<path style="clip-path:url(#SVGID_00000129173885325232342740000003762147311695557761_);fill:#FF0000;" d="M808.69,78.85v-41.5
			c22.18,1.67,37.14,13.12,43.37,33.2c1.71,5.62,7.32,15.64,11.79,23.69c2.95,5.28,6.27,11.26,6.48,12.51
			c-0.7,1.5-8.42,5.35-15.24,8.09l-0.8,0.31v19.17c0,0.18-0.12,4.11-4.23,8.31c-3.86,3.96-12.8,4.21-12.87,4.21h-10.41v26.65
			l0.09,0.22c0.44,1.13,1.85,3.07,4.31,3.07c3.45,0,4.74-2.16,4.95-3.32l0.03-17.24c3.05,0.09,10.57-0.3,17.74-4.84
			c9.84-6.27,9.76-16.66,9.73-17.11v-12.84c3.54-1.24,15.29-5.81,16.03-12.21c0.3-3.14-2.66-9.12-7.94-19.38
			c-3.62-7.03-7.72-15-10.52-22.36c-7.38-19.65-20.09-39.76-58.44-39.76c-39.89,0-65.36,34.65-65.36,58.5
			c0,21.27,9.48,36.92,15.75,47.26c2.74,4.53,4.9,8.11,4.86,10.01v30c0,1.74,2.25,3.32,4.52,3.32c2.63,0,4.85-1.11,4.85-3.29V143.5
			c0-3.66-2.91-9.1-6.64-16.02c-5.87-10.97-13.92-25.93-13.98-41.26c-0.14-25.71,27.81-47.11,52.51-48.98v41.21"/>
	</g>
	<path class="st7" d="M803.82,106.53c-6.87-0.49-12.05-6.45-11.59-13.32c0.48-6.88,6.45-12.06,13.33-11.59
		c6.86,0.49,12.06,6.46,11.57,13.33C816.64,101.82,810.69,107,803.82,106.53 M836.76,115.16c-1.8-1.46-4.17-2-6.42-1.46l-8.25-6.91
		c2.33-3.18,3.86-6.99,4.16-11.2c0.82-11.9-8.15-22.22-20.05-23.07c-11.9-0.81-22.22,8.16-23.06,20.05
		c-0.82,11.9,8.15,22.22,20.05,23.07c4.18,0.29,8.35-0.65,12.01-2.71l9.28,7.76c-0.08,2.25,0.73,4.51,2.58,6.07
		c3.21,2.68,7.98,2.26,10.66-0.95C840.39,122.61,839.96,117.84,836.76,115.16"/>
</g>
<g>
	<path class="st7" d="M968.36-12.61h-48.41c-1.84,0-3.53-0.61-4.78-1.72c-0.63-0.56-1.68-1.75-1.68-3.47v-86
		c0-1.72,1.05-2.91,1.68-3.47c1.25-1.11,2.95-1.72,4.78-1.72h27.52v-11.87h-29.2c-4.34,0-8.44,1.53-11.56,4.3
		c-3.28,2.92-5.09,6.86-5.09,11.08v89.36c0,4.22,1.81,8.15,5.09,11.08c3.12,2.77,7.22,4.3,11.55,4.3h58.12
		C973.21-3.68,970.5-8.8,968.36-12.61L968.36-12.61z M968.36-12.61"/>
	<path class="st7" d="M1021.74-107.26c0.63,0.56,1.68,1.75,1.68,3.47v32.31c3.68,1.44,8.79,3.38,11.87,5.75v-39.75
		c0-4.22-1.81-8.15-5.09-11.08c-3.11-2.77-7.22-4.3-11.55-4.3h-30.42v11.87h28.74C1018.8-108.98,1020.49-108.37,1021.74-107.26
		L1021.74-107.26z M1021.74-107.26"/>
	<g>
		<path class="st7" d="M1009.18-63.57c-18.13,0-32.82,14.69-32.82,32.82c0,18.13,14.69,32.82,32.82,32.82
			c18.13,0,32.82-14.7,32.82-32.82C1042-48.88,1027.3-63.57,1009.18-63.57L1009.18-63.57z M1029.63-38.81l-22.97,22.15
			c-0.31,0.31-0.65,0.55-1.02,0.72c-1.44,1.03-3.46,0.9-4.75-0.4l-9.87-9.87c-1.44-1.44-1.44-3.78,0-5.22
			c1.44-1.45,3.78-1.45,5.22,0l7.4,7.4l20.76-20.01c1.44-1.45,3.78-1.45,5.22,0C1031.07-42.59,1031.07-40.25,1029.63-38.81
			L1029.63-38.81z M1029.63-38.81"/>
	</g>
</g>
<path class="st7" d="M968.08-147.53c2.75,0,4.98,2.21,5.02,4.94l0,0.08v71.62l26.32-26.32c1.96-1.96,5.14-1.96,7.11,0
	c1.94,1.94,1.96,5.08,0.06,7.05l-0.06,0.06l-34.9,34.9c-0.05,0.05-0.09,0.09-0.14,0.13l-0.09,0.08c-0.38,0.33-0.8,0.61-1.26,0.82
	l-0.1,0.05l-0.07,0.03c-0.42,0.17-0.87,0.28-1.32,0.33l-0.11,0.01l-0.07,0.01l-0.12,0.01l-0.12,0c-0.05,0-0.09,0-0.14,0h-0.07
	l-0.11,0l-0.13-0.01c-0.51-0.03-1.01-0.14-1.48-0.32l-0.1-0.04l-0.07-0.03c-0.49-0.21-0.95-0.49-1.35-0.84l-0.11-0.1l-0.06-0.06
	c-0.03-0.02-0.05-0.05-0.08-0.07l-34.9-34.9c-1.96-1.96-1.96-5.14,0-7.11c1.94-1.94,5.08-1.96,7.05-0.06l0.06,0.06l26.32,26.32
	v-71.62C963.05-145.28,965.3-147.53,968.08-147.53L968.08-147.53z"/>
<g>
	<path class="st7" d="M996.25,93.18h-55.28c-3.05,0-5.53-2.48-5.53-5.53c0-3.05,2.48-5.53,5.53-5.53h55.28
		c3.04,0,5.53,2.48,5.53,5.53C1001.78,90.7,999.29,93.18,996.25,93.18L996.25,93.18z M959.4,115.29h-18.43
		c-3.05,0-5.53-2.48-5.53-5.53c0-3.05,2.48-5.53,5.53-5.53h18.43c3.04,0,5.53,2.48,5.53,5.53
		C964.92,112.81,962.44,115.29,959.4,115.29L959.4,115.29z M959.4,115.29"/>
	<path class="st7" d="M985.25,176.37h-60.87c-9.14,0-16.58-7.45-16.58-16.58V47.12c0-9.14,7.45-16.58,16.58-16.58h103.19
		c9.14,0,16.58,7.45,16.58,16.58v62.65c0,3.04-2.48,5.53-5.53,5.53c-3.05,0-5.53-2.48-5.53-5.53V47.12c0-3.04-2.48-5.53-5.53-5.53
		H924.38c-3.04,0-5.53,2.48-5.53,5.53v112.67c0,3.04,2.48,5.53,5.53,5.53h60.87c3.04,0,5.53,2.48,5.53,5.53
		C990.78,173.89,988.31,176.37,985.25,176.37L985.25,176.37z M985.25,176.37"/>
	<path class="st7" d="M1022.04,174.67c-3.04,0-5.53-2.42-5.53-5.47c0-8.3,4.13-16.2,11.35-21.76c2.77-2.15,3.96-5.47,3.16-8.88
		c-0.74-3.1-3.41-5.68-6.69-6.4c-2.97-0.66-5.97,0-8.22,1.8c-2.08,1.67-3.28,4.11-3.28,6.69c0,3.04-2.48,5.53-5.53,5.53
		c-3.04,0-5.53-2.48-5.53-5.55c0-5.95,2.7-11.52,7.41-15.3c4.87-3.92,11.27-5.35,17.53-3.98c7.43,1.65,13.34,7.39,15.05,14.66
		c1.8,7.64-0.95,15.36-7.14,20.17c-4.48,3.47-7.04,8.19-7.04,12.92C1027.57,172.14,1025.09,174.67,1022.04,174.67L1022.04,174.67z
		 M1022.12,189c-3.04,0-5.55-2.48-5.55-5.53c0-3.05,2.46-5.53,5.51-5.53h0.04c3.06,0,5.53,2.48,5.53,5.53
		C1027.65,186.52,1025.17,189,1022.12,189L1022.12,189z M1022.12,189"/>
</g>
<g>
	<path class="st7" d="M1099.48-27.94c-3.39,3-8.4,2.48-11.19-1.15c-2.79-3.64-2.31-9.01,1.07-12.01l27.57-24.4
		c2.74-2.42,6.64-2.61,9.56-0.45l20.49,15.1l29.2-29c2.08-2.12,5.06-2.88,7.8-1.98c2.74,0.9,4.82,3.31,5.44,6.31
		c0.62,3-0.31,6.13-2.45,8.19l-33.87,33.64c-2.73,2.71-6.84,3.02-9.9,0.77l-20.8-15.34l-22.94,20.3V-27.94z M1099.48-27.94"/>
</g>
<g>
	<path class="st7" d="M1142.21,176.94h-34.17c-4.05,0-7.34-3.36-7.34-7.51c0-4.15,3.29-7.51,7.34-7.51h34.17
		c4.05,0,7.34,3.36,7.34,7.51C1149.55,173.58,1146.26,176.94,1142.21,176.94L1142.21,176.94z M1202.94,176.69h-31.82
		c-6.65,0-12.06-5.54-12.06-12.35v-60.61c0-6.81,5.41-12.35,12.06-12.35h31.82c6.65,0,12.06,5.54,12.06,12.35v60.61
		C1215,171.15,1209.59,176.69,1202.94,176.69L1202.94,176.69z M1173.73,161.67h26.59v-55.25h-26.59V161.67z M1173.73,161.67"/>
	<path class="st7" d="M1142.21,175.17c-4.05,0-7.34-3.36-7.34-7.51v-18.95l-47.14,0.43h-0.07c-8.63,0-15.66-7.19-15.66-16.03v-76.7
		c0-8.84,7.03-16.03,15.66-16.03h109.1c8.64,0,15.66,7.19,15.66,16.03v20.21c0,4.15-3.29,7.51-7.34,7.51s-7.34-3.36-7.34-7.51V56.41
		c0-0.54-0.46-1.01-0.98-1.01h-109.1c-0.52,0-0.98,0.47-0.98,1.01v76.7c0,0.53,0.45,1,0.97,1.01l54.5-0.5l0.07,0
		c4.05,0,7.34,3.36,7.34,7.51v26.53C1149.55,171.81,1146.26,175.17,1142.21,175.17L1142.21,175.17z M1142.21,175.17"/>
</g>
</svg>
