<?xml version="1.0" encoding="utf-8"?>
<!-- Generator: Adobe Illustrator 22.0.0, SVG Export Plug-In . SVG Version: 6.00 Build 0)  -->
<svg version="1.1" id="图层_1" xmlns="http://www.w3.org/2000/svg" xmlns:xlink="http://www.w3.org/1999/xlink" x="0px" y="0px"
	 viewBox="0 0 28 28" style="enable-background:new 0 0 28 28;" xml:space="preserve">
<style type="text/css">
	.st0{fill:url(#SVGID_1_);}
</style>
<linearGradient id="SVGID_1_" gradientUnits="userSpaceOnUse" x1="9.094947e-13" y1="14" x2="27.9635" y2="14">
	<stop  offset="0" style="stop-color:#F5705A"/>
	<stop  offset="1" style="stop-color:#EF2D33"/>
</linearGradient>
<path class="st0" d="M20.6,15.7c4.1-0.3,7.3-3.7,7.3-7.9c0-0.7-0.1-1.4-0.3-2.2c-0.1-0.3-0.3-0.5-0.6-0.6c-0.3-0.1-0.6,0-0.8,0.2
	l-1.5,1.5c-1,1-2.6,1-3.6,0c-1-1-1-2.6,0-3.6l1.5-1.5c0.2-0.2,0.3-0.5,0.2-0.8s-0.3-0.5-0.6-0.6C21.5,0.1,20.8,0,20.1,0
	c-4.3,0-7.9,3.5-7.9,7.9c0,0.4,0,0.8,0.1,1.3l-1,1l-5-5c0.5-1,0.3-2.2-0.5-3L3.9,0.3c-0.3-0.3-0.9-0.3-1.2,0L0.3,2.7
	c-0.3,0.3-0.3,0.9,0,1.2l1.8,1.8c0.5,0.5,1.2,0.8,1.8,0.8c0.4,0,0.8-0.1,1.1-0.3l4.9,4.9L1.6,19c-1,1-1.5,2.3-1.5,3.7
	c0,1.4,0.6,2.7,1.5,3.7S3.9,28,5.3,28C6.7,28,8,27.4,9,26.4l6-6.5l7,7.1c0.7,0.7,1.5,1,2.5,1c0.9,0,1.8-0.4,2.5-1
	c0.7-0.7,1-1.5,1-2.5c0-0.9-0.4-1.8-1-2.5L20.6,15.7L20.6,15.7z M4.5,4.6c-0.3,0.3-0.9,0.3-1.2,0L2.1,3.3l1.2-1.2l1.2,1.2
	C4.9,3.7,4.9,4.2,4.5,4.6z M7.7,25.2c-1.3,1.3-3.6,1.3-4.9,0c-0.7-0.7-1-1.5-1-2.5c0-0.9,0.4-1.8,1-2.4l11.1-10.2c0,0,0,0,0,0
	l0.1-0.1c0,0,0,0,0-0.1c0,0,0,0,0-0.1c0,0,0,0,0-0.1c0,0,0,0,0-0.1c0,0,0,0,0-0.1s0-0.1,0-0.1V9.4V9.4c0,0,0-0.1,0-0.1v0
	c-0.1-0.5-0.2-0.9-0.2-1.4c0-3.4,2.8-6.1,6.2-6.1L19.9,2c-1.7,1.7-1.7,4.4,0,6c0.8,0.8,1.9,1.2,3,1.2c1.1,0,2.2-0.4,3-1.2l0.3-0.3
	v0.1c0,3.4-2.7,6.1-6.1,6.1c-0.5,0-0.9,0-1.4-0.2h0c0,0-0.1,0-0.1,0h-0.2c0,0,0,0-0.1,0c0,0-0.1,0-0.1,0c0,0,0,0-0.1,0
	c0,0-0.1,0-0.1,0c0,0,0,0-0.1,0c0,0,0,0-0.1,0c0,0,0,0-0.1,0.1c0,0,0,0,0,0L7.7,25.2L7.7,25.2z M25.7,25.7c-0.7,0.7-1.8,0.7-2.5,0
	l-6.8-6.8l2.5-2.5l6.8,6.8c0.3,0.3,0.5,0.8,0.5,1.2C26.2,25,26,25.4,25.7,25.7z M5.2,21c-1,0-1.8,0.8-1.8,1.8c0,1,0.8,1.8,1.8,1.8
	S7,23.7,7,22.7C7,21.8,6.2,21,5.2,21z"/>
</svg>
